<svg id="레이어_1" data-name="레이어 1" xmlns="http://www.w3.org/2000/svg" xmlns:xlink="http://www.w3.org/1999/xlink" viewBox="0 0 1184.43 1017.06">
    <defs>
        <linearGradient id="gradient_299" x1="598.05" y1="485.97" x2="681.08" y2="485.97" gradientUnits="userSpaceOnUse">
            <stop offset="0" stop-color="#5f598b"/>
            <stop offset="0.26" stop-color="#76619d"/>
            <stop offset="0.75" stop-color="#9c6eba"/>
            <stop offset="1" stop-color="#ab73c5"/>
        </linearGradient>
        <linearGradient id="gradient_299-2" x1="714.41" y1="617.04" x2="1259.5" y2="617.04" xlink:href="#gradient_299"/>
        <linearGradient id="gradient_302" x1="715.24" y1="819.37" x2="1258.12" y2="819.37" gradientUnits="userSpaceOnUse">
            <stop offset="0" stop-color="#ada9e7"/>
            <stop offset="0.36" stop-color="#c4abee"/>
            <stop offset="0.71" stop-color="#d3acf2"/>
            <stop offset="1" stop-color="#d8acf4"/>
        </linearGradient>
        <linearGradient id="gradient_299-3" x1="422.05" y1="930.81" x2="665.12" y2="930.81" xlink:href="#gradient_299"/>
        <linearGradient id="gradient_299-4" x1="486.24" y1="859.26" x2="600.93" y2="859.26" xlink:href="#gradient_299"/>
        <linearGradient id="gradient_302-2" x1="309.92" y1="580.27" x2="457.85" y2="580.27" xlink:href="#gradient_302"/>
        <linearGradient id="gradient_302-3" x1="474.71" y1="578.9" x2="769.64" y2="578.9" xlink:href="#gradient_302"/>
        <linearGradient id="gradient_302-4" x1="474.71" y1="599.47" x2="769.64" y2="599.47" xlink:href="#gradient_302"/>
        <linearGradient id="gradient_302-5" x1="474.71" y1="620.03" x2="769.64" y2="620.03" xlink:href="#gradient_302"/>
        <linearGradient id="gradient_302-6" x1="474.71" y1="643.5" x2="769.64" y2="643.5" xlink:href="#gradient_302"/>
        <linearGradient id="gradient_302-7" x1="474.71" y1="664.07" x2="769.64" y2="664.07" xlink:href="#gradient_302"/>
        <linearGradient id="gradient_302-8" x1="474.71" y1="684.64" x2="769.64" y2="684.64" xlink:href="#gradient_302"/>
        <linearGradient id="gradient_9" x1="134.39" y1="918.97" x2="258.54" y2="577.88" gradientUnits="userSpaceOnUse">
            <stop offset="0" stop-color="#fff" stop-opacity="0.4"/>
            <stop offset="0.1" stop-color="#f3eff7" stop-opacity="0.4"/>
            <stop offset="0.24" stop-color="#d1c3e0" stop-opacity="0.4"/>
            <stop offset="0.4" stop-color="#9979bb" stop-opacity="0.4"/>
            <stop offset="0.56" stop-color="#541e8c" stop-opacity="0.4"/>
            <stop offset="0.76" stop-color="#2b8baf" stop-opacity="0.55"/>
            <stop offset="0.92" stop-color="#0cdfca" stop-opacity="0.66"/>
            <stop offset="1" stop-color="#00ffd4" stop-opacity="0.7"/>
        </linearGradient>
        <linearGradient id="gradient_375" x1="1053.4" y1="895.81" x2="1119.16" y2="715.14" gradientUnits="userSpaceOnUse">
            <stop offset="0" stop-color="#fff" stop-opacity="0.4"/>
            <stop offset="0.19" stop-color="#f2efff" stop-opacity="0.4"/>
            <stop offset="0.44" stop-color="#cec3ff" stop-opacity="0.4"/>
            <stop offset="0.56" stop-color="#b7a7ff" stop-opacity="0.4"/>
            <stop offset="0.66" stop-color="#8bbcf5" stop-opacity="0.47"/>
            <stop offset="0.89" stop-color="#27ecdd" stop-opacity="0.64"/>
            <stop offset="1" stop-color="#00ffd4" stop-opacity="0.7"/>
        </linearGradient>
        <linearGradient id="gradient_299-5" x1="7.49" y1="999.61" x2="549.61" y2="999.61" xlink:href="#gradient_299"/>
        <linearGradient id="gradient_211" x1="7.49" y1="1012.58" x2="549.61" y2="1012.58" gradientUnits="userSpaceOnUse">
            <stop offset="0" stop-color="#6d2b71"/>
            <stop offset="0.11" stop-color="#632969"/>
            <stop offset="0.28" stop-color="#4a2553"/>
            <stop offset="0.35" stop-color="#3d2348"/>
            <stop offset="0.39" stop-color="#3a2146"/>
            <stop offset="0.78" stop-color="#191334"/>
            <stop offset="1" stop-color="#0d0d2d"/>
        </linearGradient>
        <linearGradient id="gradient_299-6" x1="526.8" y1="884.97" x2="917.99" y2="884.97" xlink:href="#gradient_299"/>
        <linearGradient id="gradient_299-7" x1="1151.25" y1="898.7" x2="1362.72" y2="898.7" xlink:href="#gradient_299"/>
        <linearGradient id="gradient_299-8" x1="1401.71" y1="970.41" x2="1468.43" y2="970.41" xlink:href="#gradient_299"/>
        <linearGradient id="gradient_375-2" x1="712.23" y1="624.23" x2="842.69" y2="265.81" xlink:href="#gradient_375"/>
        <linearGradient id="gradient_375-3" x1="870.55" y1="663.06" x2="932.15" y2="493.83" xlink:href="#gradient_375"/>
        <linearGradient id="gradient_302-9" x1="751.85" y1="947.77" x2="877.32" y2="947.77" xlink:href="#gradient_302"/>
        <linearGradient id="gradient_302-10" x1="134.83" y1="927.64" x2="160.11" y2="927.64" xlink:href="#gradient_302"/>
        <linearGradient id="gradient_302-11" x1="172.28" y1="910.79" x2="197.56" y2="910.79" xlink:href="#gradient_302"/>
        <linearGradient id="gradient_302-12" x1="209.73" y1="935.6" x2="235.01" y2="935.6" xlink:href="#gradient_302"/>
        <linearGradient id="gradient_302-13" x1="247.18" y1="886.91" x2="272.47" y2="886.91" xlink:href="#gradient_302"/>
        <linearGradient id="gradient_302-14" x1="284.64" y1="951.52" x2="309.92" y2="951.52" xlink:href="#gradient_302"/>
        <linearGradient id="gradient_302-15" x1="322.09" y1="927.64" x2="347.37" y2="927.64" xlink:href="#gradient_302"/>
        <linearGradient id="gradient_302-16" x1="359.54" y1="911.72" x2="384.82" y2="911.72" xlink:href="#gradient_302"/>
        <linearGradient id="gradient_302-17" x1="396.99" y1="922.02" x2="422.27" y2="922.02" xlink:href="#gradient_302"/>
        <linearGradient id="gradient_24" x1="118.5" y1="862.06" x2="443.34" y2="862.06" gradientUnits="userSpaceOnUse">
            <stop offset="0" stop-color="#0dffd6"/>
            <stop offset="0" stop-color="#fff" stop-opacity="0.4"/>
            <stop offset="0" stop-color="#f7fffe" stop-opacity="0.42"/>
            <stop offset="0" stop-color="#dffffa" stop-opacity="0.49"/>
            <stop offset="0" stop-color="#b8fff3" stop-opacity="0.61"/>
            <stop offset="0.01" stop-color="#82ffea" stop-opacity="0.77"/>
            <stop offset="0.01" stop-color="#3dffdf" stop-opacity="0.97"/>
            <stop offset="0.01" stop-color="#34ffdd"/>
            <stop offset="0.89" stop-color="#06dad5" stop-opacity="0.73"/>
            <stop offset="1" stop-color="#00d5d4" stop-opacity="0.7"/>
        </linearGradient>
        <linearGradient id="gradient_302-18" x1="918.08" y1="548.18" x2="1001.88" y2="548.18" xlink:href="#gradient_302"/>
        <linearGradient id="gradient_302-19" x1="906.36" y1="507.88" x2="1017.41" y2="507.88" xlink:href="#gradient_302"/>
        <linearGradient id="gradient_302-20" x1="918.08" y1="515.55" x2="1001.88" y2="515.55" xlink:href="#gradient_302"/>
        <linearGradient id="gradient_302-21" x1="918.08" y1="554.92" x2="1001.88" y2="554.92" xlink:href="#gradient_302"/>
        <linearGradient id="gradient_302-22" x1="918.08" y1="508.81" x2="1001.88" y2="508.81" xlink:href="#gradient_302"/>
        <linearGradient id="gradient_299-9" x1="533.29" y1="400.82" x2="672.8" y2="400.82" xlink:href="#gradient_299"/>
        <linearGradient id="gradient_66" x1="603.05" y1="365.47" x2="603.05" y2="80.84" gradientUnits="userSpaceOnUse">
            <stop offset="0" stop-color="#ff8fd3" stop-opacity="0.4"/>
            <stop offset="0.14" stop-color="#ffa6c1" stop-opacity="0.51"/>
            <stop offset="0.34" stop-color="#ffc4ab" stop-opacity="0.65"/>
            <stop offset="0.54" stop-color="#ffdc99" stop-opacity="0.76"/>
            <stop offset="0.72" stop-color="#ffed8c" stop-opacity="0.84"/>
            <stop offset="0.88" stop-color="#fff784" stop-opacity="0.88"/>
            <stop offset="1" stop-color="#fffb81" stop-opacity="0.9"/>
        </linearGradient>
        <style>
            .cls-3{fill:#dcc0ff}.cls-31,.cls-5{fill:#fff}.cls-24{fill:#ab97ea}.cls-27{opacity:.51}.cls-28{fill:#e8dcff}.cls-30{fill:none;stroke:#fff;stroke-miterlimit:10;stroke-width:5px}.cls-31{opacity:.47}.cls-30{opacity:.48}.cls-42{fill:url(#gradient_302-18)}.cls-45{fill:url(#gradient_302-21)}.cls-50{fill:#fffb81}
        </style>
    </defs>
    <title>
        tutorial
    </title>
    <path d="M676.08,536.82a5,5,0,0,0,5-5v-16c0-7-2.2-12.65-6.55-16.71-9.46-8.83-26.33-7.68-39.89-6.75a102.19,102.19,0,0,1-11.59.4c-4.84-.33-8.47-1.86-10.79-4.56-3.78-4.4-3.3-10.79-3.3-10.83l0-.29-.94-42-10,.22.93,41.48c-.12,1.92-.3,10.88,5.61,17.84,4.13,4.87,10.12,7.6,17.78,8.12a102.45,102.45,0,0,0,13-.41c11-.75,26.09-1.78,32.38,4.09,2.13,2,3.3,1.6,3.38,25.37a5,5,0,0,0,5,5Z" transform="translate(-443.41 -24.43)" style="fill:url(#gradient_299)"/>
    <path d="M1259.5,472.78v325h-.14v-.19H714.41V472.78a36.5,36.5,0,0,1,36.45-36.45h472.19A36.5,36.5,0,0,1,1259.5,472.78Zm-23.69,301.28V472.78A12.77,12.77,0,0,0,1223.05,460H750.86a12.78,12.78,0,0,0-12.77,12.76V774.06Z" transform="translate(-443.41 -24.43)" style="fill:url(#gradient_299-2)"/>
    <path class="cls-3" d="M1259.36,797.74V816a24.27,24.27,0,0,1-.64,5.62c0-.25,0-.5,0-.75V798.18H714.63v22.64c0,.27,0,.53,0,.79A24.49,24.49,0,0,1,714,816v-18.4h.41v.19Z" transform="translate(-443.41 -24.43)"/>
    <rect class="cls-3" x="271" y="773.12" width="544.95" height="0.19"/>
    <path class="cls-3" d="M1258.74,798.18v22.64c0,.25,0,.5,0,.75a25.3,25.3,0,0,1-18.93,19l-.79,0H734.36l-.79,0a25.3,25.3,0,0,1-18.92-18.93c0-.26,0-.52,0-.79V798.18Zm-.62,17.77V798.8H715.24V816a24,24,0,0,0,24,24h494.9A24,24,0,0,0,1258.12,816Z" transform="translate(-443.41 -24.43)"/>
    <path d="M1258.12,798.8V816a24,24,0,0,1-24,24H739.23a24,24,0,0,1-24-24V798.8Z" transform="translate(-443.41 -24.43)" style="fill:url(#gradient_302)"/>
    <path class="cls-3" d="M1258.72,821.57a19.73,19.73,0,0,1-18.93,19A25.3,25.3,0,0,0,1258.72,821.57Z" transform="translate(-443.41 -24.43)"/>
    <path class="cls-3" d="M1239,840.56l.79,0a25.12,25.12,0,0,1-5.66.64H1044.34v-.62Z" transform="translate(-443.41 -24.43)"/>
    <path class="cls-5" d="M1235.81,472.78V774.06H738.09V472.78A12.78,12.78,0,0,1,750.86,460h472.19A12.77,12.77,0,0,1,1235.81,472.78Z" transform="translate(-443.41 -24.43)"/>
    <rect x="422.05" y="926.45" width="243.07" height="8.72" style="fill:url(#gradient_299-3)"/>
    <polygon class="cls-3" points="665.12 926.45 422.05 926.45 486.24 901.76 486.24 902.14 600.93 902.14 600.93 901.52 601.55 901.52 665.12 926.45"/>
    <polygon class="cls-3" points="600.93 901.52 600.93 902.14 486.24 902.14 486.24 901.76 486.87 901.52 600.93 901.52"/>
    <polygon points="600.93 816.75 600.93 901.52 486.87 901.52 486.24 901.76 486.24 816.75 600.93 816.75" style="fill:url(#gradient_299-4)"/>
    <rect x="486.24" y="816.13" width="114.69" height="0.63" style="fill:#ac98e0"/>
    <path class="cls-3" d="M929.65,840.56v.62H739.23a25.12,25.12,0,0,1-5.66-.64l.79,0Z" transform="translate(-443.41 -24.43)"/>
    <path class="cls-3" d="M714.65,821.61a25.3,25.3,0,0,0,18.92,18.93A19.73,19.73,0,0,1,714.65,821.61Z" transform="translate(-443.41 -24.43)"/>
    <rect x="309.92" y="457.15" width="147.94" height="246.25" style="fill:url(#gradient_302-2)"/>
    <rect x="474.71" y="574.19" width="294.94" height="9.43" rx="4.71" style="fill:url(#gradient_302-3)"/>
    <rect x="474.71" y="594.75" width="294.94" height="9.43" rx="4.71" style="fill:url(#gradient_302-4)"/>
    <rect x="474.71" y="615.32" width="294.94" height="9.43" rx="4.71" style="fill:url(#gradient_302-5)"/>
    <rect x="474.71" y="638.79" width="294.94" height="9.43" rx="4.71" style="fill:url(#gradient_302-6)"/>
    <rect x="474.71" y="659.36" width="294.94" height="9.43" rx="4.71" style="fill:url(#gradient_302-7)"/>
    <rect x="474.71" y="679.93" width="294.94" height="9.43" rx="4.71" style="fill:url(#gradient_302-8)"/>
    <rect y="628.49" width="392.31" height="241.57" style="fill:url(#gradient_9)"/>
    <rect x="987.8" y="739.91" width="196.62" height="132.02" style="fill:url(#gradient_375)"/>
    <polygon points="549.61 991.11 549.61 1008.11 7.49 1008.11 7.49 991.11 256.19 991.11 256.19 995.59 306.28 995.59 306.28 991.11 549.61 991.11" style="fill:url(#gradient_299-5)"/>
    <polygon points="549.61 1008.11 527.25 1017.06 31.64 1017.06 7.49 1008.11 549.61 1008.11" style="fill:url(#gradient_211)"/>
    <path d="M918,781.45v233.2H526.8V781.45A26.18,26.18,0,0,1,553,755.29H891.83A26.19,26.19,0,0,1,918,781.45ZM901,997.66V781.45a9.18,9.18,0,0,0-9.16-9.17H553a9.17,9.17,0,0,0-9.16,9.17V997.66ZM726.43,764.16a4.48,4.48,0,1,0-4.47,4.47A4.47,4.47,0,0,0,726.43,764.16Z" transform="translate(-443.41 -24.43)" style="fill:url(#gradient_299-6)"/>
    <path class="cls-5" d="M901,781.45V997.66H543.8V781.45a9.17,9.17,0,0,1,9.16-9.17H891.83A9.18,9.18,0,0,1,901,781.45Z" transform="translate(-443.41 -24.43)"/>
    <rect x="256.18" y="991.11" width="50.1" height="4.47" style="fill:#7567c0"/>
    <circle class="cls-5" cx="278.55" cy="739.73" r="4.47"/>
    <path d="M1362.72,783.12v232c0,14.55-12.12,26.4-27,26.4H1178.26c-14.89,0-27-11.85-27-26.4v-232c0-15,12.49-27.2,27.83-27.2h155.79C1350.23,755.92,1362.72,768.11,1362.72,783.12Zm-18.09,232v-232a9.66,9.66,0,0,0-9.76-9.53H1179.08a9.66,9.66,0,0,0-9.74,9.53v232a8.84,8.84,0,0,0,8.92,8.72H1335.7A8.84,8.84,0,0,0,1344.63,1015.09Zm-82.81-249.94a4.76,4.76,0,1,0-4.76,4.65A4.71,4.71,0,0,0,1261.82,765.15Z" transform="translate(-443.41 -24.43)" style="fill:url(#gradient_299-7)"/>
    <path class="cls-5" d="M1344.63,783.12v232a8.84,8.84,0,0,1-8.93,8.72H1178.26a8.84,8.84,0,0,1-8.92-8.72v-232a9.66,9.66,0,0,1,9.74-9.53h155.79A9.66,9.66,0,0,1,1344.63,783.12Z" transform="translate(-443.41 -24.43)"/>
    <ellipse class="cls-5" cx="813.65" cy="740.72" rx="4.76" ry="4.65"/>
    <path d="M1468.43,909.22v123.24a8.12,8.12,0,0,1-8.12,8.12h-50.47a8.13,8.13,0,0,1-8.13-8.12V909.22a9,9,0,0,1,9-9h48.74A9,9,0,0,1,1468.43,909.22ZM1465,1016.9v-92h-59.76v92ZM1442.4,914.62v-.71a1,1,0,0,0-1-1H1428a1,1,0,0,0-1,1v.71a1,1,0,0,0,1,1h13.39A1,1,0,0,0,1442.4,914.62Zm-.91,113.74a5.89,5.89,0,1,0-5.88,5.89A5.89,5.89,0,0,0,1441.49,1028.36Z" transform="translate(-443.41 -24.43)" style="fill:url(#gradient_299-8)"/>
    <rect class="cls-5" x="961.86" y="900.44" width="59.76" height="92.02"/>
    <path class="cls-24" d="M1442.4,913.91v.71a1,1,0,0,1-1,1H1428a1,1,0,0,1-1-1v-.71a1,1,0,0,1,1-1h13.39A1,1,0,0,1,1442.4,913.91Z" transform="translate(-443.41 -24.43)"/>
    <circle class="cls-24" cx="992.2" cy="1003.93" r="5.89"/>
    <rect x="664.78" y="284.87" width="224.71" height="322.09" style="fill:url(#gradient_375-2)"/>
    <rect x="860.47" y="498.35" width="81.46" height="161.04" style="fill:url(#gradient_375-3)"/>
    <g class="cls-27">
        <rect class="cls-28" x="35.58" y="664.07" width="129.21" height="7.33" rx="3.67"/>
        <rect class="cls-28" x="35.58" y="680.07" width="129.21" height="7.33" rx="3.67"/>
        <rect class="cls-28" x="35.58" y="696.06" width="129.21" height="7.33" rx="3.67"/>
    </g>
    <g class="cls-27">
        <rect class="cls-28" x="282.76" y="664.07" width="53.37" height="6.63" rx="3.32"/>
        <rect class="cls-28" x="282.76" y="678.54" width="53.37" height="6.63" rx="3.32"/>
        <rect class="cls-28" x="282.76" y="693.02" width="53.37" height="6.63" rx="3.32"/>
    </g>
    <g class="cls-27">
        <rect class="cls-28" x="786.5" y="793.28" width="53.37" height="6.63" rx="3.32"/>
        <rect class="cls-28" x="786.5" y="807.76" width="53.37" height="6.63" rx="3.32"/>
        <rect class="cls-28" x="786.5" y="822.23" width="53.37" height="6.63" rx="3.32"/>
    </g>
    <g class="cls-27">
        <rect class="cls-28" x="786.5" y="844.78" width="53.37" height="6.63" rx="3.32"/>
        <rect class="cls-28" x="786.5" y="859.25" width="53.37" height="6.63" rx="3.32"/>
        <rect class="cls-28" x="786.5" y="873.72" width="53.37" height="6.63" rx="3.32"/>
    </g>
    <rect class="cls-5" x="1021.51" y="781.11" width="129.21" height="9.43" rx="4.71"/>
    <rect class="cls-5" x="1021.51" y="801.68" width="129.21" height="9.43" rx="4.71"/>
    <rect class="cls-5" x="1021.51" y="822.24" width="129.21" height="9.43" rx="4.71"/>
    <circle cx="726.28" cy="348.78" r="26.92" style="opacity:.47;fill:none;stroke:#fff;stroke-miterlimit:10;stroke-width:5px"/>
    <circle class="cls-30" cx="217.69" cy="683.27" r="29.03"/>
    <path class="cls-30" d="M1153.45,338.23A38.14,38.14,0,0,1,1206,383.46" transform="translate(-443.41 -24.43)"/>
    <rect class="cls-31" x="796.8" y="322.32" width="78.65" height="2.81"/>
    <rect class="cls-31" x="796.8" y="328.87" width="78.65" height="2.81"/>
    <rect class="cls-31" x="796.8" y="335.43" width="78.65" height="2.81"/>
    <rect class="cls-31" x="796.8" y="341.98" width="49.62" height="2.81"/>
    <circle class="cls-31" cx="726.11" cy="348.07" r="1.87"/>
    <rect x="751.85" y="912.19" width="125.47" height="71.16" style="fill:url(#gradient_302-9)"/>
    <rect x="134.83" y="892.53" width="25.28" height="70.22" style="fill:url(#gradient_302-10)"/>
    <rect x="172.28" y="858.82" width="25.28" height="103.93" style="fill:url(#gradient_302-11)"/>
    <rect x="209.73" y="908.45" width="25.28" height="54.31" style="fill:url(#gradient_302-12)"/>
    <rect x="247.18" y="811.07" width="25.28" height="151.68" style="fill:url(#gradient_302-13)"/>
    <rect x="284.64" y="940.28" width="25.28" height="22.47" style="fill:url(#gradient_302-14)"/>
    <rect x="322.09" y="892.53" width="25.28" height="70.22" style="fill:url(#gradient_302-15)"/>
    <rect x="359.54" y="860.7" width="25.28" height="102.06" style="fill:url(#gradient_302-16)"/>
    <rect x="396.99" y="881.29" width="25.28" height="81.46" style="fill:url(#gradient_302-17)"/>
    <polygon points="119.32 922.77 118.5 922.21 147.22 880.3 147.52 880.33 185.15 884.09 221.29 920.81 259.62 824.74 297.18 857.6 334.68 801.36 372.28 844.6 409.49 821.34 443.34 821.34 443.34 822.34 409.78 822.34 372.08 845.9 334.78 803 297.38 859.11 296.95 858.73 260.03 826.43 221.65 922.61 184.69 885.05 147.71 881.35 119.32 922.77" style="fill:url(#gradient_24)"/>
    <path class="cls-42" d="M918.11,533.41A41.82,41.82,0,0,0,931.88,563l24.79-29.54Z" transform="translate(-443.41 -24.43)"/>
    <path d="M1017.36,527.45a55.36,55.36,0,0,0-18.24-39.14l-32.85,39.14Z" transform="translate(-443.41 -24.43)" style="fill:url(#gradient_302-19)"/>
    <path d="M931.88,500.78a41.82,41.82,0,0,0-13.77,29.54h38.56Z" transform="translate(-443.41 -24.43)" style="fill:url(#gradient_302-20)"/>
    <path class="cls-45" d="M934.25,564.93a41.67,41.67,0,0,0,24.19,8.8V536.1Z" transform="translate(-443.41 -24.43)"/>
    <path d="M958.44,490a41.67,41.67,0,0,0-24.19,8.8l24.19,28.83Z" transform="translate(-443.41 -24.43)" style="fill:url(#gradient_302-22)"/>
    <path class="cls-42" d="M1001.84,533.41H963.29L988.08,563A41.77,41.77,0,0,0,1001.84,533.41Z" transform="translate(-443.41 -24.43)"/>
    <path class="cls-45" d="M961.52,573.73a41.72,41.72,0,0,0,24.19-8.8L961.52,536.1Z" transform="translate(-443.41 -24.43)"/>
    <path d="M672.8,365.94a69.76,69.76,0,1,1-139.51,0" transform="translate(-443.41 -24.43)" style="fill:url(#gradient_299-9)"/>
    <path d="M729.92,207.71A126.87,126.87,0,0,0,602.14,80.84c-69,.48-125.34,56.73-126,125.7-.28,31.33,12.17,54.07,29.36,82.32,22.34,46.59,27.75,76.61,27.75,76.61H672.8c0-19.3,15.46-51.93,30.18-79.6C716.81,262.48,729.92,237.19,729.92,207.71Z" transform="translate(-443.41 -24.43)" style="fill:url(#gradient_66)"/>
    <g style="opacity:.48">
        <path class="cls-5" d="M574,322A15.08,15.08,0,1,1,589.1,307,15.1,15.1,0,0,1,574,322Zm0-27.15A12.08,12.08,0,1,0,586.1,307,12.09,12.09,0,0,0,574,294.88Z" transform="translate(-443.41 -24.43)"/>
        <path class="cls-5" d="M588.53,322.5a15.08,15.08,0,1,1,15.08-15.08A15.09,15.09,0,0,1,588.53,322.5Zm0-27.15a12.08,12.08,0,1,0,12.08,12.07A12.08,12.08,0,0,0,588.53,295.35Z" transform="translate(-443.41 -24.43)"/>
        <path class="cls-5" d="M603.05,323a15.08,15.08,0,1,1,15.07-15.08A15.1,15.1,0,0,1,603.05,323Zm0-27.16a12.08,12.08,0,1,0,12.07,12.08A12.09,12.09,0,0,0,603.05,295.81Z" transform="translate(-443.41 -24.43)"/>
        <path class="cls-5" d="M617.56,323.43a15.08,15.08,0,1,1,15.08-15.07A15.1,15.1,0,0,1,617.56,323.43Zm0-27.15a12.08,12.08,0,1,0,12.08,12.08A12.09,12.09,0,0,0,617.56,296.28Z" transform="translate(-443.41 -24.43)"/>
        <path class="cls-5" d="M632.07,323.9a15.08,15.08,0,1,1,15.08-15.07A15.09,15.09,0,0,1,632.07,323.9Zm0-27.15a12.08,12.08,0,1,0,12.08,12.08A12.09,12.09,0,0,0,632.07,296.75Z" transform="translate(-443.41 -24.43)"/>
    </g>
    <rect class="cls-50" x="457.52" y="108.94" width="17.79" height="39.32" rx="8.5" transform="translate(-295.9 468.01) rotate(-64.18)"/>
    <rect class="cls-50" x="513.49" y="47.16" width="17.79" height="39.32" rx="8.5" transform="matrix(0.85, -0.53, 0.53, 0.85, -398.75, 264.04)"/>
    <rect class="cls-50" x="593.7" y="24.43" width="17.79" height="39.32" rx="8.5" transform="translate(-443.54 -22.54) rotate(-0.18)"/>
    <rect class="cls-50" x="673.76" y="47.65" width="17.79" height="39.32" rx="8.5" transform="translate(-305.31 -374.25) rotate(31.82)"/>
    <rect class="cls-50" x="729.35" y="109.77" width="17.79" height="39.32" rx="8.5" transform="translate(85.3 -614.61) rotate(63.82)"/>
</svg>
