<svg id="레이어_1" data-name="레이어 1" xmlns="http://www.w3.org/2000/svg" xmlns:xlink="http://www.w3.org/1999/xlink" viewBox="0 0 173.39 43.11"><defs><style>.cls-1{fill:url(#gradient_43);}.cls-2{fill:url(#gradient_43-2);}.cls-3{fill:url(#gradient_43-3);}.cls-4{fill:url(#gradient_43-4);}.cls-5{fill:url(#gradient_43-5);}.cls-6{fill:url(#gradient_43-6);}.cls-7{fill:url(#gradient_43-7);}.cls-8{fill:url(#gradient_43-8);}.cls-9{fill:url(#gradient_43-9);}.cls-10{fill:url(#gradient_43-10);}.cls-11{fill:url(#gradient_43-11);}.cls-12{fill:url(#gradient_43-12);}.cls-13{fill:url(#gradient_111);}.cls-14{fill:url(#gradient_104);}.cls-15{fill:url(#gradient_108);}.cls-16{fill:url(#gradient_104-2);}</style><linearGradient id="gradient_43" x1="166.96" y1="242.88" x2="155.13" y2="231.06" gradientUnits="userSpaceOnUse"><stop offset="0" stop-color="#00ffdf"/><stop offset="0.02" stop-color="#06fbdf"/><stop offset="0.49" stop-color="#71afe3"/><stop offset="0.8" stop-color="#747cec"/><stop offset="1" stop-color="#7661f1"/></linearGradient><linearGradient id="gradient_43-2" x1="183.13" y1="242.93" x2="171.23" y2="231.02" xlink:href="#gradient_43"/><linearGradient id="gradient_43-3" x1="201.85" y1="245.24" x2="188.82" y2="232.22" xlink:href="#gradient_43"/><linearGradient id="gradient_43-4" x1="218.25" y1="245.24" x2="205.2" y2="232.19" xlink:href="#gradient_43"/><linearGradient id="gradient_43-5" x1="234.31" y1="243.85" x2="220.45" y2="229.99" xlink:href="#gradient_43"/><linearGradient id="gradient_43-6" x1="249.58" y1="242.88" x2="237.75" y2="231.06" xlink:href="#gradient_43"/><linearGradient id="gradient_43-7" x1="263.53" y1="240.53" x2="251.4" y2="228.41" xlink:href="#gradient_43"/><linearGradient id="gradient_43-8" x1="268.1" y1="244.33" x2="265" y2="241.23" xlink:href="#gradient_43"/><linearGradient id="gradient_43-9" x1="166.96" y1="269.67" x2="155.13" y2="257.85" xlink:href="#gradient_43"/><linearGradient id="gradient_43-10" x1="183.13" y1="269.72" x2="171.23" y2="257.81" xlink:href="#gradient_43"/><linearGradient id="gradient_43-11" x1="201.51" y1="269.74" x2="188.09" y2="256.32" xlink:href="#gradient_43"/><linearGradient id="gradient_43-12" x1="219.89" y1="270.69" x2="206.02" y2="256.83" xlink:href="#gradient_43"/><linearGradient id="gradient_111" y1="21.61" x2="27.18" y2="21.61" gradientUnits="userSpaceOnUse"><stop offset="0" stop-color="#00ffdf" stop-opacity="0.5"/><stop offset="0.49" stop-color="#71afe3" stop-opacity="0.8"/><stop offset="0.75" stop-color="#7484eb" stop-opacity="0.91"/><stop offset="1" stop-color="#7661f1"/></linearGradient><linearGradient id="gradient_104" x1="37.46" y1="9.34" x2="41.28" y2="9.34" gradientUnits="userSpaceOnUse"><stop offset="0" stop-color="#00ffdf" stop-opacity="0.5"/><stop offset="1" stop-color="#81dceb" stop-opacity="0.8"/></linearGradient><radialGradient id="gradient_108" cx="134.7" cy="238.23" r="7.45" gradientTransform="translate(408.36 240.7) rotate(120)" gradientUnits="userSpaceOnUse"><stop offset="0" stop-color="#fff" stop-opacity="0.2"/><stop offset="0.03" stop-color="#f3fafd" stop-opacity="0.26"/><stop offset="0.14" stop-color="#cceaf6" stop-opacity="0.45"/><stop offset="0.24" stop-color="#aeddf0" stop-opacity="0.6"/><stop offset="0.33" stop-color="#98d4ec" stop-opacity="0.71"/><stop offset="0.42" stop-color="#8bcfea" stop-opacity="0.78"/><stop offset="0.5" stop-color="#86cde9" stop-opacity="0.8"/><stop offset="0.74" stop-color="#83aeeb" stop-opacity="0.89"/><stop offset="1" stop-color="#7e86ed"/></radialGradient><linearGradient id="gradient_104-2" x1="126.09" y1="238.23" x2="143.3" y2="238.23" gradientTransform="translate(273.66 2.47) rotate(60)" xlink:href="#gradient_104"/></defs><title>logo </title><path class="cls-1" d="M156.75,244a7.78,7.78,0,0,1-3-2.88,8.37,8.37,0,0,1,0-8.33,7.64,7.64,0,0,1,3-2.88,9.66,9.66,0,0,1,8-.32,7.29,7.29,0,0,1,2.75,2l-1.29,1.19a1.57,1.57,0,0,1-2,.06,4.84,4.84,0,0,0-3-.94,5.18,5.18,0,0,0-2.59.64,4.43,4.43,0,0,0-1.77,1.77,5.56,5.56,0,0,0,0,5.18,4.52,4.52,0,0,0,1.77,1.78,5.28,5.28,0,0,0,2.59.63,4.84,4.84,0,0,0,3-.94,1.57,1.57,0,0,1,2,.05l1.28,1.18a7.17,7.17,0,0,1-2.77,2.08,9.72,9.72,0,0,1-8-.32Z" transform="translate(-95.33 -228.89)"/><path class="cls-2" d="M172.8,244a7.81,7.81,0,0,1-3.06-2.89,8.34,8.34,0,0,1,0-8.28,7.81,7.81,0,0,1,3.06-2.89,9.13,9.13,0,0,1,4.39-1.05,9,9,0,0,1,4.37,1.05,8,8,0,0,1,0,14.06,9,9,0,0,1-4.37,1.05A9.13,9.13,0,0,1,172.8,244Zm6.89-2.66a4.61,4.61,0,0,0,1.75-1.78,5.56,5.56,0,0,0,0-5.18,4.51,4.51,0,0,0-1.75-1.77,5.2,5.2,0,0,0-5,0,4.45,4.45,0,0,0-1.75,1.77,5.56,5.56,0,0,0,0,5.18,4.54,4.54,0,0,0,1.75,1.78,5.28,5.28,0,0,0,5,0Z" transform="translate(-95.33 -228.89)"/><path class="cls-3" d="M198.42,244.79l-3-4.36h-3.33v4.36h-3.62V235a5.83,5.83,0,0,1,5.83-5.82h.94a8.69,8.69,0,0,1,3.6.69,5.59,5.59,0,0,1,2.35,8,5.27,5.27,0,0,1-2.38,1.93l3.5,5Zm-.92-12a3.77,3.77,0,0,0-2.47-.7h0a2.94,2.94,0,0,0-2.95,2.94v2.5H195a3.77,3.77,0,0,0,2.47-.71,2.81,2.81,0,0,0,0-4Z" transform="translate(-95.33 -228.89)"/><path class="cls-4" d="M214.83,244.79l-3-4.36h-3.32v4.36h-3.62v-9.9a5.74,5.74,0,0,1,5.73-5.73h1a8.71,8.71,0,0,1,3.61.69,5.16,5.16,0,0,1,3.18,5,5.1,5.1,0,0,1-3.21,4.93l3.5,5Zm-.92-12a3.78,3.78,0,0,0-2.48-.7h0a2.94,2.94,0,0,0-2.94,2.94v2.5h2.94a3.78,3.78,0,0,0,2.48-.71,2.81,2.81,0,0,0,0-4Z" transform="translate(-95.33 -228.89)"/><path class="cls-5" d="M233.38,241.88v2.91h-8.33a3.77,3.77,0,0,1-3.77-3.78V229.16h8.91a2.9,2.9,0,0,1,2.9,2.9h-8.22v3.39h7.26v2.82h-7.26v3.61Z" transform="translate(-95.33 -228.89)"/><path class="cls-6" d="M239.37,244a7.78,7.78,0,0,1-3-2.88,8.37,8.37,0,0,1,0-8.33,7.64,7.64,0,0,1,3-2.88,9.66,9.66,0,0,1,8-.32,7.29,7.29,0,0,1,2.75,2l-1.29,1.19a1.57,1.57,0,0,1-2,.06,4.84,4.84,0,0,0-3-.94,5.16,5.16,0,0,0-2.59.64,4.43,4.43,0,0,0-1.77,1.77,5.56,5.56,0,0,0,0,5.18,4.52,4.52,0,0,0,1.77,1.78,5.26,5.26,0,0,0,2.59.63,4.84,4.84,0,0,0,3-.94,1.57,1.57,0,0,1,2,.05l1.28,1.18a7.17,7.17,0,0,1-2.77,2.08,9.72,9.72,0,0,1-8-.32Z" transform="translate(-95.33 -228.89)"/><path class="cls-7" d="M255.66,232.11H253.6a3,3,0,0,1-2.94-3h13.61v3h-5v12.68h-3.61Z" transform="translate(-95.33 -228.89)"/><path class="cls-8" d="M265,244.34a2.11,2.11,0,0,1-.62-1.56,2,2,0,0,1,.62-1.56,2.3,2.3,0,0,1,3.08,0,2.06,2.06,0,0,1,.63,1.56,2.12,2.12,0,0,1-.63,1.56,2.22,2.22,0,0,1-3.08,0Z" transform="translate(-95.33 -228.89)"/><path class="cls-9" d="M156.75,270.8a7.64,7.64,0,0,1-3-2.88,8.35,8.35,0,0,1,0-8.32,7.64,7.64,0,0,1,3-2.88,9.07,9.07,0,0,1,4.34-1,9.25,9.25,0,0,1,3.68.71,7.31,7.31,0,0,1,2.75,2.06l-1.29,1.19a1.58,1.58,0,0,1-2,.06,4.84,4.84,0,0,0-3-.94,5.18,5.18,0,0,0-2.59.64,4.43,4.43,0,0,0-1.77,1.77,5.56,5.56,0,0,0,0,5.18,4.52,4.52,0,0,0,1.77,1.78,5.28,5.28,0,0,0,2.59.63,4.84,4.84,0,0,0,3-.94,1.56,1.56,0,0,1,2,.05l1.28,1.18a7.17,7.17,0,0,1-2.77,2.08,9.25,9.25,0,0,1-3.68.71A8.9,8.9,0,0,1,156.75,270.8Z" transform="translate(-95.33 -228.89)"/><path class="cls-10" d="M172.8,270.79a7.81,7.81,0,0,1-3.06-2.89,8.34,8.34,0,0,1,0-8.28,7.81,7.81,0,0,1,3.06-2.89,9.13,9.13,0,0,1,4.39-1.05,9,9,0,0,1,4.37,1.05,8,8,0,0,1,0,14.06,9,9,0,0,1-4.37,1A9.13,9.13,0,0,1,172.8,270.79Zm6.89-2.66a4.61,4.61,0,0,0,1.75-1.78,5.56,5.56,0,0,0,0-5.18,4.51,4.51,0,0,0-1.75-1.77,5.2,5.2,0,0,0-5,0,4.45,4.45,0,0,0-1.75,1.77,5.56,5.56,0,0,0,0,5.18,4.54,4.54,0,0,0,1.75,1.78,5.28,5.28,0,0,0,5,0Z" transform="translate(-95.33 -228.89)"/><path class="cls-11" d="M188.46,256h7.1a9.93,9.93,0,0,1,4.5,1,7.39,7.39,0,0,1,3,2.73,8.36,8.36,0,0,1,0,8.22,7.32,7.32,0,0,1-3,2.73,9.93,9.93,0,0,1-4.5,1h-2.09a5,5,0,0,1-5-5Zm6.92,12.66a5.25,5.25,0,0,0,3.74-1.31,5.18,5.18,0,0,0,0-7.08,5.24,5.24,0,0,0-3.74-1.3h-3.3v6.38a3.31,3.31,0,0,0,3.3,3.31Z" transform="translate(-95.33 -228.89)"/><path class="cls-12" d="M219,268.67v2.9h-8.69a3.41,3.41,0,0,1-3.41-3.41V256h8.91a2.9,2.9,0,0,1,2.9,2.9H210.5v3.39h7.25v2.82H210.5v3.61Z" transform="translate(-95.33 -228.89)"/><polygon class="cls-13" points="8.61 43.1 0 43.11 18.57 0.12 27.18 0.11 8.61 43.1"/><rect class="cls-14" x="37.46" y="0.51" width="3.83" height="17.66"/><rect class="cls-15" x="132.78" y="229.4" width="3.83" height="17.66" transform="translate(-99.6 245.11) rotate(-120)"/><rect class="cls-16" x="132.78" y="229.4" width="3.83" height="17.66" transform="translate(-234.29 6.87) rotate(-60)"/></svg>