<svg id="레이어_1" data-name="레이어 1" xmlns="http://www.w3.org/2000/svg" xmlns:xlink="http://www.w3.org/1999/xlink" viewBox="0 0 1031.46 413.3"><defs><style>.cls-1{fill:#fff;}.cls-2{fill:url(#무제_그라디언트_3);}.cls-3,.cls-8,.cls-9{opacity:0.9;}.cls-4{fill:#2effbe;}.cls-5{fill:#764ec8;}.cls-6{opacity:0.7;}.cls-7{fill:#4a007a;}.cls-8,.cls-9{fill:none;stroke:#2effbe;stroke-miterlimit:10;isolation:isolate;}.cls-8{stroke-width:3px;}.cls-9{stroke-width:3.5px;}</style><linearGradient id="무제_그라디언트_3" x1="-82.43" y1="35.85" x2="479.99" y2="1581.09" gradientTransform="matrix(1, 0, 0, -1, 0, 1085.85)" gradientUnits="userSpaceOnUse"><stop offset="0" stop-color="#fff" stop-opacity="0.4"/><stop offset="0.14" stop-color="#f6f4ff" stop-opacity="0.39"/><stop offset="0.34" stop-color="#ddd6ff" stop-opacity="0.35"/><stop offset="0.56" stop-color="#b7a7ff" stop-opacity="0.3"/><stop offset="0.59" stop-color="#99b5f8" stop-opacity="0.35"/><stop offset="0.66" stop-color="#62d0eb" stop-opacity="0.44"/><stop offset="0.74" stop-color="#37e5e1" stop-opacity="0.51"/><stop offset="0.81" stop-color="#18f3da" stop-opacity="0.56"/><stop offset="0.9" stop-color="#06fcd5" stop-opacity="0.59"/><stop offset="1" stop-color="#00ffd4" stop-opacity="0.6"/></linearGradient></defs><title>pattern1</title><path class="cls-1" d="M35,789.34C11.77,772.7,0,761.47,0,761.47S11.14,773.66,35,789.34Z" transform="translate(0 -376.04)"/><path class="cls-2" d="M35,789.34C11.77,772.7,0,761.47,0,761.47S11.14,773.66,35,789.34Z" transform="translate(0 -376.04)"/><g class="cls-3"><rect class="cls-4" x="712.2" y="376.04" width="3.57" height="24.5" transform="translate(-0.61 -374.92) rotate(-0.09)"/><rect class="cls-4" x="702" y="386.75" width="24.5" height="3.57" transform="translate(-0.61 -374.92) rotate(-0.09)"/></g><g class="cls-3"><rect class="cls-4" x="786.82" y="564.56" width="22.4" height="3.27" transform="translate(-149.1 435.88) rotate(-49.9)"/><rect class="cls-4" x="796.42" y="555.33" width="3.27" height="22.4" transform="translate(-149.34 436.02) rotate(-49.9)"/></g><rect class="cls-5" x="676.57" y="516.43" width="17.75" height="2.59" transform="translate(65.83 736.63) rotate(-80.9)"/><rect class="cls-5" x="684" y="508.64" width="2.59" height="17.75" transform="translate(65.91 736.3) rotate(-80.9)"/><g class="cls-6"><rect class="cls-7" x="708.61" y="474.96" width="8.28" height="1.69" transform="translate(-143.26 59.01) rotate(-31)"/><rect class="cls-7" x="710.56" y="478.19" width="8.28" height="1.69" transform="translate(-144.64 60.48) rotate(-31)"/></g><rect class="cls-5" x="982.75" y="531.29" width="3.21" height="22" transform="matrix(1, -0.09, 0.09, 1, -44.15, -286.75)"/><rect class="cls-5" x="973.11" y="540.49" width="22" height="3.21" transform="matrix(1, -0.09, 0.09, 1, -44.13, -286.77)"/><g class="cls-6"><rect class="cls-7" x="993.16" y="495.4" width="10.27" height="2.1" transform="translate(-57.53 478.59) rotate(-45.18)"/><rect class="cls-7" x="996.47" y="498.69" width="10.27" height="2.1" transform="translate(-58.88 481.9) rotate(-45.18)"/></g><g class="cls-3"><path class="cls-4" d="M877.92,437.22a2.45,2.45,0,0,1,.48-1.9,2.34,2.34,0,0,1,1.66-1,2.67,2.67,0,0,1,2.91,2.11,2.4,2.4,0,0,1-.47,1.9,2.54,2.54,0,0,1-1.67,1,2.59,2.59,0,0,1-2.91-2.12Zm-.43,6.77a2.44,2.44,0,0,1-.49,1.86,4.38,4.38,0,0,1-.72.77,12.81,12.81,0,0,1-1.38.93l-3.41,2.16-2.09-1.51,3.36-2.69a2.1,2.1,0,0,1-.33-1.29,2.49,2.49,0,0,1,.49-1.33,2.41,2.41,0,0,1,1.65-1,2.69,2.69,0,0,1,2.92,2.12Z" transform="translate(0 -376.04)"/></g><path class="cls-5" d="M757.13,491.61a6.24,6.24,0,1,1,6.24-6.24h0A6.25,6.25,0,0,1,757.13,491.61Zm0-10.27a4,4,0,1,0,4,4A4,4,0,0,0,757.13,481.34Z" transform="translate(0 -376.04)"/><circle class="cls-8" cx="1024.83" cy="229.28" r="5.13"/><circle class="cls-9" cx="919.59" cy="223.78" r="10.63"/></svg>