<svg id="레이어_1" data-name="레이어 1" xmlns="http://www.w3.org/2000/svg" xmlns:xlink="http://www.w3.org/1999/xlink" viewBox="0 0 910.58 402.52"><defs><style>.cls-1,.cls-3{fill:#fff;}.cls-2{fill:url(#gradient_3);}.cls-3{opacity:0.9;}</style><linearGradient id="gradient_3" x1="-82.43" y1="35.85" x2="479.99" y2="1581.09" gradientTransform="matrix(1, 0, 0, -1, 0, 1085.85)" gradientUnits="userSpaceOnUse"><stop offset="0" stop-color="#fff" stop-opacity="0.4"/><stop offset="0.14" stop-color="#f6f4ff" stop-opacity="0.39"/><stop offset="0.34" stop-color="#ddd6ff" stop-opacity="0.35"/><stop offset="0.56" stop-color="#b7a7ff" stop-opacity="0.3"/><stop offset="0.59" stop-color="#99b5f8" stop-opacity="0.35"/><stop offset="0.66" stop-color="#62d0eb" stop-opacity="0.44"/><stop offset="0.74" stop-color="#37e5e1" stop-opacity="0.51"/><stop offset="0.81" stop-color="#18f3da" stop-opacity="0.56"/><stop offset="0.9" stop-color="#06fcd5" stop-opacity="0.59"/><stop offset="1" stop-color="#00ffd4" stop-opacity="0.6"/></linearGradient></defs><title>pattern3</title><path class="cls-1" d="M35,789.34C11.77,772.7,0,761.47,0,761.47S11.14,773.66,35,789.34Z" transform="translate(0 -386.82)"/><path class="cls-2" d="M35,789.34C11.77,772.7,0,761.47,0,761.47S11.14,773.66,35,789.34Z" transform="translate(0 -386.82)"/><rect class="cls-1" x="898.72" y="443.4" width="3.35" height="23" transform="translate(-80 305.69) rotate(-40.43)"/><rect class="cls-1" x="899.06" y="443.42" width="3.35" height="23" transform="translate(662.92 -912.57) rotate(49.57)"/><rect class="cls-1" x="822.38" y="482.51" width="4.11" height="28.17" transform="translate(-2.04 -383.42) rotate(-0.24)"/><rect class="cls-1" x="822.68" y="482.8" width="4.11" height="28.17" transform="translate(1318.21 -716.71) rotate(89.76)"/><path class="cls-3" d="M886.41,399.28a6.23,6.23,0,1,1,6.23-6.23A6.24,6.24,0,0,1,886.41,399.28Zm0-9.64a3.41,3.41,0,1,0,3.41,3.41A3.41,3.41,0,0,0,886.41,389.64Z" transform="translate(0 -386.82)"/><path class="cls-3" d="M817.12,601.89q-.81,0-1.62-.06a19.48,19.48,0,1,1,16.43-32h0a19.47,19.47,0,0,1-14.81,32.09Zm-.06-35.68a16.2,16.2,0,1,0,12.37,5.71h0a16.11,16.11,0,0,0-11-5.65C818,566.23,817.5,566.21,817.06,566.21Z" transform="translate(0 -386.82)"/></svg>