<svg id="레이어_1" data-name="레이어 1" xmlns="http://www.w3.org/2000/svg" xmlns:xlink="http://www.w3.org/1999/xlink" viewBox="0 0 965.18 436.49"><defs><style>.cls-1,.cls-8{fill:#fff;}.cls-2{fill:url(#gradient_3);}.cls-3{fill:#b6afe4;}.cls-4{fill:#6885cc;}.cls-5{fill:#f899cc;}.cls-6{fill:#e8c0ec;}.cls-7{fill:#b4d2ff;}.cls-8{opacity:0.55;isolation:isolate;}</style><linearGradient id="gradient_3" x1="-82.43" y1="35.85" x2="479.99" y2="1581.09" gradientTransform="matrix(1, 0, 0, -1, 0, 1085.85)" gradientUnits="userSpaceOnUse"><stop offset="0" stop-color="#fff" stop-opacity="0.4"/><stop offset="0.14" stop-color="#f6f4ff" stop-opacity="0.39"/><stop offset="0.34" stop-color="#ddd6ff" stop-opacity="0.35"/><stop offset="0.56" stop-color="#b7a7ff" stop-opacity="0.3"/><stop offset="0.59" stop-color="#99b5f8" stop-opacity="0.35"/><stop offset="0.66" stop-color="#62d0eb" stop-opacity="0.44"/><stop offset="0.74" stop-color="#37e5e1" stop-opacity="0.51"/><stop offset="0.81" stop-color="#18f3da" stop-opacity="0.56"/><stop offset="0.9" stop-color="#06fcd5" stop-opacity="0.59"/><stop offset="1" stop-color="#00ffd4" stop-opacity="0.6"/></linearGradient></defs><title>pen1</title><path class="cls-1" d="M35,789.34C11.77,772.7,0,761.47,0,761.47S11.14,773.66,35,789.34Z" transform="translate(0 -352.85)"/><path class="cls-2" d="M35,789.34C11.77,772.7,0,761.47,0,761.47S11.14,773.66,35,789.34Z" transform="translate(0 -352.85)"/><g id="그룹_14" data-name="그룹 14"><g id="그룹_13" data-name="그룹 13"><g id="그룹_12" data-name="그룹 12"><rect id="사각형_34" data-name="사각형 34" class="cls-3" x="718.42" y="470.81" width="253.74" height="57.29" transform="translate(-64.57 515.55) rotate(-52.65)"/><rect id="사각형_35" data-name="사각형 35" class="cls-4" x="919.4" y="364.17" width="14.55" height="57.29" transform="translate(52.21 538.3) rotate(-52.65)"/><path id="패스_16" data-name="패스 16" class="cls-5" d="M962,393.82l-8.09,10.6-45.55-34.77,8.09-10.59a15.77,15.77,0,0,1,22.11-3h0L959,371.71a15.77,15.77,0,0,1,3,22.1Z" transform="translate(0 -352.85)"/><path id="패스_17" data-name="패스 17" class="cls-6" d="M791.09,617.69,758.4,630.2l-16.24-12.29-1.89,19.25-.08,0,5.37-54.25Z" transform="translate(0 -352.85)"/><path id="패스_18" data-name="패스 18" class="cls-7" d="M758.4,630.21l-18.14,6.95,1.89-19.24Z" transform="translate(0 -352.85)"/></g></g><path id="패스_19" data-name="패스 19" class="cls-8" d="M783,609.89l-2.1-1.62.81-1.06L935.1,408.72l2.1,1.63Z" transform="translate(0 -352.85)"/><path id="패스_20" data-name="패스 20" class="cls-8" d="M769.83,600l-2.1-1.62.81-1.05L921.91,398.8l2.1,1.62Z" transform="translate(0 -352.85)"/><path id="패스_21" data-name="패스 21" class="cls-8" d="M757.73,590.94l-2.1-1.63.81-1L909.81,389.77l2.1,1.63Z" transform="translate(0 -352.85)"/></g></svg>