<svg id="레이어_1" data-name="레이어 1" xmlns="http://www.w3.org/2000/svg" xmlns:xlink="http://www.w3.org/1999/xlink" viewBox="0 0 923.39 377.7"><defs><style>.cls-1{fill:#fff;}.cls-2{fill:url(#무제_그라디언트_3);}.cls-3{fill:#b4d2ff;}.cls-4{fill:#e8c0ec;}.cls-5{fill:#84afe4;}.cls-6{fill:#6885cc;}.cls-7{fill:#ce99cc;}</style><linearGradient id="무제_그라디언트_3" x1="-82.43" y1="35.85" x2="479.99" y2="1581.09" gradientTransform="matrix(1, 0, 0, -1, 0, 1085.85)" gradientUnits="userSpaceOnUse"><stop offset="0" stop-color="#fff" stop-opacity="0.4"/><stop offset="0.14" stop-color="#f6f4ff" stop-opacity="0.39"/><stop offset="0.34" stop-color="#ddd6ff" stop-opacity="0.35"/><stop offset="0.56" stop-color="#b7a7ff" stop-opacity="0.3"/><stop offset="0.59" stop-color="#99b5f8" stop-opacity="0.35"/><stop offset="0.66" stop-color="#62d0eb" stop-opacity="0.44"/><stop offset="0.74" stop-color="#37e5e1" stop-opacity="0.51"/><stop offset="0.81" stop-color="#18f3da" stop-opacity="0.56"/><stop offset="0.9" stop-color="#06fcd5" stop-opacity="0.59"/><stop offset="1" stop-color="#00ffd4" stop-opacity="0.6"/></linearGradient></defs><title>pen2</title><path class="cls-1" d="M35,789.34C11.77,772.7,0,761.47,0,761.47S11.14,773.66,35,789.34Z" transform="translate(0 -411.64)"/><path class="cls-2" d="M35,789.34C11.77,772.7,0,761.47,0,761.47S11.14,773.66,35,789.34Z" transform="translate(0 -411.64)"/><g id="그룹_14" data-name="그룹 14"><polygon class="cls-3" points="923.39 165.52 923.39 165.53 912.47 161.79 912.48 161.78 923.39 165.52"/><polygon class="cls-3" points="921.84 154.04 923.39 165.52 912.48 161.78 921.84 154.04"/><polygon class="cls-1" points="818.67 20.08 913.42 136.96 912.18 137.96 911.68 137.34 817.44 21.08 818.67 20.08"/><polygon class="cls-4" points="923.39 165.57 892.62 155.02 899.33 149.52 906.29 143.81 913.91 137.56 919.05 133.34 921.84 154.04 912.48 161.78 912.47 161.79 923.39 165.53 923.39 165.57"/><polygon class="cls-5" points="811.1 26.38 809.86 27.38 809.72 27.21 817.34 20.96 817.44 21.08 911.68 137.34 912.18 137.96 913.42 136.96 913.91 137.56 906.29 143.81 905.84 143.26 811.1 26.38"/><polygon class="cls-1" points="811.1 26.38 905.84 143.26 904.61 144.26 904.11 143.64 809.86 27.38 811.1 26.38"/><polygon class="cls-5" points="906.29 143.81 899.33 149.52 898.94 149.05 804.2 32.17 802.96 33.17 802.76 32.93 809.72 27.21 809.86 27.38 904.11 143.64 904.61 144.26 905.84 143.26 906.29 143.81"/><polygon class="cls-1" points="804.2 32.17 898.94 149.05 897.71 150.05 897.21 149.43 802.96 33.17 804.2 32.17"/><polygon class="cls-5" points="899.33 149.52 892.62 155.02 796.59 37.99 802.76 32.93 802.96 33.17 897.21 149.43 897.71 150.05 898.94 149.05 899.33 149.52"/><polygon class="cls-6" points="817.51 9.59 823.01 16.3 817.34 20.96 809.72 27.21 802.76 32.93 796.59 37.99 791.08 31.28 817.5 9.59 817.51 9.59"/><polygon class="cls-5" points="817.34 20.96 823.01 16.3 919.05 133.34 913.91 137.56 913.42 136.96 818.67 20.08 817.44 21.08 817.34 20.96"/><path class="cls-7" d="M812.46,415.08l5,6.15-26.42,21.69L786,436.77a9.41,9.41,0,0,1,1.31-13.25l11.87-9.74A9.41,9.41,0,0,1,812.46,415.08Z" transform="translate(0 -411.64)"/></g></svg>