<?xml version="1.0" encoding="utf-8"?>
<!-- Generator: Adobe Illustrator 23.1.0, SVG Export Plug-In . SVG Version: 6.00 Build 0)  -->
<svg version="1.1" id="Layer_1" xmlns="http://www.w3.org/2000/svg" xmlns:xlink="http://www.w3.org/1999/xlink" x="0px" y="0px"
	 viewBox="0 0 368 57.3" style="enable-background:new 0 0 368 57.3;" xml:space="preserve">
<style type="text/css">
	.st0{fill:url(#SVGID_1_);enable-background:new    ;}
	.st1{fill:url(#SVGID_2_);enable-background:new    ;}
	.st2{fill:url(#SVGID_3_);enable-background:new    ;}
	.st3{fill:url(#SVGID_4_);enable-background:new    ;}
	.st4{fill:url(#SVGID_5_);enable-background:new    ;}
	.st5{fill:url(#SVGID_6_);enable-background:new    ;}
	.st6{fill:url(#SVGID_7_);enable-background:new    ;}
	.st7{fill:url(#SVGID_8_);enable-background:new    ;}
	.st8{fill:url(#SVGID_9_);enable-background:new    ;}
	.st9{fill:url(#SVGID_10_);enable-background:new    ;}
</style>
<linearGradient id="SVGID_1_" gradientUnits="userSpaceOnUse" x1="-20.0361" y1="29.1582" x2="391.9639" y2="29.1582">
	<stop  offset="0" style="stop-color:#7C18CA"/>
	<stop  offset="1" style="stop-color:#6044E9"/>
</linearGradient>
<path class="st0" d="M30.9,35.4c0,8.3-3.1,12.3-9.7,12.3c-6.7,0-9.7-4.1-9.7-12.3V1H0v34.9c0,13,6.9,21.5,21.2,21.5
	c14.3,0,21.1-8.5,21.1-21.5V1H30.9V35.4z"/>
<linearGradient id="SVGID_2_" gradientUnits="userSpaceOnUse" x1="-20.0361" y1="36.5786" x2="391.9639" y2="36.5786">
	<stop  offset="0" style="stop-color:#7C18CA"/>
	<stop  offset="1" style="stop-color:#6044E9"/>
</linearGradient>
<path class="st1" d="M68.8,32.4l-3.9-0.7c-3.8-0.7-5.3-1.9-5.3-4.2s1.6-3.9,4.6-3.9c3.2,0,4.7,1.7,4.7,3.9v0.8h10.9v-0.7
	c0-6.9-5.5-11.8-15.5-11.8c-9.8,0-15.6,5.1-15.6,12.1c0,6.9,4.3,10.6,12.8,12.1l3.9,0.7c4,0.7,5.3,2,5.3,4.6c0,2.5-2.1,4.2-5.5,4.2
	c-3.5,0-5.6-1.7-5.6-4.3v-1H48.6v0.7c0,7.1,5.9,12.5,16.4,12.5c10.2,0,16.4-5.3,16.4-12.5S77.7,34.1,68.8,32.4z"/>
<linearGradient id="SVGID_3_" gradientUnits="userSpaceOnUse" x1="-20.0361" y1="36.5786" x2="391.9639" y2="36.5786">
	<stop  offset="0" style="stop-color:#7C18CA"/>
	<stop  offset="1" style="stop-color:#6044E9"/>
</linearGradient>
<path class="st2" d="M104.5,15.8c-12.5,0-18.4,8-18.4,20.7c0,12.9,5.9,20.8,18.4,20.8c10,0,16.3-5,17.6-13H111c-0.6,3.2-2.9,5-6.5,5
	c-4.7,0-7.2-3.4-7.5-9.8h25.8c0.1-0.8,0.1-2,0.1-3C122.9,23.8,117.1,15.8,104.5,15.8z M97.1,32.7c0.2-5.7,2.7-8.8,7.4-8.8
	c4.6,0,7.1,3.1,7.4,8.8H97.1z"/>
<linearGradient id="SVGID_4_" gradientUnits="userSpaceOnUse" x1="-20.0361" y1="36.0884" x2="391.9639" y2="36.0884">
	<stop  offset="0" style="stop-color:#7C18CA"/>
	<stop  offset="1" style="stop-color:#6044E9"/>
</linearGradient>
<path class="st3" d="M139.9,24.2v-7.4h-11v39.6h11V36.6c0-7.7,3.7-11.8,10-11.8c1.3,0,2.6,0.1,3.2,0.1l0.1-8.8
	c-0.8-0.2-1.9-0.4-3.1-0.4C144.3,15.8,141.1,18.6,139.9,24.2z"/>
<linearGradient id="SVGID_5_" gradientUnits="userSpaceOnUse" x1="-20.0361" y1="28.668" x2="391.9639" y2="28.668">
	<stop  offset="0" style="stop-color:#7C18CA"/>
	<stop  offset="1" style="stop-color:#6044E9"/>
</linearGradient>
<path class="st4" d="M200.1,9.7c6.3,0,9.8,3.9,10.2,10.2h11.5C221.1,7.7,213.2,0,200.1,0c-8.1,0-13.4,2.7-17,7.5
	c-4.1,5.5-5.3,13-5.3,21.1c0,15.5,5.1,28.7,21.1,28.7c6.7,0,11.3-3,13.2-7.5l1.3,6.5h8.3V27h-21.4v8.5h10.4
	c-0.5,7.3-3.4,12.1-10.5,12.1c-7.4,0-10.9-4.1-10.9-19c0-8.1,0.8-12.3,2.8-15.1C193.8,11,196.4,9.7,200.1,9.7z"/>
<linearGradient id="SVGID_6_" gradientUnits="userSpaceOnUse" x1="-20.0361" y1="37.0688" x2="391.9639" y2="37.0688">
	<stop  offset="0" style="stop-color:#7C18CA"/>
	<stop  offset="1" style="stop-color:#6044E9"/>
</linearGradient>
<path class="st5" d="M253,39.1c0,6.2-3.1,9.7-7.6,9.7c-3.6,0-5.7-2.3-5.7-7.2V16.8h-10.9v25.1c0,10.2,4.7,15.5,13.2,15.5
	c5.6,0,9.7-3,11.1-7.6v6.6h10.9V16.8H253V39.1z"/>
<linearGradient id="SVGID_7_" gradientUnits="userSpaceOnUse" x1="-20.0361" y1="5.7407" x2="391.9639" y2="5.7407">
	<stop  offset="0" style="stop-color:#7C18CA"/>
	<stop  offset="1" style="stop-color:#6044E9"/>
</linearGradient>
<rect x="271.2" y="1" class="st6" width="10.9" height="9.5"/>
<linearGradient id="SVGID_8_" gradientUnits="userSpaceOnUse" x1="-20.0361" y1="36.5786" x2="391.9639" y2="36.5786">
	<stop  offset="0" style="stop-color:#7C18CA"/>
	<stop  offset="1" style="stop-color:#6044E9"/>
</linearGradient>
<rect x="271.2" y="16.8" class="st7" width="10.9" height="39.6"/>
<linearGradient id="SVGID_9_" gradientUnits="userSpaceOnUse" x1="-20.0361" y1="29.1582" x2="391.9639" y2="29.1582">
	<stop  offset="0" style="stop-color:#7C18CA"/>
	<stop  offset="1" style="stop-color:#6044E9"/>
</linearGradient>
<path class="st8" d="M314.3,22.9c-1.4-4.3-5.4-7.1-10.9-7.1c-9.3,0-15.1,6.7-15.1,20.7c0,14.1,5.8,20.8,15.1,20.8
	c5.5,0,9.5-2.8,10.9-7.1v6.1h10.9V1h-10.9V22.9z M306.7,48.9c-5.5,0-7.6-4-7.6-12.3c0-8.2,2.1-12.2,7.6-12.2c5.5,0,7.6,4,7.6,12.2
	C314.3,44.9,312.3,48.9,306.7,48.9z"/>
<linearGradient id="SVGID_10_" gradientUnits="userSpaceOnUse" x1="-20.0361" y1="36.5786" x2="391.9639" y2="36.5786">
	<stop  offset="0" style="stop-color:#7C18CA"/>
	<stop  offset="1" style="stop-color:#6044E9"/>
</linearGradient>
<path class="st9" d="M349.6,15.8c-12.5,0-18.4,8-18.4,20.7c0,12.9,5.9,20.8,18.4,20.8c10,0,16.3-5,17.6-13h-11.1
	c-0.6,3.2-2.9,5-6.5,5c-4.7,0-7.2-3.4-7.5-9.8h25.8c0.1-0.8,0.1-2,0.1-3C368,23.8,362.2,15.8,349.6,15.8z M342.2,32.7
	c0.2-5.7,2.7-8.8,7.4-8.8c4.6,0,7.1,3.1,7.4,8.8H342.2z"/>
</svg>
