<?xml version="1.0" encoding="utf-8"?>
<!-- Generator: Adobe Illustrator 23.1.0, SVG Export Plug-In . SVG Version: 6.00 Build 0)  -->
<svg version="1.1" id="light" xmlns="http://www.w3.org/2000/svg" xmlns:xlink="http://www.w3.org/1999/xlink" x="0px" y="0px"
	 viewBox="0 0 49.93 82.62" style="enable-background:new 0 0 49.93 82.62;" xml:space="preserve">
<style type="text/css">
	.st0{opacity:0.8;enable-background:new    ;}
	.st1{fill:url(#SVGID_4_);}
	.st2{opacity:0.8;fill:#FFDA00;enable-background:new    ;}
	.st3{fill:url(#SVGID_5_);}
</style>
<g class="st0">
	<g>
		<g>
			<defs>
				<path id="SVGID_1_" d="M8.74,42.16c2.37,4.45,4.86,9.72,4.86,12.83h22.5c0,0,0.88-4.83,4.48-12.35
					c2.76-4.56,4.77-8.21,4.73-13.27C45.21,18.24,36.12,9.18,25,9.09C13.63,9.01,4.39,18.19,4.39,29.55
					C4.39,34.31,6.5,38.38,8.74,42.16z"/>
			</defs>
			<linearGradient id="SVGID_2_" gradientUnits="userSpaceOnUse" x1="24.8503" y1="54.99" x2="24.8503" y2="9.0895">
				<stop  offset="4.469269e-03" style="stop-color:#E5657B"/>
				<stop  offset="0.1309" style="stop-color:#EC7F5B;stop-opacity:0.9746"/>
				<stop  offset="0.2906" style="stop-color:#F39A3B;stop-opacity:0.9425"/>
				<stop  offset="0.4554" style="stop-color:#F8B021;stop-opacity:0.9094"/>
				<stop  offset="0.625" style="stop-color:#FCBF0E;stop-opacity:0.8753"/>
				<stop  offset="0.8023" style="stop-color:#FEC804;stop-opacity:0.8397"/>
				<stop  offset="1" style="stop-color:#FFCB00;stop-opacity:0.8"/>
			</linearGradient>
			<use xlink:href="#SVGID_1_"  style="overflow:visible;fill:url(#SVGID_2_);"/>
			<clipPath id="SVGID_3_">
				<use xlink:href="#SVGID_1_"  style="overflow:visible;"/>
			</clipPath>
		</g>
	</g>
</g>
<linearGradient id="SVGID_4_" gradientUnits="userSpaceOnUse" x1="12.32" y1="1064.85" x2="36.1" y2="1064.85" gradientTransform="matrix(1 0 0 1 0 -996)">
	<stop  offset="0" style="stop-color:#AB73C5"/>
	<stop  offset="0.2548" style="stop-color:#9C6EBA"/>
	<stop  offset="0.74" style="stop-color:#76619D"/>
	<stop  offset="1" style="stop-color:#5F598B"/>
</linearGradient>
<path class="st1" d="M36.1,55.07H13.6c0,5.95,4.64,10.82,10.49,11.21l-0.15,6.71v0.05c0,0,0.08,1.06-0.54,1.78
	c-0.38,0.45-0.98,0.69-1.78,0.76c-0.47,0.03-1.15-0.02-1.87-0.06c-2.17-0.15-4.88-0.33-6.39,1.07c-0.69,0.65-1.04,1.54-1.04,2.66
	v3.38h1.51v-3.37c0-0.69,0.18-1.21,0.56-1.56c1.03-0.97,3.47-0.8,5.25-0.68c0.82,0.06,1.51,0.11,2.08,0.06
	c1.22-0.08,2.17-0.51,2.84-1.3c0.94-1.12,0.91-2.54,0.89-2.84l0.15-6.67C31.46,65.89,36.1,61.03,36.1,55.07z"/>
<path class="st2" d="M44.56,16.34l3.38-1.65c0.65-0.32,1.42-0.05,1.72,0.59l0.14,0.27c0.32,0.65,0.05,1.42-0.59,1.72l-3.38,1.63
	c-0.65,0.32-1.42,0.05-1.72-0.59l-0.14-0.27C43.65,17.41,43.92,16.64,44.56,16.34z"/>
<path class="st2" d="M35.65,7.69l2.01-3.2c0.38-0.6,1.16-0.79,1.77-0.41l0.24,0.17c0.6,0.38,0.79,1.16,0.41,1.77L38.06,9.2
	c-0.37,0.6-1.16,0.78-1.76,0.4l-0.26-0.17C35.44,9.06,35.25,8.27,35.65,7.69z"/>
<path class="st2" d="M23.48,5.06l0.02-3.77c0-0.71,0.57-1.28,1.28-1.28h0.3c0.71,0,1.28,0.57,1.28,1.28l-0.02,3.77
	c0,0.71-0.57,1.28-1.28,1.28h-0.3C24.05,6.34,23.48,5.77,23.48,5.06z"/>
<path class="st2" d="M11.79,9.27L9.81,6.09c-0.38-0.6-0.2-1.39,0.41-1.77l0.26-0.17c0.6-0.38,1.39-0.2,1.77,0.41l1.98,3.2
	c0.38,0.6,0.2,1.39-0.41,1.77L13.56,9.7C12.95,10.07,12.17,9.88,11.79,9.27z"/>
<path class="st2" d="M4.1,19.06L0.72,17.4c-0.63-0.32-0.91-1.09-0.59-1.72l0.14-0.27c0.32-0.63,1.09-0.91,1.72-0.59l3.38,1.66
	C6,16.8,6.28,17.57,5.96,18.2l-0.14,0.27C5.51,19.1,4.74,19.37,4.1,19.06z"/>
<linearGradient id="SVGID_5_" gradientUnits="userSpaceOnUse" x1="24.85" y1="1039.0601" x2="24.85" y2="1044.3448" gradientTransform="matrix(1 0 0 1 0 -996)">
	<stop  offset="5.381067e-07" style="stop-color:#FFFFFF;stop-opacity:0.4"/>
	<stop  offset="1" style="stop-color:#FFFFFF;stop-opacity:0.4"/>
</linearGradient>
<path class="st3" d="M29.53,43.06c-0.45,0-0.87,0.13-1.24,0.34c-0.33-0.17-0.7-0.27-1.1-0.27c-0.45,0-0.87,0.13-1.24,0.34
	c-0.33-0.17-0.7-0.27-1.1-0.27c-0.45,0-0.87,0.13-1.24,0.34c-0.33-0.17-0.7-0.27-1.1-0.27c-0.45,0-0.87,0.13-1.24,0.34
	c-0.33-0.17-0.7-0.27-1.1-0.27c-1.37,0-2.49,1.12-2.49,2.49c0,1.37,1.12,2.49,2.49,2.49c0.45,0,0.87-0.13,1.24-0.34
	c0.33,0.17,0.7,0.27,1.1,0.27c0.45,0,0.87-0.13,1.24-0.34c0.33,0.17,0.7,0.27,1.1,0.27c0.45,0,0.87-0.13,1.24-0.34
	c0.33,0.17,0.7,0.27,1.1,0.27c0.45,0,0.87-0.13,1.24-0.34c0.33,0.17,0.7,0.27,1.1,0.27c1.37,0,2.49-1.12,2.49-2.49
	S30.91,43.06,29.53,43.06z M29.08,45.63c0,0.58-0.26,1.09-0.67,1.43c-0.46-0.34-0.76-0.89-0.76-1.51c0-0.58,0.26-1.09,0.67-1.43
	C28.78,44.47,29.08,45.01,29.08,45.63z M27.19,43.74c0.19,0,0.37,0.04,0.55,0.09c-0.26,0.27-0.45,0.61-0.57,0.97
	c-0.14-0.36-0.36-0.68-0.65-0.94C26.73,43.79,26.95,43.74,27.19,43.74z M26.07,47.14c-0.46-0.34-0.76-0.89-0.76-1.51
	c0-0.58,0.26-1.09,0.67-1.43c0.46,0.34,0.76,0.89,0.76,1.51C26.74,46.28,26.47,46.79,26.07,47.14z M24.85,43.82
	c0.19,0,0.37,0.04,0.55,0.09c-0.26,0.27-0.45,0.61-0.57,0.97c-0.14-0.36-0.36-0.68-0.65-0.94C24.39,43.87,24.61,43.82,24.85,43.82z
	 M23.73,47.21c-0.46-0.34-0.76-0.89-0.76-1.51c0-0.58,0.26-1.09,0.67-1.43c0.46,0.34,0.76,0.89,0.76,1.51
	C24.4,46.36,24.13,46.87,23.73,47.21z M22.51,43.89c0.19,0,0.37,0.04,0.55,0.09c-0.26,0.27-0.45,0.61-0.57,0.97
	c-0.14-0.36-0.36-0.68-0.65-0.94C22.05,43.94,22.27,43.89,22.51,43.89z M21.39,47.29c-0.46-0.34-0.76-0.89-0.76-1.51
	c0-0.58,0.26-1.09,0.67-1.43c0.46,0.34,0.76,0.89,0.76,1.51C22.06,46.43,21.79,46.94,21.39,47.29z M20.17,47.74
	c-1.04,0-1.89-0.85-1.89-1.89s0.85-1.89,1.89-1.89c0.19,0,0.37,0.04,0.55,0.09c-0.43,0.45-0.7,1.05-0.7,1.72
	c0,0.73,0.32,1.38,0.82,1.83C20.63,47.7,20.41,47.74,20.17,47.74z M22.51,47.67c-0.19,0-0.37-0.04-0.55-0.09
	c0.26-0.27,0.45-0.61,0.57-0.97c0.14,0.36,0.36,0.68,0.65,0.94C22.97,47.62,22.75,47.67,22.51,47.67z M24.85,47.59
	c-0.19,0-0.37-0.04-0.55-0.09c0.26-0.27,0.45-0.61,0.57-0.97c0.14,0.36,0.36,0.68,0.65,0.94C25.31,47.55,25.09,47.59,24.85,47.59z
	 M27.19,47.52c-0.19,0-0.37-0.04-0.55-0.09c0.26-0.27,0.45-0.61,0.57-0.97c0.14,0.36,0.36,0.68,0.65,0.94
	C27.65,47.47,27.43,47.52,27.19,47.52z M29.53,47.44c-0.19,0-0.37-0.04-0.55-0.09c0.43-0.45,0.7-1.05,0.7-1.72
	c0-0.73-0.32-1.38-0.82-1.83c0.21-0.08,0.43-0.13,0.67-0.13c1.04,0,1.89,0.85,1.89,1.89S30.57,47.44,29.53,47.44z"/>
</svg>
