<?xml version="1.0" encoding="utf-8"?>
<!-- Generator: Adobe Illustrator 23.1.0, SVG Export Plug-In . SVG Version: 6.00 Build 0)  -->
<svg version="1.1" id="userguide" xmlns="http://www.w3.org/2000/svg" xmlns:xlink="http://www.w3.org/1999/xlink" x="0px" y="0px"
	 viewBox="0 0 369 58" style="enable-background:new 0 0 369 58;" xml:space="preserve">
<style type="text/css">
	.st0{clip-path:url(#SVGID_2_);}
	.st1{clip-path:url(#SVGID_4_);}
	.st2{clip-path:url(#SVGID_6_);}
	.st3{clip-path:url(#SVGID_8_);}
	.st4{clip-path:url(#SVGID_10_);}
	.st5{clip-path:url(#SVGID_12_);}
	.st6{clip-path:url(#SVGID_14_);}
	.st7{clip-path:url(#SVGID_16_);}
	.st8{clip-path:url(#SVGID_18_);}
	.st9{clip-path:url(#SVGID_20_);}
	.st10{clip-path:url(#SVGID_22_);}
	.st11{clip-path:url(#SVGID_24_);}
	.st12{clip-path:url(#SVGID_26_);}
</style>
<g id="패스_64">
	<g>
		<g>
			<defs>
				<path id="SVGID_1_" d="M22,57.5c14.3,0,21.1-8.5,21.1-21.5V1.3H31.6v34.3c0,8.3-3.1,12.3-9.6,12.3c-6.6,0-9.6-4.1-9.6-12.3V1.3
					H0.8v34.8C0.8,49.1,7.6,57.5,22,57.5z M49.4,45.1c0,7.1,5.9,12.4,16.3,12.4c10.2,0,16.3-5.3,16.3-12.4s-3.7-10.8-12.6-12.4
					l-3.9-0.7c-3.8-0.7-5.2-1.9-5.2-4.2s1.6-3.8,4.6-3.8c3.1,0,4.7,1.7,4.7,3.9v0.8h10.8v-0.7c0-6.8-5.4-11.8-15.5-11.8
					c-9.8,0-15.6,5.1-15.6,12.1c0,6.8,4.3,10.6,12.8,12.1L66,41c4,0.7,5.3,2,5.3,4.5c0,2.4-2.1,4.2-5.5,4.2c-3.5,0-5.6-1.7-5.6-4.3
					v-1H49.4V45.1z M123.5,39.8c0.1-0.8,0.1-2,0.1-3c0-12.7-5.8-20.7-18.4-20.7c-12.5,0-18.4,8-18.4,20.7c0,12.9,5.9,20.8,18.4,20.8
					c10,0,16.3-5,17.5-13h-11c-0.6,3.2-2.9,5-6.5,5c-4.7,0-7.2-3.4-7.5-9.8H123.5z M105.1,24.1c4.6,0,7.1,3.1,7.3,8.8H97.7
					C97.9,27.2,100.5,24.1,105.1,24.1z M150.5,25.1c1.3,0,2.6,0.1,3.2,0.1l0.1-8.8c-1-0.2-2-0.4-3.1-0.3c-5.9,0-9.1,2.8-10.3,8.3V17
					h-11v39.5h11V36.8C140.5,29.1,144.2,25.1,150.5,25.1L150.5,25.1z M178.3,28.9c0,15.4,5.1,28.7,21.1,28.7c6.7,0,11.3-3,13.2-7.5
					l1.3,6.5h8.3V27.3h-21.3v8.5h10.3c-0.5,7.3-3.4,12.1-10.5,12.1c-7.3,0-10.9-4.1-10.9-19c0-8.1,0.8-12.2,2.8-15.1
					c1.7-2.5,4.3-3.8,8-3.8c6.3,0,9.8,3.8,10.2,10.2h11.5C221.5,8,213.7,0.3,200.6,0.3c-8.1,0-13.4,2.7-17,7.5
					C179.4,13.2,178.3,20.7,178.3,28.9L178.3,28.9z M229.2,42.1c0,10.1,4.7,15.4,13.1,15.4c5.6,0,9.6-3,11-7.6v6.6h10.9V17.1h-10.9
					v22.3c0,6.2-3.1,9.7-7.6,9.7c-3.6,0-5.7-2.3-5.7-7.2V17.1h-10.9L229.2,42.1z M271.6,10.8h10.9V1.3h-10.9V10.8z M271.6,56.5h10.9
					V17.1h-10.9V56.5z M314.6,36.8c0,8.3-2,12.3-7.5,12.3c-5.5,0-7.5-4-7.5-12.3c0-8.2,2.1-12.2,7.5-12.2
					C312.6,24.6,314.6,28.6,314.6,36.8L314.6,36.8z M314.6,23.1c-1.4-4.3-5.4-7.1-10.8-7.1c-9.3,0-15.1,6.6-15.1,20.7
					c0,14.1,5.8,20.8,15.1,20.8c5.5,0,9.4-2.8,10.8-7.1v6.1h10.8V1.3h-10.8V23.1z M368.2,39.8c0.1-0.8,0.1-2,0.1-3
					c0-12.7-5.8-20.7-18.4-20.7c-12.5,0-18.4,8-18.4,20.7c0,12.9,5.9,20.8,18.4,20.8c10,0,16.3-5,17.5-13h-11c-0.6,3.2-2.9,5-6.5,5
					c-4.7,0-7.2-3.4-7.5-9.8H368.2z M349.8,24.1c4.6,0,7.1,3.1,7.3,8.8h-14.8C342.7,27.2,345.2,24.1,349.8,24.1z"/>
			</defs>
			<clipPath id="SVGID_2_">
				<use xlink:href="#SVGID_1_"  style="overflow:visible;"/>
			</clipPath>
			<g class="st0">
				
					<image style="overflow:visible;enable-background:new    ;" width="314" height="9" xlink:href="B18E4E7B.png"  transform="matrix(1 0 0 1 44 24)">
				</image>
			</g>
		</g>
		<g>
			<defs>
				<path id="SVGID_3_" d="M22,57.5c14.3,0,21.1-8.5,21.1-21.5V1.3H31.6v34.3c0,8.3-3.1,12.3-9.6,12.3c-6.6,0-9.6-4.1-9.6-12.3V1.3
					H0.8v34.8C0.8,49.1,7.6,57.5,22,57.5z M49.4,45.1c0,7.1,5.9,12.4,16.3,12.4c10.2,0,16.3-5.3,16.3-12.4s-3.7-10.8-12.6-12.4
					l-3.9-0.7c-3.8-0.7-5.2-1.9-5.2-4.2s1.6-3.8,4.6-3.8c3.1,0,4.7,1.7,4.7,3.9v0.8h10.8v-0.7c0-6.8-5.4-11.8-15.5-11.8
					c-9.8,0-15.6,5.1-15.6,12.1c0,6.8,4.3,10.6,12.8,12.1L66,41c4,0.7,5.3,2,5.3,4.5c0,2.4-2.1,4.2-5.5,4.2c-3.5,0-5.6-1.7-5.6-4.3
					v-1H49.4V45.1z M123.5,39.8c0.1-0.8,0.1-2,0.1-3c0-12.7-5.8-20.7-18.4-20.7c-12.5,0-18.4,8-18.4,20.7c0,12.9,5.9,20.8,18.4,20.8
					c10,0,16.3-5,17.5-13h-11c-0.6,3.2-2.9,5-6.5,5c-4.7,0-7.2-3.4-7.5-9.8H123.5z M105.1,24.1c4.6,0,7.1,3.1,7.3,8.8H97.7
					C97.9,27.2,100.5,24.1,105.1,24.1z M150.5,25.1c1.3,0,2.6,0.1,3.2,0.1l0.1-8.8c-1-0.2-2-0.4-3.1-0.3c-5.9,0-9.1,2.8-10.3,8.3V17
					h-11v39.5h11V36.8C140.5,29.1,144.2,25.1,150.5,25.1L150.5,25.1z M178.3,28.9c0,15.4,5.1,28.7,21.1,28.7c6.7,0,11.3-3,13.2-7.5
					l1.3,6.5h8.3V27.3h-21.3v8.5h10.3c-0.5,7.3-3.4,12.1-10.5,12.1c-7.3,0-10.9-4.1-10.9-19c0-8.1,0.8-12.2,2.8-15.1
					c1.7-2.5,4.3-3.8,8-3.8c6.3,0,9.8,3.8,10.2,10.2h11.5C221.5,8,213.7,0.3,200.6,0.3c-8.1,0-13.4,2.7-17,7.5
					C179.4,13.2,178.3,20.7,178.3,28.9L178.3,28.9z M229.2,42.1c0,10.1,4.7,15.4,13.1,15.4c5.6,0,9.6-3,11-7.6v6.6h10.9V17.1h-10.9
					v22.3c0,6.2-3.1,9.7-7.6,9.7c-3.6,0-5.7-2.3-5.7-7.2V17.1h-10.9L229.2,42.1z M271.6,10.8h10.9V1.3h-10.9V10.8z M271.6,56.5h10.9
					V17.1h-10.9V56.5z M314.6,36.8c0,8.3-2,12.3-7.5,12.3c-5.5,0-7.5-4-7.5-12.3c0-8.2,2.1-12.2,7.5-12.2
					C312.6,24.6,314.6,28.6,314.6,36.8L314.6,36.8z M314.6,23.1c-1.4-4.3-5.4-7.1-10.8-7.1c-9.3,0-15.1,6.6-15.1,20.7
					c0,14.1,5.8,20.8,15.1,20.8c5.5,0,9.4-2.8,10.8-7.1v6.1h10.8V1.3h-10.8V23.1z M368.2,39.8c0.1-0.8,0.1-2,0.1-3
					c0-12.7-5.8-20.7-18.4-20.7c-12.5,0-18.4,8-18.4,20.7c0,12.9,5.9,20.8,18.4,20.8c10,0,16.3-5,17.5-13h-11c-0.6,3.2-2.9,5-6.5,5
					c-4.7,0-7.2-3.4-7.5-9.8H368.2z M349.8,24.1c4.6,0,7.1,3.1,7.3,8.8h-14.8C342.7,27.2,345.2,24.1,349.8,24.1z"/>
			</defs>
			<clipPath id="SVGID_4_">
				<use xlink:href="#SVGID_3_"  style="overflow:visible;"/>
			</clipPath>
			<g class="st1">
				
					<image style="overflow:visible;enable-background:new    ;" width="325" height="42" xlink:href="B18E4E79.png"  transform="matrix(1 0 0 1 44 16)">
				</image>
			</g>
		</g>
		<g>
			<defs>
				<path id="SVGID_5_" d="M22,57.5c14.3,0,21.1-8.5,21.1-21.5V1.3H31.6v34.3c0,8.3-3.1,12.3-9.6,12.3c-6.6,0-9.6-4.1-9.6-12.3V1.3
					H0.8v34.8C0.8,49.1,7.6,57.5,22,57.5z M49.4,45.1c0,7.1,5.9,12.4,16.3,12.4c10.2,0,16.3-5.3,16.3-12.4s-3.7-10.8-12.6-12.4
					l-3.9-0.7c-3.8-0.7-5.2-1.9-5.2-4.2s1.6-3.8,4.6-3.8c3.1,0,4.7,1.7,4.7,3.9v0.8h10.8v-0.7c0-6.8-5.4-11.8-15.5-11.8
					c-9.8,0-15.6,5.1-15.6,12.1c0,6.8,4.3,10.6,12.8,12.1L66,41c4,0.7,5.3,2,5.3,4.5c0,2.4-2.1,4.2-5.5,4.2c-3.5,0-5.6-1.7-5.6-4.3
					v-1H49.4V45.1z M123.5,39.8c0.1-0.8,0.1-2,0.1-3c0-12.7-5.8-20.7-18.4-20.7c-12.5,0-18.4,8-18.4,20.7c0,12.9,5.9,20.8,18.4,20.8
					c10,0,16.3-5,17.5-13h-11c-0.6,3.2-2.9,5-6.5,5c-4.7,0-7.2-3.4-7.5-9.8H123.5z M105.1,24.1c4.6,0,7.1,3.1,7.3,8.8H97.7
					C97.9,27.2,100.5,24.1,105.1,24.1z M150.5,25.1c1.3,0,2.6,0.1,3.2,0.1l0.1-8.8c-1-0.2-2-0.4-3.1-0.3c-5.9,0-9.1,2.8-10.3,8.3V17
					h-11v39.5h11V36.8C140.5,29.1,144.2,25.1,150.5,25.1L150.5,25.1z M178.3,28.9c0,15.4,5.1,28.7,21.1,28.7c6.7,0,11.3-3,13.2-7.5
					l1.3,6.5h8.3V27.3h-21.3v8.5h10.3c-0.5,7.3-3.4,12.1-10.5,12.1c-7.3,0-10.9-4.1-10.9-19c0-8.1,0.8-12.2,2.8-15.1
					c1.7-2.5,4.3-3.8,8-3.8c6.3,0,9.8,3.8,10.2,10.2h11.5C221.5,8,213.7,0.3,200.6,0.3c-8.1,0-13.4,2.7-17,7.5
					C179.4,13.2,178.3,20.7,178.3,28.9L178.3,28.9z M229.2,42.1c0,10.1,4.7,15.4,13.1,15.4c5.6,0,9.6-3,11-7.6v6.6h10.9V17.1h-10.9
					v22.3c0,6.2-3.1,9.7-7.6,9.7c-3.6,0-5.7-2.3-5.7-7.2V17.1h-10.9L229.2,42.1z M271.6,10.8h10.9V1.3h-10.9V10.8z M271.6,56.5h10.9
					V17.1h-10.9V56.5z M314.6,36.8c0,8.3-2,12.3-7.5,12.3c-5.5,0-7.5-4-7.5-12.3c0-8.2,2.1-12.2,7.5-12.2
					C312.6,24.6,314.6,28.6,314.6,36.8L314.6,36.8z M314.6,23.1c-1.4-4.3-5.4-7.1-10.8-7.1c-9.3,0-15.1,6.6-15.1,20.7
					c0,14.1,5.8,20.8,15.1,20.8c5.5,0,9.4-2.8,10.8-7.1v6.1h10.8V1.3h-10.8V23.1z M368.2,39.8c0.1-0.8,0.1-2,0.1-3
					c0-12.7-5.8-20.7-18.4-20.7c-12.5,0-18.4,8-18.4,20.7c0,12.9,5.9,20.8,18.4,20.8c10,0,16.3-5,17.5-13h-11c-0.6,3.2-2.9,5-6.5,5
					c-4.7,0-7.2-3.4-7.5-9.8H368.2z M349.8,24.1c4.6,0,7.1,3.1,7.3,8.8h-14.8C342.7,27.2,345.2,24.1,349.8,24.1z"/>
			</defs>
			<clipPath id="SVGID_6_">
				<use xlink:href="#SVGID_5_"  style="overflow:visible;"/>
			</clipPath>
			<g class="st2">
				
					<image style="overflow:visible;enable-background:new    ;" width="282" height="57" xlink:href="B18E4E7F.png"  transform="matrix(1 0 0 1 44 1)">
				</image>
			</g>
		</g>
		<g>
			<defs>
				<path id="SVGID_7_" d="M22,57.5c14.3,0,21.1-8.5,21.1-21.5V1.3H31.6v34.3c0,8.3-3.1,12.3-9.6,12.3c-6.6,0-9.6-4.1-9.6-12.3V1.3
					H0.8v34.8C0.8,49.1,7.6,57.5,22,57.5z M49.4,45.1c0,7.1,5.9,12.4,16.3,12.4c10.2,0,16.3-5.3,16.3-12.4s-3.7-10.8-12.6-12.4
					l-3.9-0.7c-3.8-0.7-5.2-1.9-5.2-4.2s1.6-3.8,4.6-3.8c3.1,0,4.7,1.7,4.7,3.9v0.8h10.8v-0.7c0-6.8-5.4-11.8-15.5-11.8
					c-9.8,0-15.6,5.1-15.6,12.1c0,6.8,4.3,10.6,12.8,12.1L66,41c4,0.7,5.3,2,5.3,4.5c0,2.4-2.1,4.2-5.5,4.2c-3.5,0-5.6-1.7-5.6-4.3
					v-1H49.4V45.1z M123.5,39.8c0.1-0.8,0.1-2,0.1-3c0-12.7-5.8-20.7-18.4-20.7c-12.5,0-18.4,8-18.4,20.7c0,12.9,5.9,20.8,18.4,20.8
					c10,0,16.3-5,17.5-13h-11c-0.6,3.2-2.9,5-6.5,5c-4.7,0-7.2-3.4-7.5-9.8H123.5z M105.1,24.1c4.6,0,7.1,3.1,7.3,8.8H97.7
					C97.9,27.2,100.5,24.1,105.1,24.1z M150.5,25.1c1.3,0,2.6,0.1,3.2,0.1l0.1-8.8c-1-0.2-2-0.4-3.1-0.3c-5.9,0-9.1,2.8-10.3,8.3V17
					h-11v39.5h11V36.8C140.5,29.1,144.2,25.1,150.5,25.1L150.5,25.1z M178.3,28.9c0,15.4,5.1,28.7,21.1,28.7c6.7,0,11.3-3,13.2-7.5
					l1.3,6.5h8.3V27.3h-21.3v8.5h10.3c-0.5,7.3-3.4,12.1-10.5,12.1c-7.3,0-10.9-4.1-10.9-19c0-8.1,0.8-12.2,2.8-15.1
					c1.7-2.5,4.3-3.8,8-3.8c6.3,0,9.8,3.8,10.2,10.2h11.5C221.5,8,213.7,0.3,200.6,0.3c-8.1,0-13.4,2.7-17,7.5
					C179.4,13.2,178.3,20.7,178.3,28.9L178.3,28.9z M229.2,42.1c0,10.1,4.7,15.4,13.1,15.4c5.6,0,9.6-3,11-7.6v6.6h10.9V17.1h-10.9
					v22.3c0,6.2-3.1,9.7-7.6,9.7c-3.6,0-5.7-2.3-5.7-7.2V17.1h-10.9L229.2,42.1z M271.6,10.8h10.9V1.3h-10.9V10.8z M271.6,56.5h10.9
					V17.1h-10.9V56.5z M314.6,36.8c0,8.3-2,12.3-7.5,12.3c-5.5,0-7.5-4-7.5-12.3c0-8.2,2.1-12.2,7.5-12.2
					C312.6,24.6,314.6,28.6,314.6,36.8L314.6,36.8z M314.6,23.1c-1.4-4.3-5.4-7.1-10.8-7.1c-9.3,0-15.1,6.6-15.1,20.7
					c0,14.1,5.8,20.8,15.1,20.8c5.5,0,9.4-2.8,10.8-7.1v6.1h10.8V1.3h-10.8V23.1z M368.2,39.8c0.1-0.8,0.1-2,0.1-3
					c0-12.7-5.8-20.7-18.4-20.7c-12.5,0-18.4,8-18.4,20.7c0,12.9,5.9,20.8,18.4,20.8c10,0,16.3-5,17.5-13h-11c-0.6,3.2-2.9,5-6.5,5
					c-4.7,0-7.2-3.4-7.5-9.8H368.2z M349.8,24.1c4.6,0,7.1,3.1,7.3,8.8h-14.8C342.7,27.2,345.2,24.1,349.8,24.1z"/>
			</defs>
			<clipPath id="SVGID_8_">
				<use xlink:href="#SVGID_7_"  style="overflow:visible;"/>
			</clipPath>
			<g class="st3">
				
					<image style="overflow:visible;enable-background:new    ;" width="271" height="26" xlink:href="B18E4E79.png"  transform="matrix(1 0 0 1 44 24)">
				</image>
			</g>
		</g>
		<g>
			<defs>
				<path id="SVGID_9_" d="M22,57.5c14.3,0,21.1-8.5,21.1-21.5V1.3H31.6v34.3c0,8.3-3.1,12.3-9.6,12.3c-6.6,0-9.6-4.1-9.6-12.3V1.3
					H0.8v34.8C0.8,49.1,7.6,57.5,22,57.5z M49.4,45.1c0,7.1,5.9,12.4,16.3,12.4c10.2,0,16.3-5.3,16.3-12.4s-3.7-10.8-12.6-12.4
					l-3.9-0.7c-3.8-0.7-5.2-1.9-5.2-4.2s1.6-3.8,4.6-3.8c3.1,0,4.7,1.7,4.7,3.9v0.8h10.8v-0.7c0-6.8-5.4-11.8-15.5-11.8
					c-9.8,0-15.6,5.1-15.6,12.1c0,6.8,4.3,10.6,12.8,12.1L66,41c4,0.7,5.3,2,5.3,4.5c0,2.4-2.1,4.2-5.5,4.2c-3.5,0-5.6-1.7-5.6-4.3
					v-1H49.4V45.1z M123.5,39.8c0.1-0.8,0.1-2,0.1-3c0-12.7-5.8-20.7-18.4-20.7c-12.5,0-18.4,8-18.4,20.7c0,12.9,5.9,20.8,18.4,20.8
					c10,0,16.3-5,17.5-13h-11c-0.6,3.2-2.9,5-6.5,5c-4.7,0-7.2-3.4-7.5-9.8H123.5z M105.1,24.1c4.6,0,7.1,3.1,7.3,8.8H97.7
					C97.9,27.2,100.5,24.1,105.1,24.1z M150.5,25.1c1.3,0,2.6,0.1,3.2,0.1l0.1-8.8c-1-0.2-2-0.4-3.1-0.3c-5.9,0-9.1,2.8-10.3,8.3V17
					h-11v39.5h11V36.8C140.5,29.1,144.2,25.1,150.5,25.1L150.5,25.1z M178.3,28.9c0,15.4,5.1,28.7,21.1,28.7c6.7,0,11.3-3,13.2-7.5
					l1.3,6.5h8.3V27.3h-21.3v8.5h10.3c-0.5,7.3-3.4,12.1-10.5,12.1c-7.3,0-10.9-4.1-10.9-19c0-8.1,0.8-12.2,2.8-15.1
					c1.7-2.5,4.3-3.8,8-3.8c6.3,0,9.8,3.8,10.2,10.2h11.5C221.5,8,213.7,0.3,200.6,0.3c-8.1,0-13.4,2.7-17,7.5
					C179.4,13.2,178.3,20.7,178.3,28.9L178.3,28.9z M229.2,42.1c0,10.1,4.7,15.4,13.1,15.4c5.6,0,9.6-3,11-7.6v6.6h10.9V17.1h-10.9
					v22.3c0,6.2-3.1,9.7-7.6,9.7c-3.6,0-5.7-2.3-5.7-7.2V17.1h-10.9L229.2,42.1z M271.6,10.8h10.9V1.3h-10.9V10.8z M271.6,56.5h10.9
					V17.1h-10.9V56.5z M314.6,36.8c0,8.3-2,12.3-7.5,12.3c-5.5,0-7.5-4-7.5-12.3c0-8.2,2.1-12.2,7.5-12.2
					C312.6,24.6,314.6,28.6,314.6,36.8L314.6,36.8z M314.6,23.1c-1.4-4.3-5.4-7.1-10.8-7.1c-9.3,0-15.1,6.6-15.1,20.7
					c0,14.1,5.8,20.8,15.1,20.8c5.5,0,9.4-2.8,10.8-7.1v6.1h10.8V1.3h-10.8V23.1z M368.2,39.8c0.1-0.8,0.1-2,0.1-3
					c0-12.7-5.8-20.7-18.4-20.7c-12.5,0-18.4,8-18.4,20.7c0,12.9,5.9,20.8,18.4,20.8c10,0,16.3-5,17.5-13h-11c-0.6,3.2-2.9,5-6.5,5
					c-4.7,0-7.2-3.4-7.5-9.8H368.2z M349.8,24.1c4.6,0,7.1,3.1,7.3,8.8h-14.8C342.7,27.2,345.2,24.1,349.8,24.1z"/>
			</defs>
			<clipPath id="SVGID_10_">
				<use xlink:href="#SVGID_9_"  style="overflow:visible;"/>
			</clipPath>
			<g class="st4">
				
					<image style="overflow:visible;enable-background:new    ;" width="239" height="40" xlink:href="B18E4E7B.png"  transform="matrix(1 0 0 1 44 17)">
				</image>
			</g>
		</g>
		<g>
			<defs>
				<path id="SVGID_11_" d="M22,57.5c14.3,0,21.1-8.5,21.1-21.5V1.3H31.6v34.3c0,8.3-3.1,12.3-9.6,12.3c-6.6,0-9.6-4.1-9.6-12.3V1.3
					H0.8v34.8C0.8,49.1,7.6,57.5,22,57.5z M49.4,45.1c0,7.1,5.9,12.4,16.3,12.4c10.2,0,16.3-5.3,16.3-12.4s-3.7-10.8-12.6-12.4
					l-3.9-0.7c-3.8-0.7-5.2-1.9-5.2-4.2s1.6-3.8,4.6-3.8c3.1,0,4.7,1.7,4.7,3.9v0.8h10.8v-0.7c0-6.8-5.4-11.8-15.5-11.8
					c-9.8,0-15.6,5.1-15.6,12.1c0,6.8,4.3,10.6,12.8,12.1L66,41c4,0.7,5.3,2,5.3,4.5c0,2.4-2.1,4.2-5.5,4.2c-3.5,0-5.6-1.7-5.6-4.3
					v-1H49.4V45.1z M123.5,39.8c0.1-0.8,0.1-2,0.1-3c0-12.7-5.8-20.7-18.4-20.7c-12.5,0-18.4,8-18.4,20.7c0,12.9,5.9,20.8,18.4,20.8
					c10,0,16.3-5,17.5-13h-11c-0.6,3.2-2.9,5-6.5,5c-4.7,0-7.2-3.4-7.5-9.8H123.5z M105.1,24.1c4.6,0,7.1,3.1,7.3,8.8H97.7
					C97.9,27.2,100.5,24.1,105.1,24.1z M150.5,25.1c1.3,0,2.6,0.1,3.2,0.1l0.1-8.8c-1-0.2-2-0.4-3.1-0.3c-5.9,0-9.1,2.8-10.3,8.3V17
					h-11v39.5h11V36.8C140.5,29.1,144.2,25.1,150.5,25.1L150.5,25.1z M178.3,28.9c0,15.4,5.1,28.7,21.1,28.7c6.7,0,11.3-3,13.2-7.5
					l1.3,6.5h8.3V27.3h-21.3v8.5h10.3c-0.5,7.3-3.4,12.1-10.5,12.1c-7.3,0-10.9-4.1-10.9-19c0-8.1,0.8-12.2,2.8-15.1
					c1.7-2.5,4.3-3.8,8-3.8c6.3,0,9.8,3.8,10.2,10.2h11.5C221.5,8,213.7,0.3,200.6,0.3c-8.1,0-13.4,2.7-17,7.5
					C179.4,13.2,178.3,20.7,178.3,28.9L178.3,28.9z M229.2,42.1c0,10.1,4.7,15.4,13.1,15.4c5.6,0,9.6-3,11-7.6v6.6h10.9V17.1h-10.9
					v22.3c0,6.2-3.1,9.7-7.6,9.7c-3.6,0-5.7-2.3-5.7-7.2V17.1h-10.9L229.2,42.1z M271.6,10.8h10.9V1.3h-10.9V10.8z M271.6,56.5h10.9
					V17.1h-10.9V56.5z M314.6,36.8c0,8.3-2,12.3-7.5,12.3c-5.5,0-7.5-4-7.5-12.3c0-8.2,2.1-12.2,7.5-12.2
					C312.6,24.6,314.6,28.6,314.6,36.8L314.6,36.8z M314.6,23.1c-1.4-4.3-5.4-7.1-10.8-7.1c-9.3,0-15.1,6.6-15.1,20.7
					c0,14.1,5.8,20.8,15.1,20.8c5.5,0,9.4-2.8,10.8-7.1v6.1h10.8V1.3h-10.8V23.1z M368.2,39.8c0.1-0.8,0.1-2,0.1-3
					c0-12.7-5.8-20.7-18.4-20.7c-12.5,0-18.4,8-18.4,20.7c0,12.9,5.9,20.8,18.4,20.8c10,0,16.3-5,17.5-13h-11c-0.6,3.2-2.9,5-6.5,5
					c-4.7,0-7.2-3.4-7.5-9.8H368.2z M349.8,24.1c4.6,0,7.1,3.1,7.3,8.8h-14.8C342.7,27.2,345.2,24.1,349.8,24.1z"/>
			</defs>
			<clipPath id="SVGID_12_">
				<use xlink:href="#SVGID_11_"  style="overflow:visible;"/>
			</clipPath>
			<g class="st5">
				
					<image style="overflow:visible;enable-background:new    ;" width="239" height="10" xlink:href="B18E4E79.png"  transform="matrix(1 0 0 1 44 1)">
				</image>
			</g>
		</g>
		<g>
			<defs>
				<path id="SVGID_13_" d="M22,57.5c14.3,0,21.1-8.5,21.1-21.5V1.3H31.6v34.3c0,8.3-3.1,12.3-9.6,12.3c-6.6,0-9.6-4.1-9.6-12.3V1.3
					H0.8v34.8C0.8,49.1,7.6,57.5,22,57.5z M49.4,45.1c0,7.1,5.9,12.4,16.3,12.4c10.2,0,16.3-5.3,16.3-12.4s-3.7-10.8-12.6-12.4
					l-3.9-0.7c-3.8-0.7-5.2-1.9-5.2-4.2s1.6-3.8,4.6-3.8c3.1,0,4.7,1.7,4.7,3.9v0.8h10.8v-0.7c0-6.8-5.4-11.8-15.5-11.8
					c-9.8,0-15.6,5.1-15.6,12.1c0,6.8,4.3,10.6,12.8,12.1L66,41c4,0.7,5.3,2,5.3,4.5c0,2.4-2.1,4.2-5.5,4.2c-3.5,0-5.6-1.7-5.6-4.3
					v-1H49.4V45.1z M123.5,39.8c0.1-0.8,0.1-2,0.1-3c0-12.7-5.8-20.7-18.4-20.7c-12.5,0-18.4,8-18.4,20.7c0,12.9,5.9,20.8,18.4,20.8
					c10,0,16.3-5,17.5-13h-11c-0.6,3.2-2.9,5-6.5,5c-4.7,0-7.2-3.4-7.5-9.8H123.5z M105.1,24.1c4.6,0,7.1,3.1,7.3,8.8H97.7
					C97.9,27.2,100.5,24.1,105.1,24.1z M150.5,25.1c1.3,0,2.6,0.1,3.2,0.1l0.1-8.8c-1-0.2-2-0.4-3.1-0.3c-5.9,0-9.1,2.8-10.3,8.3V17
					h-11v39.5h11V36.8C140.5,29.1,144.2,25.1,150.5,25.1L150.5,25.1z M178.3,28.9c0,15.4,5.1,28.7,21.1,28.7c6.7,0,11.3-3,13.2-7.5
					l1.3,6.5h8.3V27.3h-21.3v8.5h10.3c-0.5,7.3-3.4,12.1-10.5,12.1c-7.3,0-10.9-4.1-10.9-19c0-8.1,0.8-12.2,2.8-15.1
					c1.7-2.5,4.3-3.8,8-3.8c6.3,0,9.8,3.8,10.2,10.2h11.5C221.5,8,213.7,0.3,200.6,0.3c-8.1,0-13.4,2.7-17,7.5
					C179.4,13.2,178.3,20.7,178.3,28.9L178.3,28.9z M229.2,42.1c0,10.1,4.7,15.4,13.1,15.4c5.6,0,9.6-3,11-7.6v6.6h10.9V17.1h-10.9
					v22.3c0,6.2-3.1,9.7-7.6,9.7c-3.6,0-5.7-2.3-5.7-7.2V17.1h-10.9L229.2,42.1z M271.6,10.8h10.9V1.3h-10.9V10.8z M271.6,56.5h10.9
					V17.1h-10.9V56.5z M314.6,36.8c0,8.3-2,12.3-7.5,12.3c-5.5,0-7.5-4-7.5-12.3c0-8.2,2.1-12.2,7.5-12.2
					C312.6,24.6,314.6,28.6,314.6,36.8L314.6,36.8z M314.6,23.1c-1.4-4.3-5.4-7.1-10.8-7.1c-9.3,0-15.1,6.6-15.1,20.7
					c0,14.1,5.8,20.8,15.1,20.8c5.5,0,9.4-2.8,10.8-7.1v6.1h10.8V1.3h-10.8V23.1z M368.2,39.8c0.1-0.8,0.1-2,0.1-3
					c0-12.7-5.8-20.7-18.4-20.7c-12.5,0-18.4,8-18.4,20.7c0,12.9,5.9,20.8,18.4,20.8c10,0,16.3-5,17.5-13h-11c-0.6,3.2-2.9,5-6.5,5
					c-4.7,0-7.2-3.4-7.5-9.8H368.2z M349.8,24.1c4.6,0,7.1,3.1,7.3,8.8h-14.8C342.7,27.2,345.2,24.1,349.8,24.1z"/>
			</defs>
			<clipPath id="SVGID_14_">
				<use xlink:href="#SVGID_13_"  style="overflow:visible;"/>
			</clipPath>
			<g class="st6">
				
					<image style="overflow:visible;enable-background:new    ;" width="230" height="41" xlink:href="B18E4E87.png"  transform="matrix(1 0 0 1 44 17)">
				</image>
			</g>
		</g>
		<g>
			<defs>
				<path id="SVGID_15_" d="M22,57.5c14.3,0,21.1-8.5,21.1-21.5V1.3H31.6v34.3c0,8.3-3.1,12.3-9.6,12.3c-6.6,0-9.6-4.1-9.6-12.3V1.3
					H0.8v34.8C0.8,49.1,7.6,57.5,22,57.5z M49.4,45.1c0,7.1,5.9,12.4,16.3,12.4c10.2,0,16.3-5.3,16.3-12.4s-3.7-10.8-12.6-12.4
					l-3.9-0.7c-3.8-0.7-5.2-1.9-5.2-4.2s1.6-3.8,4.6-3.8c3.1,0,4.7,1.7,4.7,3.9v0.8h10.8v-0.7c0-6.8-5.4-11.8-15.5-11.8
					c-9.8,0-15.6,5.1-15.6,12.1c0,6.8,4.3,10.6,12.8,12.1L66,41c4,0.7,5.3,2,5.3,4.5c0,2.4-2.1,4.2-5.5,4.2c-3.5,0-5.6-1.7-5.6-4.3
					v-1H49.4V45.1z M123.5,39.8c0.1-0.8,0.1-2,0.1-3c0-12.7-5.8-20.7-18.4-20.7c-12.5,0-18.4,8-18.4,20.7c0,12.9,5.9,20.8,18.4,20.8
					c10,0,16.3-5,17.5-13h-11c-0.6,3.2-2.9,5-6.5,5c-4.7,0-7.2-3.4-7.5-9.8H123.5z M105.1,24.1c4.6,0,7.1,3.1,7.3,8.8H97.7
					C97.9,27.2,100.5,24.1,105.1,24.1z M150.5,25.1c1.3,0,2.6,0.1,3.2,0.1l0.1-8.8c-1-0.2-2-0.4-3.1-0.3c-5.9,0-9.1,2.8-10.3,8.3V17
					h-11v39.5h11V36.8C140.5,29.1,144.2,25.1,150.5,25.1L150.5,25.1z M178.3,28.9c0,15.4,5.1,28.7,21.1,28.7c6.7,0,11.3-3,13.2-7.5
					l1.3,6.5h8.3V27.3h-21.3v8.5h10.3c-0.5,7.3-3.4,12.1-10.5,12.1c-7.3,0-10.9-4.1-10.9-19c0-8.1,0.8-12.2,2.8-15.1
					c1.7-2.5,4.3-3.8,8-3.8c6.3,0,9.8,3.8,10.2,10.2h11.5C221.5,8,213.7,0.3,200.6,0.3c-8.1,0-13.4,2.7-17,7.5
					C179.4,13.2,178.3,20.7,178.3,28.9L178.3,28.9z M229.2,42.1c0,10.1,4.7,15.4,13.1,15.4c5.6,0,9.6-3,11-7.6v6.6h10.9V17.1h-10.9
					v22.3c0,6.2-3.1,9.7-7.6,9.7c-3.6,0-5.7-2.3-5.7-7.2V17.1h-10.9L229.2,42.1z M271.6,10.8h10.9V1.3h-10.9V10.8z M271.6,56.5h10.9
					V17.1h-10.9V56.5z M314.6,36.8c0,8.3-2,12.3-7.5,12.3c-5.5,0-7.5-4-7.5-12.3c0-8.2,2.1-12.2,7.5-12.2
					C312.6,24.6,314.6,28.6,314.6,36.8L314.6,36.8z M314.6,23.1c-1.4-4.3-5.4-7.1-10.8-7.1c-9.3,0-15.1,6.6-15.1,20.7
					c0,14.1,5.8,20.8,15.1,20.8c5.5,0,9.4-2.8,10.8-7.1v6.1h10.8V1.3h-10.8V23.1z M368.2,39.8c0.1-0.8,0.1-2,0.1-3
					c0-12.7-5.8-20.7-18.4-20.7c-12.5,0-18.4,8-18.4,20.7c0,12.9,5.9,20.8,18.4,20.8c10,0,16.3-5,17.5-13h-11c-0.6,3.2-2.9,5-6.5,5
					c-4.7,0-7.2-3.4-7.5-9.8H368.2z M349.8,24.1c4.6,0,7.1,3.1,7.3,8.8h-14.8C342.7,27.2,345.2,24.1,349.8,24.1z"/>
			</defs>
			<clipPath id="SVGID_16_">
				<use xlink:href="#SVGID_15_"  style="overflow:visible;"/>
			</clipPath>
			<g class="st7">
				
					<image style="overflow:visible;enable-background:new    ;" width="230" height="58" xlink:href="B18E4E89.png"  transform="matrix(1 0 0 1 44 0)">
				</image>
			</g>
		</g>
		<g>
			<defs>
				<path id="SVGID_17_" d="M22,57.5c14.3,0,21.1-8.5,21.1-21.5V1.3H31.6v34.3c0,8.3-3.1,12.3-9.6,12.3c-6.6,0-9.6-4.1-9.6-12.3V1.3
					H0.8v34.8C0.8,49.1,7.6,57.5,22,57.5z M49.4,45.1c0,7.1,5.9,12.4,16.3,12.4c10.2,0,16.3-5.3,16.3-12.4s-3.7-10.8-12.6-12.4
					l-3.9-0.7c-3.8-0.7-5.2-1.9-5.2-4.2s1.6-3.8,4.6-3.8c3.1,0,4.7,1.7,4.7,3.9v0.8h10.8v-0.7c0-6.8-5.4-11.8-15.5-11.8
					c-9.8,0-15.6,5.1-15.6,12.1c0,6.8,4.3,10.6,12.8,12.1L66,41c4,0.7,5.3,2,5.3,4.5c0,2.4-2.1,4.2-5.5,4.2c-3.5,0-5.6-1.7-5.6-4.3
					v-1H49.4V45.1z M123.5,39.8c0.1-0.8,0.1-2,0.1-3c0-12.7-5.8-20.7-18.4-20.7c-12.5,0-18.4,8-18.4,20.7c0,12.9,5.9,20.8,18.4,20.8
					c10,0,16.3-5,17.5-13h-11c-0.6,3.2-2.9,5-6.5,5c-4.7,0-7.2-3.4-7.5-9.8H123.5z M105.1,24.1c4.6,0,7.1,3.1,7.3,8.8H97.7
					C97.9,27.2,100.5,24.1,105.1,24.1z M150.5,25.1c1.3,0,2.6,0.1,3.2,0.1l0.1-8.8c-1-0.2-2-0.4-3.1-0.3c-5.9,0-9.1,2.8-10.3,8.3V17
					h-11v39.5h11V36.8C140.5,29.1,144.2,25.1,150.5,25.1L150.5,25.1z M178.3,28.9c0,15.4,5.1,28.7,21.1,28.7c6.7,0,11.3-3,13.2-7.5
					l1.3,6.5h8.3V27.3h-21.3v8.5h10.3c-0.5,7.3-3.4,12.1-10.5,12.1c-7.3,0-10.9-4.1-10.9-19c0-8.1,0.8-12.2,2.8-15.1
					c1.7-2.5,4.3-3.8,8-3.8c6.3,0,9.8,3.8,10.2,10.2h11.5C221.5,8,213.7,0.3,200.6,0.3c-8.1,0-13.4,2.7-17,7.5
					C179.4,13.2,178.3,20.7,178.3,28.9L178.3,28.9z M229.2,42.1c0,10.1,4.7,15.4,13.1,15.4c5.6,0,9.6-3,11-7.6v6.6h10.9V17.1h-10.9
					v22.3c0,6.2-3.1,9.7-7.6,9.7c-3.6,0-5.7-2.3-5.7-7.2V17.1h-10.9L229.2,42.1z M271.6,10.8h10.9V1.3h-10.9V10.8z M271.6,56.5h10.9
					V17.1h-10.9V56.5z M314.6,36.8c0,8.3-2,12.3-7.5,12.3c-5.5,0-7.5-4-7.5-12.3c0-8.2,2.1-12.2,7.5-12.2
					C312.6,24.6,314.6,28.6,314.6,36.8L314.6,36.8z M314.6,23.1c-1.4-4.3-5.4-7.1-10.8-7.1c-9.3,0-15.1,6.6-15.1,20.7
					c0,14.1,5.8,20.8,15.1,20.8c5.5,0,9.4-2.8,10.8-7.1v6.1h10.8V1.3h-10.8V23.1z M368.2,39.8c0.1-0.8,0.1-2,0.1-3
					c0-12.7-5.8-20.7-18.4-20.7c-12.5,0-18.4,8-18.4,20.7c0,12.9,5.9,20.8,18.4,20.8c10,0,16.3-5,17.5-13h-11c-0.6,3.2-2.9,5-6.5,5
					c-4.7,0-7.2-3.4-7.5-9.8H368.2z M349.8,24.1c4.6,0,7.1,3.1,7.3,8.8h-14.8C342.7,27.2,345.2,24.1,349.8,24.1z"/>
			</defs>
			<clipPath id="SVGID_18_">
				<use xlink:href="#SVGID_17_"  style="overflow:visible;"/>
			</clipPath>
			<g class="st8">
				
					<image style="overflow:visible;enable-background:new    ;" width="230" height="41" xlink:href="B18E4E8B.png"  transform="matrix(1 0 0 1 44 16)">
				</image>
			</g>
		</g>
		<g>
			<defs>
				<path id="SVGID_19_" d="M22,57.5c14.3,0,21.1-8.5,21.1-21.5V1.3H31.6v34.3c0,8.3-3.1,12.3-9.6,12.3c-6.6,0-9.6-4.1-9.6-12.3V1.3
					H0.8v34.8C0.8,49.1,7.6,57.5,22,57.5z M49.4,45.1c0,7.1,5.9,12.4,16.3,12.4c10.2,0,16.3-5.3,16.3-12.4s-3.7-10.8-12.6-12.4
					l-3.9-0.7c-3.8-0.7-5.2-1.9-5.2-4.2s1.6-3.8,4.6-3.8c3.1,0,4.7,1.7,4.7,3.9v0.8h10.8v-0.7c0-6.8-5.4-11.8-15.5-11.8
					c-9.8,0-15.6,5.1-15.6,12.1c0,6.8,4.3,10.6,12.8,12.1L66,41c4,0.7,5.3,2,5.3,4.5c0,2.4-2.1,4.2-5.5,4.2c-3.5,0-5.6-1.7-5.6-4.3
					v-1H49.4V45.1z M123.5,39.8c0.1-0.8,0.1-2,0.1-3c0-12.7-5.8-20.7-18.4-20.7c-12.5,0-18.4,8-18.4,20.7c0,12.9,5.9,20.8,18.4,20.8
					c10,0,16.3-5,17.5-13h-11c-0.6,3.2-2.9,5-6.5,5c-4.7,0-7.2-3.4-7.5-9.8H123.5z M105.1,24.1c4.6,0,7.1,3.1,7.3,8.8H97.7
					C97.9,27.2,100.5,24.1,105.1,24.1z M150.5,25.1c1.3,0,2.6,0.1,3.2,0.1l0.1-8.8c-1-0.2-2-0.4-3.1-0.3c-5.9,0-9.1,2.8-10.3,8.3V17
					h-11v39.5h11V36.8C140.5,29.1,144.2,25.1,150.5,25.1L150.5,25.1z M178.3,28.9c0,15.4,5.1,28.7,21.1,28.7c6.7,0,11.3-3,13.2-7.5
					l1.3,6.5h8.3V27.3h-21.3v8.5h10.3c-0.5,7.3-3.4,12.1-10.5,12.1c-7.3,0-10.9-4.1-10.9-19c0-8.1,0.8-12.2,2.8-15.1
					c1.7-2.5,4.3-3.8,8-3.8c6.3,0,9.8,3.8,10.2,10.2h11.5C221.5,8,213.7,0.3,200.6,0.3c-8.1,0-13.4,2.7-17,7.5
					C179.4,13.2,178.3,20.7,178.3,28.9L178.3,28.9z M229.2,42.1c0,10.1,4.7,15.4,13.1,15.4c5.6,0,9.6-3,11-7.6v6.6h10.9V17.1h-10.9
					v22.3c0,6.2-3.1,9.7-7.6,9.7c-3.6,0-5.7-2.3-5.7-7.2V17.1h-10.9L229.2,42.1z M271.6,10.8h10.9V1.3h-10.9V10.8z M271.6,56.5h10.9
					V17.1h-10.9V56.5z M314.6,36.8c0,8.3-2,12.3-7.5,12.3c-5.5,0-7.5-4-7.5-12.3c0-8.2,2.1-12.2,7.5-12.2
					C312.6,24.6,314.6,28.6,314.6,36.8L314.6,36.8z M314.6,23.1c-1.4-4.3-5.4-7.1-10.8-7.1c-9.3,0-15.1,6.6-15.1,20.7
					c0,14.1,5.8,20.8,15.1,20.8c5.5,0,9.4-2.8,10.8-7.1v6.1h10.8V1.3h-10.8V23.1z M368.2,39.8c0.1-0.8,0.1-2,0.1-3
					c0-12.7-5.8-20.7-18.4-20.7c-12.5,0-18.4,8-18.4,20.7c0,12.9,5.9,20.8,18.4,20.8c10,0,16.3-5,17.5-13h-11c-0.6,3.2-2.9,5-6.5,5
					c-4.7,0-7.2-3.4-7.5-9.8H368.2z M349.8,24.1c4.6,0,7.1,3.1,7.3,8.8h-14.8C342.7,27.2,345.2,24.1,349.8,24.1z"/>
			</defs>
			<clipPath id="SVGID_20_">
				<use xlink:href="#SVGID_19_"  style="overflow:visible;"/>
			</clipPath>
			<g class="st9">
				
					<image style="overflow:visible;enable-background:new    ;" width="230" height="9" xlink:href="A99157D8.png"  transform="matrix(1 0 0 1 44 24)">
				</image>
			</g>
		</g>
		<g>
			<defs>
				<path id="SVGID_21_" d="M22,57.5c14.3,0,21.1-8.5,21.1-21.5V1.3H31.6v34.3c0,8.3-3.1,12.3-9.6,12.3c-6.6,0-9.6-4.1-9.6-12.3V1.3
					H0.8v34.8C0.8,49.1,7.6,57.5,22,57.5z M49.4,45.1c0,7.1,5.9,12.4,16.3,12.4c10.2,0,16.3-5.3,16.3-12.4s-3.7-10.8-12.6-12.4
					l-3.9-0.7c-3.8-0.7-5.2-1.9-5.2-4.2s1.6-3.8,4.6-3.8c3.1,0,4.7,1.7,4.7,3.9v0.8h10.8v-0.7c0-6.8-5.4-11.8-15.5-11.8
					c-9.8,0-15.6,5.1-15.6,12.1c0,6.8,4.3,10.6,12.8,12.1L66,41c4,0.7,5.3,2,5.3,4.5c0,2.4-2.1,4.2-5.5,4.2c-3.5,0-5.6-1.7-5.6-4.3
					v-1H49.4V45.1z M123.5,39.8c0.1-0.8,0.1-2,0.1-3c0-12.7-5.8-20.7-18.4-20.7c-12.5,0-18.4,8-18.4,20.7c0,12.9,5.9,20.8,18.4,20.8
					c10,0,16.3-5,17.5-13h-11c-0.6,3.2-2.9,5-6.5,5c-4.7,0-7.2-3.4-7.5-9.8H123.5z M105.1,24.1c4.6,0,7.1,3.1,7.3,8.8H97.7
					C97.9,27.2,100.5,24.1,105.1,24.1z M150.5,25.1c1.3,0,2.6,0.1,3.2,0.1l0.1-8.8c-1-0.2-2-0.4-3.1-0.3c-5.9,0-9.1,2.8-10.3,8.3V17
					h-11v39.5h11V36.8C140.5,29.1,144.2,25.1,150.5,25.1L150.5,25.1z M178.3,28.9c0,15.4,5.1,28.7,21.1,28.7c6.7,0,11.3-3,13.2-7.5
					l1.3,6.5h8.3V27.3h-21.3v8.5h10.3c-0.5,7.3-3.4,12.1-10.5,12.1c-7.3,0-10.9-4.1-10.9-19c0-8.1,0.8-12.2,2.8-15.1
					c1.7-2.5,4.3-3.8,8-3.8c6.3,0,9.8,3.8,10.2,10.2h11.5C221.5,8,213.7,0.3,200.6,0.3c-8.1,0-13.4,2.7-17,7.5
					C179.4,13.2,178.3,20.7,178.3,28.9L178.3,28.9z M229.2,42.1c0,10.1,4.7,15.4,13.1,15.4c5.6,0,9.6-3,11-7.6v6.6h10.9V17.1h-10.9
					v22.3c0,6.2-3.1,9.7-7.6,9.7c-3.6,0-5.7-2.3-5.7-7.2V17.1h-10.9L229.2,42.1z M271.6,10.8h10.9V1.3h-10.9V10.8z M271.6,56.5h10.9
					V17.1h-10.9V56.5z M314.6,36.8c0,8.3-2,12.3-7.5,12.3c-5.5,0-7.5-4-7.5-12.3c0-8.2,2.1-12.2,7.5-12.2
					C312.6,24.6,314.6,28.6,314.6,36.8L314.6,36.8z M314.6,23.1c-1.4-4.3-5.4-7.1-10.8-7.1c-9.3,0-15.1,6.6-15.1,20.7
					c0,14.1,5.8,20.8,15.1,20.8c5.5,0,9.4-2.8,10.8-7.1v6.1h10.8V1.3h-10.8V23.1z M368.2,39.8c0.1-0.8,0.1-2,0.1-3
					c0-12.7-5.8-20.7-18.4-20.7c-12.5,0-18.4,8-18.4,20.7c0,12.9,5.9,20.8,18.4,20.8c10,0,16.3-5,17.5-13h-11c-0.6,3.2-2.9,5-6.5,5
					c-4.7,0-7.2-3.4-7.5-9.8H368.2z M349.8,24.1c4.6,0,7.1,3.1,7.3,8.8h-14.8C342.7,27.2,345.2,24.1,349.8,24.1z"/>
			</defs>
			<clipPath id="SVGID_22_">
				<use xlink:href="#SVGID_21_"  style="overflow:visible;"/>
			</clipPath>
			<g class="st10">
				
					<image style="overflow:visible;enable-background:new    ;" width="230" height="42" xlink:href="A99157D8.png"  transform="matrix(1 0 0 1 44 16)">
				</image>
			</g>
		</g>
		<g>
			<defs>
				<path id="SVGID_23_" d="M22,57.5c14.3,0,21.1-8.5,21.1-21.5V1.3H31.6v34.3c0,8.3-3.1,12.3-9.6,12.3c-6.6,0-9.6-4.1-9.6-12.3V1.3
					H0.8v34.8C0.8,49.1,7.6,57.5,22,57.5z M49.4,45.1c0,7.1,5.9,12.4,16.3,12.4c10.2,0,16.3-5.3,16.3-12.4s-3.7-10.8-12.6-12.4
					l-3.9-0.7c-3.8-0.7-5.2-1.9-5.2-4.2s1.6-3.8,4.6-3.8c3.1,0,4.7,1.7,4.7,3.9v0.8h10.8v-0.7c0-6.8-5.4-11.8-15.5-11.8
					c-9.8,0-15.6,5.1-15.6,12.1c0,6.8,4.3,10.6,12.8,12.1L66,41c4,0.7,5.3,2,5.3,4.5c0,2.4-2.1,4.2-5.5,4.2c-3.5,0-5.6-1.7-5.6-4.3
					v-1H49.4V45.1z M123.5,39.8c0.1-0.8,0.1-2,0.1-3c0-12.7-5.8-20.7-18.4-20.7c-12.5,0-18.4,8-18.4,20.7c0,12.9,5.9,20.8,18.4,20.8
					c10,0,16.3-5,17.5-13h-11c-0.6,3.2-2.9,5-6.5,5c-4.7,0-7.2-3.4-7.5-9.8H123.5z M105.1,24.1c4.6,0,7.1,3.1,7.3,8.8H97.7
					C97.9,27.2,100.5,24.1,105.1,24.1z M150.5,25.1c1.3,0,2.6,0.1,3.2,0.1l0.1-8.8c-1-0.2-2-0.4-3.1-0.3c-5.9,0-9.1,2.8-10.3,8.3V17
					h-11v39.5h11V36.8C140.5,29.1,144.2,25.1,150.5,25.1L150.5,25.1z M178.3,28.9c0,15.4,5.1,28.7,21.1,28.7c6.7,0,11.3-3,13.2-7.5
					l1.3,6.5h8.3V27.3h-21.3v8.5h10.3c-0.5,7.3-3.4,12.1-10.5,12.1c-7.3,0-10.9-4.1-10.9-19c0-8.1,0.8-12.2,2.8-15.1
					c1.7-2.5,4.3-3.8,8-3.8c6.3,0,9.8,3.8,10.2,10.2h11.5C221.5,8,213.7,0.3,200.6,0.3c-8.1,0-13.4,2.7-17,7.5
					C179.4,13.2,178.3,20.7,178.3,28.9L178.3,28.9z M229.2,42.1c0,10.1,4.7,15.4,13.1,15.4c5.6,0,9.6-3,11-7.6v6.6h10.9V17.1h-10.9
					v22.3c0,6.2-3.1,9.7-7.6,9.7c-3.6,0-5.7-2.3-5.7-7.2V17.1h-10.9L229.2,42.1z M271.6,10.8h10.9V1.3h-10.9V10.8z M271.6,56.5h10.9
					V17.1h-10.9V56.5z M314.6,36.8c0,8.3-2,12.3-7.5,12.3c-5.5,0-7.5-4-7.5-12.3c0-8.2,2.1-12.2,7.5-12.2
					C312.6,24.6,314.6,28.6,314.6,36.8L314.6,36.8z M314.6,23.1c-1.4-4.3-5.4-7.1-10.8-7.1c-9.3,0-15.1,6.6-15.1,20.7
					c0,14.1,5.8,20.8,15.1,20.8c5.5,0,9.4-2.8,10.8-7.1v6.1h10.8V1.3h-10.8V23.1z M368.2,39.8c0.1-0.8,0.1-2,0.1-3
					c0-12.7-5.8-20.7-18.4-20.7c-12.5,0-18.4,8-18.4,20.7c0,12.9,5.9,20.8,18.4,20.8c10,0,16.3-5,17.5-13h-11c-0.6,3.2-2.9,5-6.5,5
					c-4.7,0-7.2-3.4-7.5-9.8H368.2z M349.8,24.1c4.6,0,7.1,3.1,7.3,8.8h-14.8C342.7,27.2,345.2,24.1,349.8,24.1z"/>
			</defs>
			<clipPath id="SVGID_24_">
				<use xlink:href="#SVGID_23_"  style="overflow:visible;"/>
			</clipPath>
			<g class="st11">
				
					<image style="overflow:visible;enable-background:new    ;" width="230" height="42" xlink:href="A99157D8.png"  transform="matrix(1 0 0 1 44 16)">
				</image>
			</g>
		</g>
		<g>
			<defs>
				<path id="SVGID_25_" d="M22,57.5c14.3,0,21.1-8.5,21.1-21.5V1.3H31.6v34.3c0,8.3-3.1,12.3-9.6,12.3c-6.6,0-9.6-4.1-9.6-12.3V1.3
					H0.8v34.8C0.8,49.1,7.6,57.5,22,57.5z M49.4,45.1c0,7.1,5.9,12.4,16.3,12.4c10.2,0,16.3-5.3,16.3-12.4s-3.7-10.8-12.6-12.4
					l-3.9-0.7c-3.8-0.7-5.2-1.9-5.2-4.2s1.6-3.8,4.6-3.8c3.1,0,4.7,1.7,4.7,3.9v0.8h10.8v-0.7c0-6.8-5.4-11.8-15.5-11.8
					c-9.8,0-15.6,5.1-15.6,12.1c0,6.8,4.3,10.6,12.8,12.1L66,41c4,0.7,5.3,2,5.3,4.5c0,2.4-2.1,4.2-5.5,4.2c-3.5,0-5.6-1.7-5.6-4.3
					v-1H49.4V45.1z M123.5,39.8c0.1-0.8,0.1-2,0.1-3c0-12.7-5.8-20.7-18.4-20.7c-12.5,0-18.4,8-18.4,20.7c0,12.9,5.9,20.8,18.4,20.8
					c10,0,16.3-5,17.5-13h-11c-0.6,3.2-2.9,5-6.5,5c-4.7,0-7.2-3.4-7.5-9.8H123.5z M105.1,24.1c4.6,0,7.1,3.1,7.3,8.8H97.7
					C97.9,27.2,100.5,24.1,105.1,24.1z M150.5,25.1c1.3,0,2.6,0.1,3.2,0.1l0.1-8.8c-1-0.2-2-0.4-3.1-0.3c-5.9,0-9.1,2.8-10.3,8.3V17
					h-11v39.5h11V36.8C140.5,29.1,144.2,25.1,150.5,25.1L150.5,25.1z M178.3,28.9c0,15.4,5.1,28.7,21.1,28.7c6.7,0,11.3-3,13.2-7.5
					l1.3,6.5h8.3V27.3h-21.3v8.5h10.3c-0.5,7.3-3.4,12.1-10.5,12.1c-7.3,0-10.9-4.1-10.9-19c0-8.1,0.8-12.2,2.8-15.1
					c1.7-2.5,4.3-3.8,8-3.8c6.3,0,9.8,3.8,10.2,10.2h11.5C221.5,8,213.7,0.3,200.6,0.3c-8.1,0-13.4,2.7-17,7.5
					C179.4,13.2,178.3,20.7,178.3,28.9L178.3,28.9z M229.2,42.1c0,10.1,4.7,15.4,13.1,15.4c5.6,0,9.6-3,11-7.6v6.6h10.9V17.1h-10.9
					v22.3c0,6.2-3.1,9.7-7.6,9.7c-3.6,0-5.7-2.3-5.7-7.2V17.1h-10.9L229.2,42.1z M271.6,10.8h10.9V1.3h-10.9V10.8z M271.6,56.5h10.9
					V17.1h-10.9V56.5z M314.6,36.8c0,8.3-2,12.3-7.5,12.3c-5.5,0-7.5-4-7.5-12.3c0-8.2,2.1-12.2,7.5-12.2
					C312.6,24.6,314.6,28.6,314.6,36.8L314.6,36.8z M314.6,23.1c-1.4-4.3-5.4-7.1-10.8-7.1c-9.3,0-15.1,6.6-15.1,20.7
					c0,14.1,5.8,20.8,15.1,20.8c5.5,0,9.4-2.8,10.8-7.1v6.1h10.8V1.3h-10.8V23.1z M368.2,39.8c0.1-0.8,0.1-2,0.1-3
					c0-12.7-5.8-20.7-18.4-20.7c-12.5,0-18.4,8-18.4,20.7c0,12.9,5.9,20.8,18.4,20.8c10,0,16.3-5,17.5-13h-11c-0.6,3.2-2.9,5-6.5,5
					c-4.7,0-7.2-3.4-7.5-9.8H368.2z M349.8,24.1c4.6,0,7.1,3.1,7.3,8.8h-14.8C342.7,27.2,345.2,24.1,349.8,24.1z"/>
			</defs>
			<clipPath id="SVGID_26_">
				<use xlink:href="#SVGID_25_"  style="overflow:visible;"/>
			</clipPath>
			<g class="st12">
				
					<image style="overflow:visible;enable-background:new    ;" width="274" height="57" xlink:href="A99157D8.png"  transform="matrix(1 0 0 1 0 1)">
				</image>
			</g>
		</g>
	</g>
</g>
</svg>
