<?xml version="1.0" encoding="utf-8"?>
<!-- Generator: Adobe Illustrator 23.1.0, SVG Export Plug-In . SVG Version: 6.00 Build 0)  -->
<svg version="1.1" id="userguide" xmlns="http://www.w3.org/2000/svg" xmlns:xlink="http://www.w3.org/1999/xlink" x="0px" y="0px"
	 viewBox="0 0 418.6 103.3" style="enable-background:new 0 0 418.6 103.3;" xml:space="preserve">
<style type="text/css">
	.st0{clip-path:url(#SVGID_2_);}
	.st1{clip-path:url(#SVGID_5_);}
	.st2{clip-path:url(#SVGID_7_);}
	.st3{clip-path:url(#SVGID_9_);}
	.st4{clip-path:url(#SVGID_11_);}
	.st5{clip-path:url(#SVGID_13_);}
	.st6{clip-path:url(#SVGID_15_);}
	.st7{clip-path:url(#SVGID_17_);}
	.st8{clip-path:url(#SVGID_19_);}
	.st9{clip-path:url(#SVGID_21_);}
	.st10{clip-path:url(#SVGID_23_);}
	.st11{clip-path:url(#SVGID_25_);}
	.st12{clip-path:url(#SVGID_27_);}
	.st13{opacity:0.8;enable-background:new    ;}
	.st14{fill:url(#SVGID_28_);}
	.st15{fill:url(#SVGID_29_);}
	.st16{opacity:0.8;fill:#FFDA00;enable-background:new    ;}
	.st17{fill:url(#SVGID_30_);}
</style>
<g id="패스_64">
	<g>
		<g>
			<defs>
				<path id="SVGID_1_" d="M21.2,103.3c14.3,0,21.1-8.5,21.1-21.5V47H30.8v34.3c0,8.3-3.1,12.3-9.6,12.3c-6.6,0-9.6-4.1-9.6-12.3V47
					H0v34.8C0,94.8,6.8,103.3,21.2,103.3z M48.6,90.8c0,7.1,5.9,12.4,16.3,12.4c10.2,0,16.3-5.3,16.3-12.4s-3.7-10.8-12.6-12.4
					l-3.9-0.7c-3.8-0.7-5.2-1.9-5.2-4.2s1.6-3.8,4.6-3.8c3.1,0,4.7,1.7,4.7,3.9v0.8h10.8v-0.7c0-6.8-5.4-11.8-15.5-11.8
					c-9.8,0-15.6,5.1-15.6,12.1c0,6.8,4.3,10.6,12.8,12.1l3.8,0.7c4,0.7,5.3,2,5.3,4.5c0,2.4-2.1,4.2-5.5,4.2
					c-3.5,0-5.6-1.7-5.6-4.3v-1H48.6V90.8z M122.7,85.5c0.1-0.8,0.1-2,0.1-3c0-12.7-5.8-20.7-18.4-20.7c-12.5,0-18.4,8-18.4,20.7
					c0,12.9,5.9,20.8,18.4,20.8c10,0,16.3-5,17.5-13h-11c-0.6,3.2-2.9,5-6.5,5c-4.7,0-7.2-3.4-7.5-9.8H122.7z M104.3,69.9
					c4.6,0,7.1,3.1,7.3,8.8H96.9C97.2,72.9,99.7,69.9,104.3,69.9z M149.7,70.8c1.3,0,2.6,0.1,3.2,0.1l0.1-8.8c-1-0.2-2-0.4-3.1-0.3
					c-5.9,0-9.1,2.8-10.3,8.3v-7.3h-11v39.5h11V82.6C139.7,74.9,143.4,70.8,149.7,70.8L149.7,70.8z M177.5,74.6
					c0,15.4,5.1,28.7,21.1,28.7c6.7,0,11.3-3,13.2-7.5l1.3,6.5h8.3V73H200v8.5h10.3c-0.5,7.3-3.4,12.1-10.5,12.1
					c-7.3,0-10.9-4.1-10.9-19c0-8.1,0.8-12.2,2.8-15.1c1.7-2.5,4.3-3.8,8-3.8c6.3,0,9.8,3.8,10.2,10.2h11.5
					c-0.7-12.2-8.5-19.8-21.7-19.8c-8.1,0-13.4,2.7-17,7.5C178.6,59,177.5,66.4,177.5,74.6L177.5,74.6z M228.4,87.8
					c0,10.1,4.7,15.4,13.1,15.4c5.6,0,9.6-3,11-7.6v6.6h10.9V62.8h-10.9v22.3c0,6.2-3.1,9.7-7.6,9.7c-3.6,0-5.7-2.3-5.7-7.2V62.8
					h-10.9L228.4,87.8z M270.8,56.5h10.9V47h-10.9V56.5z M270.8,102.3h10.9V62.8h-10.9V102.3z M313.8,82.5c0,8.3-2,12.3-7.5,12.3
					c-5.5,0-7.5-4-7.5-12.3c0-8.2,2.1-12.2,7.5-12.2C311.8,70.4,313.8,74.3,313.8,82.5L313.8,82.5z M313.8,68.9
					c-1.4-4.3-5.4-7.1-10.8-7.1c-9.3,0-15.1,6.6-15.1,20.7c0,14.1,5.8,20.8,15.1,20.8c5.5,0,9.4-2.8,10.8-7.1v6.1h10.8V47h-10.8
					V68.9z M367.4,85.5c0.1-0.8,0.1-2,0.1-3c0-12.7-5.8-20.7-18.4-20.7c-12.5,0-18.4,8-18.4,20.7c0,12.9,5.9,20.8,18.4,20.8
					c10,0,16.3-5,17.5-13h-11c-0.6,3.2-2.9,5-6.5,5c-4.7,0-7.2-3.4-7.5-9.8H367.4z M349,69.9c4.6,0,7.1,3.1,7.3,8.8h-14.8
					C341.9,72.9,344.4,69.9,349,69.9z"/>
			</defs>
			<clipPath id="SVGID_2_">
				<use xlink:href="#SVGID_1_"  style="overflow:visible;"/>
			</clipPath>
			<g class="st0">
				
					<image style="overflow:visible;enable-background:new    ;" width="314" height="9" xlink:href="2704D6F8.png"  transform="matrix(1 0 0 1 43.2031 69.7674)">
				</image>
			</g>
		</g>
		<g>
			<defs>
				<path id="SVGID_4_" d="M21.2,103.3c14.3,0,21.1-8.5,21.1-21.5V47H30.8v34.3c0,8.3-3.1,12.3-9.6,12.3c-6.6,0-9.6-4.1-9.6-12.3V47
					H0v34.8C0,94.8,6.8,103.3,21.2,103.3z M48.6,90.8c0,7.1,5.9,12.4,16.3,12.4c10.2,0,16.3-5.3,16.3-12.4s-3.7-10.8-12.6-12.4
					l-3.9-0.7c-3.8-0.7-5.2-1.9-5.2-4.2s1.6-3.8,4.6-3.8c3.1,0,4.7,1.7,4.7,3.9v0.8h10.8v-0.7c0-6.8-5.4-11.8-15.5-11.8
					c-9.8,0-15.6,5.1-15.6,12.1c0,6.8,4.3,10.6,12.8,12.1l3.8,0.7c4,0.7,5.3,2,5.3,4.5c0,2.4-2.1,4.2-5.5,4.2
					c-3.5,0-5.6-1.7-5.6-4.3v-1H48.6V90.8z M122.7,85.5c0.1-0.8,0.1-2,0.1-3c0-12.7-5.8-20.7-18.4-20.7c-12.5,0-18.4,8-18.4,20.7
					c0,12.9,5.9,20.8,18.4,20.8c10,0,16.3-5,17.5-13h-11c-0.6,3.2-2.9,5-6.5,5c-4.7,0-7.2-3.4-7.5-9.8H122.7z M104.3,69.9
					c4.6,0,7.1,3.1,7.3,8.8H96.9C97.2,72.9,99.7,69.9,104.3,69.9z M149.7,70.8c1.3,0,2.6,0.1,3.2,0.1l0.1-8.8c-1-0.2-2-0.4-3.1-0.3
					c-5.9,0-9.1,2.8-10.3,8.3v-7.3h-11v39.5h11V82.6C139.7,74.9,143.4,70.8,149.7,70.8L149.7,70.8z M177.5,74.6
					c0,15.4,5.1,28.7,21.1,28.7c6.7,0,11.3-3,13.2-7.5l1.3,6.5h8.3V73H200v8.5h10.3c-0.5,7.3-3.4,12.1-10.5,12.1
					c-7.3,0-10.9-4.1-10.9-19c0-8.1,0.8-12.2,2.8-15.1c1.7-2.5,4.3-3.8,8-3.8c6.3,0,9.8,3.8,10.2,10.2h11.5
					c-0.7-12.2-8.5-19.8-21.7-19.8c-8.1,0-13.4,2.7-17,7.5C178.6,59,177.5,66.4,177.5,74.6L177.5,74.6z M228.4,87.8
					c0,10.1,4.7,15.4,13.1,15.4c5.6,0,9.6-3,11-7.6v6.6h10.9V62.8h-10.9v22.3c0,6.2-3.1,9.7-7.6,9.7c-3.6,0-5.7-2.3-5.7-7.2V62.8
					h-10.9L228.4,87.8z M270.8,56.5h10.9V47h-10.9V56.5z M270.8,102.3h10.9V62.8h-10.9V102.3z M313.8,82.5c0,8.3-2,12.3-7.5,12.3
					c-5.5,0-7.5-4-7.5-12.3c0-8.2,2.1-12.2,7.5-12.2C311.8,70.4,313.8,74.3,313.8,82.5L313.8,82.5z M313.8,68.9
					c-1.4-4.3-5.4-7.1-10.8-7.1c-9.3,0-15.1,6.6-15.1,20.7c0,14.1,5.8,20.8,15.1,20.8c5.5,0,9.4-2.8,10.8-7.1v6.1h10.8V47h-10.8
					V68.9z M367.4,85.5c0.1-0.8,0.1-2,0.1-3c0-12.7-5.8-20.7-18.4-20.7c-12.5,0-18.4,8-18.4,20.7c0,12.9,5.9,20.8,18.4,20.8
					c10,0,16.3-5,17.5-13h-11c-0.6,3.2-2.9,5-6.5,5c-4.7,0-7.2-3.4-7.5-9.8H367.4z M349,69.9c4.6,0,7.1,3.1,7.3,8.8h-14.8
					C341.9,72.9,344.4,69.9,349,69.9z"/>
			</defs>
			<clipPath id="SVGID_5_">
				<use xlink:href="#SVGID_4_"  style="overflow:visible;"/>
			</clipPath>
			<g class="st1">
				
					<image style="overflow:visible;enable-background:new    ;" width="325" height="42" xlink:href="2704D6F8.png"  transform="matrix(1 0 0 1 43.2031 61.7674)">
				</image>
			</g>
		</g>
		<g>
			<defs>
				<path id="SVGID_6_" d="M21.2,103.3c14.3,0,21.1-8.5,21.1-21.5V47H30.8v34.3c0,8.3-3.1,12.3-9.6,12.3c-6.6,0-9.6-4.1-9.6-12.3V47
					H0v34.8C0,94.8,6.8,103.3,21.2,103.3z M48.6,90.8c0,7.1,5.9,12.4,16.3,12.4c10.2,0,16.3-5.3,16.3-12.4s-3.7-10.8-12.6-12.4
					l-3.9-0.7c-3.8-0.7-5.2-1.9-5.2-4.2s1.6-3.8,4.6-3.8c3.1,0,4.7,1.7,4.7,3.9v0.8h10.8v-0.7c0-6.8-5.4-11.8-15.5-11.8
					c-9.8,0-15.6,5.1-15.6,12.1c0,6.8,4.3,10.6,12.8,12.1l3.8,0.7c4,0.7,5.3,2,5.3,4.5c0,2.4-2.1,4.2-5.5,4.2
					c-3.5,0-5.6-1.7-5.6-4.3v-1H48.6V90.8z M122.7,85.5c0.1-0.8,0.1-2,0.1-3c0-12.7-5.8-20.7-18.4-20.7c-12.5,0-18.4,8-18.4,20.7
					c0,12.9,5.9,20.8,18.4,20.8c10,0,16.3-5,17.5-13h-11c-0.6,3.2-2.9,5-6.5,5c-4.7,0-7.2-3.4-7.5-9.8H122.7z M104.3,69.9
					c4.6,0,7.1,3.1,7.3,8.8H96.9C97.2,72.9,99.7,69.9,104.3,69.9z M149.7,70.8c1.3,0,2.6,0.1,3.2,0.1l0.1-8.8c-1-0.2-2-0.4-3.1-0.3
					c-5.9,0-9.1,2.8-10.3,8.3v-7.3h-11v39.5h11V82.6C139.7,74.9,143.4,70.8,149.7,70.8L149.7,70.8z M177.5,74.6
					c0,15.4,5.1,28.7,21.1,28.7c6.7,0,11.3-3,13.2-7.5l1.3,6.5h8.3V73H200v8.5h10.3c-0.5,7.3-3.4,12.1-10.5,12.1
					c-7.3,0-10.9-4.1-10.9-19c0-8.1,0.8-12.2,2.8-15.1c1.7-2.5,4.3-3.8,8-3.8c6.3,0,9.8,3.8,10.2,10.2h11.5
					c-0.7-12.2-8.5-19.8-21.7-19.8c-8.1,0-13.4,2.7-17,7.5C178.6,59,177.5,66.4,177.5,74.6L177.5,74.6z M228.4,87.8
					c0,10.1,4.7,15.4,13.1,15.4c5.6,0,9.6-3,11-7.6v6.6h10.9V62.8h-10.9v22.3c0,6.2-3.1,9.7-7.6,9.7c-3.6,0-5.7-2.3-5.7-7.2V62.8
					h-10.9L228.4,87.8z M270.8,56.5h10.9V47h-10.9V56.5z M270.8,102.3h10.9V62.8h-10.9V102.3z M313.8,82.5c0,8.3-2,12.3-7.5,12.3
					c-5.5,0-7.5-4-7.5-12.3c0-8.2,2.1-12.2,7.5-12.2C311.8,70.4,313.8,74.3,313.8,82.5L313.8,82.5z M313.8,68.9
					c-1.4-4.3-5.4-7.1-10.8-7.1c-9.3,0-15.1,6.6-15.1,20.7c0,14.1,5.8,20.8,15.1,20.8c5.5,0,9.4-2.8,10.8-7.1v6.1h10.8V47h-10.8
					V68.9z M367.4,85.5c0.1-0.8,0.1-2,0.1-3c0-12.7-5.8-20.7-18.4-20.7c-12.5,0-18.4,8-18.4,20.7c0,12.9,5.9,20.8,18.4,20.8
					c10,0,16.3-5,17.5-13h-11c-0.6,3.2-2.9,5-6.5,5c-4.7,0-7.2-3.4-7.5-9.8H367.4z M349,69.9c4.6,0,7.1,3.1,7.3,8.8h-14.8
					C341.9,72.9,344.4,69.9,349,69.9z"/>
			</defs>
			<clipPath id="SVGID_7_">
				<use xlink:href="#SVGID_6_"  style="overflow:visible;"/>
			</clipPath>
			<g class="st2">
				
					<image style="overflow:visible;enable-background:new    ;" width="282" height="57" xlink:href="2704D6F8.png"  transform="matrix(1 0 0 1 43.2031 46.7674)">
				</image>
			</g>
		</g>
		<g>
			<defs>
				<path id="SVGID_8_" d="M21.2,103.3c14.3,0,21.1-8.5,21.1-21.5V47H30.8v34.3c0,8.3-3.1,12.3-9.6,12.3c-6.6,0-9.6-4.1-9.6-12.3V47
					H0v34.8C0,94.8,6.8,103.3,21.2,103.3z M48.6,90.8c0,7.1,5.9,12.4,16.3,12.4c10.2,0,16.3-5.3,16.3-12.4s-3.7-10.8-12.6-12.4
					l-3.9-0.7c-3.8-0.7-5.2-1.9-5.2-4.2s1.6-3.8,4.6-3.8c3.1,0,4.7,1.7,4.7,3.9v0.8h10.8v-0.7c0-6.8-5.4-11.8-15.5-11.8
					c-9.8,0-15.6,5.1-15.6,12.1c0,6.8,4.3,10.6,12.8,12.1l3.8,0.7c4,0.7,5.3,2,5.3,4.5c0,2.4-2.1,4.2-5.5,4.2
					c-3.5,0-5.6-1.7-5.6-4.3v-1H48.6V90.8z M122.7,85.5c0.1-0.8,0.1-2,0.1-3c0-12.7-5.8-20.7-18.4-20.7c-12.5,0-18.4,8-18.4,20.7
					c0,12.9,5.9,20.8,18.4,20.8c10,0,16.3-5,17.5-13h-11c-0.6,3.2-2.9,5-6.5,5c-4.7,0-7.2-3.4-7.5-9.8H122.7z M104.3,69.9
					c4.6,0,7.1,3.1,7.3,8.8H96.9C97.2,72.9,99.7,69.9,104.3,69.9z M149.7,70.8c1.3,0,2.6,0.1,3.2,0.1l0.1-8.8c-1-0.2-2-0.4-3.1-0.3
					c-5.9,0-9.1,2.8-10.3,8.3v-7.3h-11v39.5h11V82.6C139.7,74.9,143.4,70.8,149.7,70.8L149.7,70.8z M177.5,74.6
					c0,15.4,5.1,28.7,21.1,28.7c6.7,0,11.3-3,13.2-7.5l1.3,6.5h8.3V73H200v8.5h10.3c-0.5,7.3-3.4,12.1-10.5,12.1
					c-7.3,0-10.9-4.1-10.9-19c0-8.1,0.8-12.2,2.8-15.1c1.7-2.5,4.3-3.8,8-3.8c6.3,0,9.8,3.8,10.2,10.2h11.5
					c-0.7-12.2-8.5-19.8-21.7-19.8c-8.1,0-13.4,2.7-17,7.5C178.6,59,177.5,66.4,177.5,74.6L177.5,74.6z M228.4,87.8
					c0,10.1,4.7,15.4,13.1,15.4c5.6,0,9.6-3,11-7.6v6.6h10.9V62.8h-10.9v22.3c0,6.2-3.1,9.7-7.6,9.7c-3.6,0-5.7-2.3-5.7-7.2V62.8
					h-10.9L228.4,87.8z M270.8,56.5h10.9V47h-10.9V56.5z M270.8,102.3h10.9V62.8h-10.9V102.3z M313.8,82.5c0,8.3-2,12.3-7.5,12.3
					c-5.5,0-7.5-4-7.5-12.3c0-8.2,2.1-12.2,7.5-12.2C311.8,70.4,313.8,74.3,313.8,82.5L313.8,82.5z M313.8,68.9
					c-1.4-4.3-5.4-7.1-10.8-7.1c-9.3,0-15.1,6.6-15.1,20.7c0,14.1,5.8,20.8,15.1,20.8c5.5,0,9.4-2.8,10.8-7.1v6.1h10.8V47h-10.8
					V68.9z M367.4,85.5c0.1-0.8,0.1-2,0.1-3c0-12.7-5.8-20.7-18.4-20.7c-12.5,0-18.4,8-18.4,20.7c0,12.9,5.9,20.8,18.4,20.8
					c10,0,16.3-5,17.5-13h-11c-0.6,3.2-2.9,5-6.5,5c-4.7,0-7.2-3.4-7.5-9.8H367.4z M349,69.9c4.6,0,7.1,3.1,7.3,8.8h-14.8
					C341.9,72.9,344.4,69.9,349,69.9z"/>
			</defs>
			<clipPath id="SVGID_9_">
				<use xlink:href="#SVGID_8_"  style="overflow:visible;"/>
			</clipPath>
			<g class="st3">
				
					<image style="overflow:visible;enable-background:new    ;" width="271" height="26" xlink:href="2704D6F8.png"  transform="matrix(1 0 0 1 43.2031 69.7674)">
				</image>
			</g>
		</g>
		<g>
			<defs>
				<path id="SVGID_10_" d="M21.2,103.3c14.3,0,21.1-8.5,21.1-21.5V47H30.8v34.3c0,8.3-3.1,12.3-9.6,12.3c-6.6,0-9.6-4.1-9.6-12.3
					V47H0v34.8C0,94.8,6.8,103.3,21.2,103.3z M48.6,90.8c0,7.1,5.9,12.4,16.3,12.4c10.2,0,16.3-5.3,16.3-12.4s-3.7-10.8-12.6-12.4
					l-3.9-0.7c-3.8-0.7-5.2-1.9-5.2-4.2s1.6-3.8,4.6-3.8c3.1,0,4.7,1.7,4.7,3.9v0.8h10.8v-0.7c0-6.8-5.4-11.8-15.5-11.8
					c-9.8,0-15.6,5.1-15.6,12.1c0,6.8,4.3,10.6,12.8,12.1l3.8,0.7c4,0.7,5.3,2,5.3,4.5c0,2.4-2.1,4.2-5.5,4.2
					c-3.5,0-5.6-1.7-5.6-4.3v-1H48.6V90.8z M122.7,85.5c0.1-0.8,0.1-2,0.1-3c0-12.7-5.8-20.7-18.4-20.7c-12.5,0-18.4,8-18.4,20.7
					c0,12.9,5.9,20.8,18.4,20.8c10,0,16.3-5,17.5-13h-11c-0.6,3.2-2.9,5-6.5,5c-4.7,0-7.2-3.4-7.5-9.8H122.7z M104.3,69.9
					c4.6,0,7.1,3.1,7.3,8.8H96.9C97.2,72.9,99.7,69.9,104.3,69.9z M149.7,70.8c1.3,0,2.6,0.1,3.2,0.1l0.1-8.8c-1-0.2-2-0.4-3.1-0.3
					c-5.9,0-9.1,2.8-10.3,8.3v-7.3h-11v39.5h11V82.6C139.7,74.9,143.4,70.8,149.7,70.8L149.7,70.8z M177.5,74.6
					c0,15.4,5.1,28.7,21.1,28.7c6.7,0,11.3-3,13.2-7.5l1.3,6.5h8.3V73H200v8.5h10.3c-0.5,7.3-3.4,12.1-10.5,12.1
					c-7.3,0-10.9-4.1-10.9-19c0-8.1,0.8-12.2,2.8-15.1c1.7-2.5,4.3-3.8,8-3.8c6.3,0,9.8,3.8,10.2,10.2h11.5
					c-0.7-12.2-8.5-19.8-21.7-19.8c-8.1,0-13.4,2.7-17,7.5C178.6,59,177.5,66.4,177.5,74.6L177.5,74.6z M228.4,87.8
					c0,10.1,4.7,15.4,13.1,15.4c5.6,0,9.6-3,11-7.6v6.6h10.9V62.8h-10.9v22.3c0,6.2-3.1,9.7-7.6,9.7c-3.6,0-5.7-2.3-5.7-7.2V62.8
					h-10.9L228.4,87.8z M270.8,56.5h10.9V47h-10.9V56.5z M270.8,102.3h10.9V62.8h-10.9V102.3z M313.8,82.5c0,8.3-2,12.3-7.5,12.3
					c-5.5,0-7.5-4-7.5-12.3c0-8.2,2.1-12.2,7.5-12.2C311.8,70.4,313.8,74.3,313.8,82.5L313.8,82.5z M313.8,68.9
					c-1.4-4.3-5.4-7.1-10.8-7.1c-9.3,0-15.1,6.6-15.1,20.7c0,14.1,5.8,20.8,15.1,20.8c5.5,0,9.4-2.8,10.8-7.1v6.1h10.8V47h-10.8
					V68.9z M367.4,85.5c0.1-0.8,0.1-2,0.1-3c0-12.7-5.8-20.7-18.4-20.7c-12.5,0-18.4,8-18.4,20.7c0,12.9,5.9,20.8,18.4,20.8
					c10,0,16.3-5,17.5-13h-11c-0.6,3.2-2.9,5-6.5,5c-4.7,0-7.2-3.4-7.5-9.8H367.4z M349,69.9c4.6,0,7.1,3.1,7.3,8.8h-14.8
					C341.9,72.9,344.4,69.9,349,69.9z"/>
			</defs>
			<clipPath id="SVGID_11_">
				<use xlink:href="#SVGID_10_"  style="overflow:visible;"/>
			</clipPath>
			<g class="st4">
				
					<image style="overflow:visible;enable-background:new    ;" width="239" height="40" xlink:href="2704D6F8.png"  transform="matrix(1 0 0 1 43.2031 62.7674)">
				</image>
			</g>
		</g>
		<g>
			<defs>
				<path id="SVGID_12_" d="M21.2,103.3c14.3,0,21.1-8.5,21.1-21.5V47H30.8v34.3c0,8.3-3.1,12.3-9.6,12.3c-6.6,0-9.6-4.1-9.6-12.3
					V47H0v34.8C0,94.8,6.8,103.3,21.2,103.3z M48.6,90.8c0,7.1,5.9,12.4,16.3,12.4c10.2,0,16.3-5.3,16.3-12.4s-3.7-10.8-12.6-12.4
					l-3.9-0.7c-3.8-0.7-5.2-1.9-5.2-4.2s1.6-3.8,4.6-3.8c3.1,0,4.7,1.7,4.7,3.9v0.8h10.8v-0.7c0-6.8-5.4-11.8-15.5-11.8
					c-9.8,0-15.6,5.1-15.6,12.1c0,6.8,4.3,10.6,12.8,12.1l3.8,0.7c4,0.7,5.3,2,5.3,4.5c0,2.4-2.1,4.2-5.5,4.2
					c-3.5,0-5.6-1.7-5.6-4.3v-1H48.6V90.8z M122.7,85.5c0.1-0.8,0.1-2,0.1-3c0-12.7-5.8-20.7-18.4-20.7c-12.5,0-18.4,8-18.4,20.7
					c0,12.9,5.9,20.8,18.4,20.8c10,0,16.3-5,17.5-13h-11c-0.6,3.2-2.9,5-6.5,5c-4.7,0-7.2-3.4-7.5-9.8H122.7z M104.3,69.9
					c4.6,0,7.1,3.1,7.3,8.8H96.9C97.2,72.9,99.7,69.9,104.3,69.9z M149.7,70.8c1.3,0,2.6,0.1,3.2,0.1l0.1-8.8c-1-0.2-2-0.4-3.1-0.3
					c-5.9,0-9.1,2.8-10.3,8.3v-7.3h-11v39.5h11V82.6C139.7,74.9,143.4,70.8,149.7,70.8L149.7,70.8z M177.5,74.6
					c0,15.4,5.1,28.7,21.1,28.7c6.7,0,11.3-3,13.2-7.5l1.3,6.5h8.3V73H200v8.5h10.3c-0.5,7.3-3.4,12.1-10.5,12.1
					c-7.3,0-10.9-4.1-10.9-19c0-8.1,0.8-12.2,2.8-15.1c1.7-2.5,4.3-3.8,8-3.8c6.3,0,9.8,3.8,10.2,10.2h11.5
					c-0.7-12.2-8.5-19.8-21.7-19.8c-8.1,0-13.4,2.7-17,7.5C178.6,59,177.5,66.4,177.5,74.6L177.5,74.6z M228.4,87.8
					c0,10.1,4.7,15.4,13.1,15.4c5.6,0,9.6-3,11-7.6v6.6h10.9V62.8h-10.9v22.3c0,6.2-3.1,9.7-7.6,9.7c-3.6,0-5.7-2.3-5.7-7.2V62.8
					h-10.9L228.4,87.8z M270.8,56.5h10.9V47h-10.9V56.5z M270.8,102.3h10.9V62.8h-10.9V102.3z M313.8,82.5c0,8.3-2,12.3-7.5,12.3
					c-5.5,0-7.5-4-7.5-12.3c0-8.2,2.1-12.2,7.5-12.2C311.8,70.4,313.8,74.3,313.8,82.5L313.8,82.5z M313.8,68.9
					c-1.4-4.3-5.4-7.1-10.8-7.1c-9.3,0-15.1,6.6-15.1,20.7c0,14.1,5.8,20.8,15.1,20.8c5.5,0,9.4-2.8,10.8-7.1v6.1h10.8V47h-10.8
					V68.9z M367.4,85.5c0.1-0.8,0.1-2,0.1-3c0-12.7-5.8-20.7-18.4-20.7c-12.5,0-18.4,8-18.4,20.7c0,12.9,5.9,20.8,18.4,20.8
					c10,0,16.3-5,17.5-13h-11c-0.6,3.2-2.9,5-6.5,5c-4.7,0-7.2-3.4-7.5-9.8H367.4z M349,69.9c4.6,0,7.1,3.1,7.3,8.8h-14.8
					C341.9,72.9,344.4,69.9,349,69.9z"/>
			</defs>
			<clipPath id="SVGID_13_">
				<use xlink:href="#SVGID_12_"  style="overflow:visible;"/>
			</clipPath>
			<g class="st5">
				
					<image style="overflow:visible;enable-background:new    ;" width="239" height="10" xlink:href="2704D6F8.png"  transform="matrix(1 0 0 1 43.2031 46.7674)">
				</image>
			</g>
		</g>
		<g>
			<defs>
				<path id="SVGID_14_" d="M21.2,103.3c14.3,0,21.1-8.5,21.1-21.5V47H30.8v34.3c0,8.3-3.1,12.3-9.6,12.3c-6.6,0-9.6-4.1-9.6-12.3
					V47H0v34.8C0,94.8,6.8,103.3,21.2,103.3z M48.6,90.8c0,7.1,5.9,12.4,16.3,12.4c10.2,0,16.3-5.3,16.3-12.4s-3.7-10.8-12.6-12.4
					l-3.9-0.7c-3.8-0.7-5.2-1.9-5.2-4.2s1.6-3.8,4.6-3.8c3.1,0,4.7,1.7,4.7,3.9v0.8h10.8v-0.7c0-6.8-5.4-11.8-15.5-11.8
					c-9.8,0-15.6,5.1-15.6,12.1c0,6.8,4.3,10.6,12.8,12.1l3.8,0.7c4,0.7,5.3,2,5.3,4.5c0,2.4-2.1,4.2-5.5,4.2
					c-3.5,0-5.6-1.7-5.6-4.3v-1H48.6V90.8z M122.7,85.5c0.1-0.8,0.1-2,0.1-3c0-12.7-5.8-20.7-18.4-20.7c-12.5,0-18.4,8-18.4,20.7
					c0,12.9,5.9,20.8,18.4,20.8c10,0,16.3-5,17.5-13h-11c-0.6,3.2-2.9,5-6.5,5c-4.7,0-7.2-3.4-7.5-9.8H122.7z M104.3,69.9
					c4.6,0,7.1,3.1,7.3,8.8H96.9C97.2,72.9,99.7,69.9,104.3,69.9z M149.7,70.8c1.3,0,2.6,0.1,3.2,0.1l0.1-8.8c-1-0.2-2-0.4-3.1-0.3
					c-5.9,0-9.1,2.8-10.3,8.3v-7.3h-11v39.5h11V82.6C139.7,74.9,143.4,70.8,149.7,70.8L149.7,70.8z M177.5,74.6
					c0,15.4,5.1,28.7,21.1,28.7c6.7,0,11.3-3,13.2-7.5l1.3,6.5h8.3V73H200v8.5h10.3c-0.5,7.3-3.4,12.1-10.5,12.1
					c-7.3,0-10.9-4.1-10.9-19c0-8.1,0.8-12.2,2.8-15.1c1.7-2.5,4.3-3.8,8-3.8c6.3,0,9.8,3.8,10.2,10.2h11.5
					c-0.7-12.2-8.5-19.8-21.7-19.8c-8.1,0-13.4,2.7-17,7.5C178.6,59,177.5,66.4,177.5,74.6L177.5,74.6z M228.4,87.8
					c0,10.1,4.7,15.4,13.1,15.4c5.6,0,9.6-3,11-7.6v6.6h10.9V62.8h-10.9v22.3c0,6.2-3.1,9.7-7.6,9.7c-3.6,0-5.7-2.3-5.7-7.2V62.8
					h-10.9L228.4,87.8z M270.8,56.5h10.9V47h-10.9V56.5z M270.8,102.3h10.9V62.8h-10.9V102.3z M313.8,82.5c0,8.3-2,12.3-7.5,12.3
					c-5.5,0-7.5-4-7.5-12.3c0-8.2,2.1-12.2,7.5-12.2C311.8,70.4,313.8,74.3,313.8,82.5L313.8,82.5z M313.8,68.9
					c-1.4-4.3-5.4-7.1-10.8-7.1c-9.3,0-15.1,6.6-15.1,20.7c0,14.1,5.8,20.8,15.1,20.8c5.5,0,9.4-2.8,10.8-7.1v6.1h10.8V47h-10.8
					V68.9z M367.4,85.5c0.1-0.8,0.1-2,0.1-3c0-12.7-5.8-20.7-18.4-20.7c-12.5,0-18.4,8-18.4,20.7c0,12.9,5.9,20.8,18.4,20.8
					c10,0,16.3-5,17.5-13h-11c-0.6,3.2-2.9,5-6.5,5c-4.7,0-7.2-3.4-7.5-9.8H367.4z M349,69.9c4.6,0,7.1,3.1,7.3,8.8h-14.8
					C341.9,72.9,344.4,69.9,349,69.9z"/>
			</defs>
			<clipPath id="SVGID_15_">
				<use xlink:href="#SVGID_14_"  style="overflow:visible;"/>
			</clipPath>
			<g class="st6">
				
					<image style="overflow:visible;enable-background:new    ;" width="230" height="41" xlink:href="2704D6F8.png"  transform="matrix(1 0 0 1 43.2031 62.7674)">
				</image>
			</g>
		</g>
		<g>
			<defs>
				<path id="SVGID_16_" d="M21.2,103.3c14.3,0,21.1-8.5,21.1-21.5V47H30.8v34.3c0,8.3-3.1,12.3-9.6,12.3c-6.6,0-9.6-4.1-9.6-12.3
					V47H0v34.8C0,94.8,6.8,103.3,21.2,103.3z M48.6,90.8c0,7.1,5.9,12.4,16.3,12.4c10.2,0,16.3-5.3,16.3-12.4s-3.7-10.8-12.6-12.4
					l-3.9-0.7c-3.8-0.7-5.2-1.9-5.2-4.2s1.6-3.8,4.6-3.8c3.1,0,4.7,1.7,4.7,3.9v0.8h10.8v-0.7c0-6.8-5.4-11.8-15.5-11.8
					c-9.8,0-15.6,5.1-15.6,12.1c0,6.8,4.3,10.6,12.8,12.1l3.8,0.7c4,0.7,5.3,2,5.3,4.5c0,2.4-2.1,4.2-5.5,4.2
					c-3.5,0-5.6-1.7-5.6-4.3v-1H48.6V90.8z M122.7,85.5c0.1-0.8,0.1-2,0.1-3c0-12.7-5.8-20.7-18.4-20.7c-12.5,0-18.4,8-18.4,20.7
					c0,12.9,5.9,20.8,18.4,20.8c10,0,16.3-5,17.5-13h-11c-0.6,3.2-2.9,5-6.5,5c-4.7,0-7.2-3.4-7.5-9.8H122.7z M104.3,69.9
					c4.6,0,7.1,3.1,7.3,8.8H96.9C97.2,72.9,99.7,69.9,104.3,69.9z M149.7,70.8c1.3,0,2.6,0.1,3.2,0.1l0.1-8.8c-1-0.2-2-0.4-3.1-0.3
					c-5.9,0-9.1,2.8-10.3,8.3v-7.3h-11v39.5h11V82.6C139.7,74.9,143.4,70.8,149.7,70.8L149.7,70.8z M177.5,74.6
					c0,15.4,5.1,28.7,21.1,28.7c6.7,0,11.3-3,13.2-7.5l1.3,6.5h8.3V73H200v8.5h10.3c-0.5,7.3-3.4,12.1-10.5,12.1
					c-7.3,0-10.9-4.1-10.9-19c0-8.1,0.8-12.2,2.8-15.1c1.7-2.5,4.3-3.8,8-3.8c6.3,0,9.8,3.8,10.2,10.2h11.5
					c-0.7-12.2-8.5-19.8-21.7-19.8c-8.1,0-13.4,2.7-17,7.5C178.6,59,177.5,66.4,177.5,74.6L177.5,74.6z M228.4,87.8
					c0,10.1,4.7,15.4,13.1,15.4c5.6,0,9.6-3,11-7.6v6.6h10.9V62.8h-10.9v22.3c0,6.2-3.1,9.7-7.6,9.7c-3.6,0-5.7-2.3-5.7-7.2V62.8
					h-10.9L228.4,87.8z M270.8,56.5h10.9V47h-10.9V56.5z M270.8,102.3h10.9V62.8h-10.9V102.3z M313.8,82.5c0,8.3-2,12.3-7.5,12.3
					c-5.5,0-7.5-4-7.5-12.3c0-8.2,2.1-12.2,7.5-12.2C311.8,70.4,313.8,74.3,313.8,82.5L313.8,82.5z M313.8,68.9
					c-1.4-4.3-5.4-7.1-10.8-7.1c-9.3,0-15.1,6.6-15.1,20.7c0,14.1,5.8,20.8,15.1,20.8c5.5,0,9.4-2.8,10.8-7.1v6.1h10.8V47h-10.8
					V68.9z M367.4,85.5c0.1-0.8,0.1-2,0.1-3c0-12.7-5.8-20.7-18.4-20.7c-12.5,0-18.4,8-18.4,20.7c0,12.9,5.9,20.8,18.4,20.8
					c10,0,16.3-5,17.5-13h-11c-0.6,3.2-2.9,5-6.5,5c-4.7,0-7.2-3.4-7.5-9.8H367.4z M349,69.9c4.6,0,7.1,3.1,7.3,8.8h-14.8
					C341.9,72.9,344.4,69.9,349,69.9z"/>
			</defs>
			<clipPath id="SVGID_17_">
				<use xlink:href="#SVGID_16_"  style="overflow:visible;"/>
			</clipPath>
			<g class="st7">
				
					<image style="overflow:visible;enable-background:new    ;" width="230" height="58" xlink:href="2704D708.png"  transform="matrix(1 0 0 1 43.2031 45.7674)">
				</image>
			</g>
		</g>
		<g>
			<defs>
				<path id="SVGID_18_" d="M21.2,103.3c14.3,0,21.1-8.5,21.1-21.5V47H30.8v34.3c0,8.3-3.1,12.3-9.6,12.3c-6.6,0-9.6-4.1-9.6-12.3
					V47H0v34.8C0,94.8,6.8,103.3,21.2,103.3z M48.6,90.8c0,7.1,5.9,12.4,16.3,12.4c10.2,0,16.3-5.3,16.3-12.4s-3.7-10.8-12.6-12.4
					l-3.9-0.7c-3.8-0.7-5.2-1.9-5.2-4.2s1.6-3.8,4.6-3.8c3.1,0,4.7,1.7,4.7,3.9v0.8h10.8v-0.7c0-6.8-5.4-11.8-15.5-11.8
					c-9.8,0-15.6,5.1-15.6,12.1c0,6.8,4.3,10.6,12.8,12.1l3.8,0.7c4,0.7,5.3,2,5.3,4.5c0,2.4-2.1,4.2-5.5,4.2
					c-3.5,0-5.6-1.7-5.6-4.3v-1H48.6V90.8z M122.7,85.5c0.1-0.8,0.1-2,0.1-3c0-12.7-5.8-20.7-18.4-20.7c-12.5,0-18.4,8-18.4,20.7
					c0,12.9,5.9,20.8,18.4,20.8c10,0,16.3-5,17.5-13h-11c-0.6,3.2-2.9,5-6.5,5c-4.7,0-7.2-3.4-7.5-9.8H122.7z M104.3,69.9
					c4.6,0,7.1,3.1,7.3,8.8H96.9C97.2,72.9,99.7,69.9,104.3,69.9z M149.7,70.8c1.3,0,2.6,0.1,3.2,0.1l0.1-8.8c-1-0.2-2-0.4-3.1-0.3
					c-5.9,0-9.1,2.8-10.3,8.3v-7.3h-11v39.5h11V82.6C139.7,74.9,143.4,70.8,149.7,70.8L149.7,70.8z M177.5,74.6
					c0,15.4,5.1,28.7,21.1,28.7c6.7,0,11.3-3,13.2-7.5l1.3,6.5h8.3V73H200v8.5h10.3c-0.5,7.3-3.4,12.1-10.5,12.1
					c-7.3,0-10.9-4.1-10.9-19c0-8.1,0.8-12.2,2.8-15.1c1.7-2.5,4.3-3.8,8-3.8c6.3,0,9.8,3.8,10.2,10.2h11.5
					c-0.7-12.2-8.5-19.8-21.7-19.8c-8.1,0-13.4,2.7-17,7.5C178.6,59,177.5,66.4,177.5,74.6L177.5,74.6z M228.4,87.8
					c0,10.1,4.7,15.4,13.1,15.4c5.6,0,9.6-3,11-7.6v6.6h10.9V62.8h-10.9v22.3c0,6.2-3.1,9.7-7.6,9.7c-3.6,0-5.7-2.3-5.7-7.2V62.8
					h-10.9L228.4,87.8z M270.8,56.5h10.9V47h-10.9V56.5z M270.8,102.3h10.9V62.8h-10.9V102.3z M313.8,82.5c0,8.3-2,12.3-7.5,12.3
					c-5.5,0-7.5-4-7.5-12.3c0-8.2,2.1-12.2,7.5-12.2C311.8,70.4,313.8,74.3,313.8,82.5L313.8,82.5z M313.8,68.9
					c-1.4-4.3-5.4-7.1-10.8-7.1c-9.3,0-15.1,6.6-15.1,20.7c0,14.1,5.8,20.8,15.1,20.8c5.5,0,9.4-2.8,10.8-7.1v6.1h10.8V47h-10.8
					V68.9z M367.4,85.5c0.1-0.8,0.1-2,0.1-3c0-12.7-5.8-20.7-18.4-20.7c-12.5,0-18.4,8-18.4,20.7c0,12.9,5.9,20.8,18.4,20.8
					c10,0,16.3-5,17.5-13h-11c-0.6,3.2-2.9,5-6.5,5c-4.7,0-7.2-3.4-7.5-9.8H367.4z M349,69.9c4.6,0,7.1,3.1,7.3,8.8h-14.8
					C341.9,72.9,344.4,69.9,349,69.9z"/>
			</defs>
			<clipPath id="SVGID_19_">
				<use xlink:href="#SVGID_18_"  style="overflow:visible;"/>
			</clipPath>
			<g class="st8">
				
					<image style="overflow:visible;enable-background:new    ;" width="230" height="41" xlink:href="2704D708.png"  transform="matrix(1 0 0 1 43.2031 61.7674)">
				</image>
			</g>
		</g>
		<g>
			<defs>
				<path id="SVGID_20_" d="M21.2,103.3c14.3,0,21.1-8.5,21.1-21.5V47H30.8v34.3c0,8.3-3.1,12.3-9.6,12.3c-6.6,0-9.6-4.1-9.6-12.3
					V47H0v34.8C0,94.8,6.8,103.3,21.2,103.3z M48.6,90.8c0,7.1,5.9,12.4,16.3,12.4c10.2,0,16.3-5.3,16.3-12.4s-3.7-10.8-12.6-12.4
					l-3.9-0.7c-3.8-0.7-5.2-1.9-5.2-4.2s1.6-3.8,4.6-3.8c3.1,0,4.7,1.7,4.7,3.9v0.8h10.8v-0.7c0-6.8-5.4-11.8-15.5-11.8
					c-9.8,0-15.6,5.1-15.6,12.1c0,6.8,4.3,10.6,12.8,12.1l3.8,0.7c4,0.7,5.3,2,5.3,4.5c0,2.4-2.1,4.2-5.5,4.2
					c-3.5,0-5.6-1.7-5.6-4.3v-1H48.6V90.8z M122.7,85.5c0.1-0.8,0.1-2,0.1-3c0-12.7-5.8-20.7-18.4-20.7c-12.5,0-18.4,8-18.4,20.7
					c0,12.9,5.9,20.8,18.4,20.8c10,0,16.3-5,17.5-13h-11c-0.6,3.2-2.9,5-6.5,5c-4.7,0-7.2-3.4-7.5-9.8H122.7z M104.3,69.9
					c4.6,0,7.1,3.1,7.3,8.8H96.9C97.2,72.9,99.7,69.9,104.3,69.9z M149.7,70.8c1.3,0,2.6,0.1,3.2,0.1l0.1-8.8c-1-0.2-2-0.4-3.1-0.3
					c-5.9,0-9.1,2.8-10.3,8.3v-7.3h-11v39.5h11V82.6C139.7,74.9,143.4,70.8,149.7,70.8L149.7,70.8z M177.5,74.6
					c0,15.4,5.1,28.7,21.1,28.7c6.7,0,11.3-3,13.2-7.5l1.3,6.5h8.3V73H200v8.5h10.3c-0.5,7.3-3.4,12.1-10.5,12.1
					c-7.3,0-10.9-4.1-10.9-19c0-8.1,0.8-12.2,2.8-15.1c1.7-2.5,4.3-3.8,8-3.8c6.3,0,9.8,3.8,10.2,10.2h11.5
					c-0.7-12.2-8.5-19.8-21.7-19.8c-8.1,0-13.4,2.7-17,7.5C178.6,59,177.5,66.4,177.5,74.6L177.5,74.6z M228.4,87.8
					c0,10.1,4.7,15.4,13.1,15.4c5.6,0,9.6-3,11-7.6v6.6h10.9V62.8h-10.9v22.3c0,6.2-3.1,9.7-7.6,9.7c-3.6,0-5.7-2.3-5.7-7.2V62.8
					h-10.9L228.4,87.8z M270.8,56.5h10.9V47h-10.9V56.5z M270.8,102.3h10.9V62.8h-10.9V102.3z M313.8,82.5c0,8.3-2,12.3-7.5,12.3
					c-5.5,0-7.5-4-7.5-12.3c0-8.2,2.1-12.2,7.5-12.2C311.8,70.4,313.8,74.3,313.8,82.5L313.8,82.5z M313.8,68.9
					c-1.4-4.3-5.4-7.1-10.8-7.1c-9.3,0-15.1,6.6-15.1,20.7c0,14.1,5.8,20.8,15.1,20.8c5.5,0,9.4-2.8,10.8-7.1v6.1h10.8V47h-10.8
					V68.9z M367.4,85.5c0.1-0.8,0.1-2,0.1-3c0-12.7-5.8-20.7-18.4-20.7c-12.5,0-18.4,8-18.4,20.7c0,12.9,5.9,20.8,18.4,20.8
					c10,0,16.3-5,17.5-13h-11c-0.6,3.2-2.9,5-6.5,5c-4.7,0-7.2-3.4-7.5-9.8H367.4z M349,69.9c4.6,0,7.1,3.1,7.3,8.8h-14.8
					C341.9,72.9,344.4,69.9,349,69.9z"/>
			</defs>
			<clipPath id="SVGID_21_">
				<use xlink:href="#SVGID_20_"  style="overflow:visible;"/>
			</clipPath>
			<g class="st9">
				
					<image style="overflow:visible;enable-background:new    ;" width="230" height="9" xlink:href="A3B31227.png"  transform="matrix(1 0 0 1 43.2031 69.7674)">
				</image>
			</g>
		</g>
		<g>
			<defs>
				<path id="SVGID_22_" d="M21.2,103.3c14.3,0,21.1-8.5,21.1-21.5V47H30.8v34.3c0,8.3-3.1,12.3-9.6,12.3c-6.6,0-9.6-4.1-9.6-12.3
					V47H0v34.8C0,94.8,6.8,103.3,21.2,103.3z M48.6,90.8c0,7.1,5.9,12.4,16.3,12.4c10.2,0,16.3-5.3,16.3-12.4s-3.7-10.8-12.6-12.4
					l-3.9-0.7c-3.8-0.7-5.2-1.9-5.2-4.2s1.6-3.8,4.6-3.8c3.1,0,4.7,1.7,4.7,3.9v0.8h10.8v-0.7c0-6.8-5.4-11.8-15.5-11.8
					c-9.8,0-15.6,5.1-15.6,12.1c0,6.8,4.3,10.6,12.8,12.1l3.8,0.7c4,0.7,5.3,2,5.3,4.5c0,2.4-2.1,4.2-5.5,4.2
					c-3.5,0-5.6-1.7-5.6-4.3v-1H48.6V90.8z M122.7,85.5c0.1-0.8,0.1-2,0.1-3c0-12.7-5.8-20.7-18.4-20.7c-12.5,0-18.4,8-18.4,20.7
					c0,12.9,5.9,20.8,18.4,20.8c10,0,16.3-5,17.5-13h-11c-0.6,3.2-2.9,5-6.5,5c-4.7,0-7.2-3.4-7.5-9.8H122.7z M104.3,69.9
					c4.6,0,7.1,3.1,7.3,8.8H96.9C97.2,72.9,99.7,69.9,104.3,69.9z M149.7,70.8c1.3,0,2.6,0.1,3.2,0.1l0.1-8.8c-1-0.2-2-0.4-3.1-0.3
					c-5.9,0-9.1,2.8-10.3,8.3v-7.3h-11v39.5h11V82.6C139.7,74.9,143.4,70.8,149.7,70.8L149.7,70.8z M177.5,74.6
					c0,15.4,5.1,28.7,21.1,28.7c6.7,0,11.3-3,13.2-7.5l1.3,6.5h8.3V73H200v8.5h10.3c-0.5,7.3-3.4,12.1-10.5,12.1
					c-7.3,0-10.9-4.1-10.9-19c0-8.1,0.8-12.2,2.8-15.1c1.7-2.5,4.3-3.8,8-3.8c6.3,0,9.8,3.8,10.2,10.2h11.5
					c-0.7-12.2-8.5-19.8-21.7-19.8c-8.1,0-13.4,2.7-17,7.5C178.6,59,177.5,66.4,177.5,74.6L177.5,74.6z M228.4,87.8
					c0,10.1,4.7,15.4,13.1,15.4c5.6,0,9.6-3,11-7.6v6.6h10.9V62.8h-10.9v22.3c0,6.2-3.1,9.7-7.6,9.7c-3.6,0-5.7-2.3-5.7-7.2V62.8
					h-10.9L228.4,87.8z M270.8,56.5h10.9V47h-10.9V56.5z M270.8,102.3h10.9V62.8h-10.9V102.3z M313.8,82.5c0,8.3-2,12.3-7.5,12.3
					c-5.5,0-7.5-4-7.5-12.3c0-8.2,2.1-12.2,7.5-12.2C311.8,70.4,313.8,74.3,313.8,82.5L313.8,82.5z M313.8,68.9
					c-1.4-4.3-5.4-7.1-10.8-7.1c-9.3,0-15.1,6.6-15.1,20.7c0,14.1,5.8,20.8,15.1,20.8c5.5,0,9.4-2.8,10.8-7.1v6.1h10.8V47h-10.8
					V68.9z M367.4,85.5c0.1-0.8,0.1-2,0.1-3c0-12.7-5.8-20.7-18.4-20.7c-12.5,0-18.4,8-18.4,20.7c0,12.9,5.9,20.8,18.4,20.8
					c10,0,16.3-5,17.5-13h-11c-0.6,3.2-2.9,5-6.5,5c-4.7,0-7.2-3.4-7.5-9.8H367.4z M349,69.9c4.6,0,7.1,3.1,7.3,8.8h-14.8
					C341.9,72.9,344.4,69.9,349,69.9z"/>
			</defs>
			<clipPath id="SVGID_23_">
				<use xlink:href="#SVGID_22_"  style="overflow:visible;"/>
			</clipPath>
			<g class="st10">
				
					<image style="overflow:visible;enable-background:new    ;" width="230" height="42" xlink:href="A3B31225.png"  transform="matrix(1 0 0 1 43.2031 61.7674)">
				</image>
			</g>
		</g>
		<g>
			<defs>
				<path id="SVGID_24_" d="M21.2,103.3c14.3,0,21.1-8.5,21.1-21.5V47H30.8v34.3c0,8.3-3.1,12.3-9.6,12.3c-6.6,0-9.6-4.1-9.6-12.3
					V47H0v34.8C0,94.8,6.8,103.3,21.2,103.3z M48.6,90.8c0,7.1,5.9,12.4,16.3,12.4c10.2,0,16.3-5.3,16.3-12.4s-3.7-10.8-12.6-12.4
					l-3.9-0.7c-3.8-0.7-5.2-1.9-5.2-4.2s1.6-3.8,4.6-3.8c3.1,0,4.7,1.7,4.7,3.9v0.8h10.8v-0.7c0-6.8-5.4-11.8-15.5-11.8
					c-9.8,0-15.6,5.1-15.6,12.1c0,6.8,4.3,10.6,12.8,12.1l3.8,0.7c4,0.7,5.3,2,5.3,4.5c0,2.4-2.1,4.2-5.5,4.2
					c-3.5,0-5.6-1.7-5.6-4.3v-1H48.6V90.8z M122.7,85.5c0.1-0.8,0.1-2,0.1-3c0-12.7-5.8-20.7-18.4-20.7c-12.5,0-18.4,8-18.4,20.7
					c0,12.9,5.9,20.8,18.4,20.8c10,0,16.3-5,17.5-13h-11c-0.6,3.2-2.9,5-6.5,5c-4.7,0-7.2-3.4-7.5-9.8H122.7z M104.3,69.9
					c4.6,0,7.1,3.1,7.3,8.8H96.9C97.2,72.9,99.7,69.9,104.3,69.9z M149.7,70.8c1.3,0,2.6,0.1,3.2,0.1l0.1-8.8c-1-0.2-2-0.4-3.1-0.3
					c-5.9,0-9.1,2.8-10.3,8.3v-7.3h-11v39.5h11V82.6C139.7,74.9,143.4,70.8,149.7,70.8L149.7,70.8z M177.5,74.6
					c0,15.4,5.1,28.7,21.1,28.7c6.7,0,11.3-3,13.2-7.5l1.3,6.5h8.3V73H200v8.5h10.3c-0.5,7.3-3.4,12.1-10.5,12.1
					c-7.3,0-10.9-4.1-10.9-19c0-8.1,0.8-12.2,2.8-15.1c1.7-2.5,4.3-3.8,8-3.8c6.3,0,9.8,3.8,10.2,10.2h11.5
					c-0.7-12.2-8.5-19.8-21.7-19.8c-8.1,0-13.4,2.7-17,7.5C178.6,59,177.5,66.4,177.5,74.6L177.5,74.6z M228.4,87.8
					c0,10.1,4.7,15.4,13.1,15.4c5.6,0,9.6-3,11-7.6v6.6h10.9V62.8h-10.9v22.3c0,6.2-3.1,9.7-7.6,9.7c-3.6,0-5.7-2.3-5.7-7.2V62.8
					h-10.9L228.4,87.8z M270.8,56.5h10.9V47h-10.9V56.5z M270.8,102.3h10.9V62.8h-10.9V102.3z M313.8,82.5c0,8.3-2,12.3-7.5,12.3
					c-5.5,0-7.5-4-7.5-12.3c0-8.2,2.1-12.2,7.5-12.2C311.8,70.4,313.8,74.3,313.8,82.5L313.8,82.5z M313.8,68.9
					c-1.4-4.3-5.4-7.1-10.8-7.1c-9.3,0-15.1,6.6-15.1,20.7c0,14.1,5.8,20.8,15.1,20.8c5.5,0,9.4-2.8,10.8-7.1v6.1h10.8V47h-10.8
					V68.9z M367.4,85.5c0.1-0.8,0.1-2,0.1-3c0-12.7-5.8-20.7-18.4-20.7c-12.5,0-18.4,8-18.4,20.7c0,12.9,5.9,20.8,18.4,20.8
					c10,0,16.3-5,17.5-13h-11c-0.6,3.2-2.9,5-6.5,5c-4.7,0-7.2-3.4-7.5-9.8H367.4z M349,69.9c4.6,0,7.1,3.1,7.3,8.8h-14.8
					C341.9,72.9,344.4,69.9,349,69.9z"/>
			</defs>
			<clipPath id="SVGID_25_">
				<use xlink:href="#SVGID_24_"  style="overflow:visible;"/>
			</clipPath>
			<g class="st11">
				
					<image style="overflow:visible;enable-background:new    ;" width="230" height="42" xlink:href="A3B31223.png"  transform="matrix(1 0 0 1 43.2031 61.7674)">
				</image>
			</g>
		</g>
		<g>
			<defs>
				<path id="SVGID_26_" d="M21.2,103.3c14.3,0,21.1-8.5,21.1-21.5V47H30.8v34.3c0,8.3-3.1,12.3-9.6,12.3c-6.6,0-9.6-4.1-9.6-12.3
					V47H0v34.8C0,94.8,6.8,103.3,21.2,103.3z M48.6,90.8c0,7.1,5.9,12.4,16.3,12.4c10.2,0,16.3-5.3,16.3-12.4s-3.7-10.8-12.6-12.4
					l-3.9-0.7c-3.8-0.7-5.2-1.9-5.2-4.2s1.6-3.8,4.6-3.8c3.1,0,4.7,1.7,4.7,3.9v0.8h10.8v-0.7c0-6.8-5.4-11.8-15.5-11.8
					c-9.8,0-15.6,5.1-15.6,12.1c0,6.8,4.3,10.6,12.8,12.1l3.8,0.7c4,0.7,5.3,2,5.3,4.5c0,2.4-2.1,4.2-5.5,4.2
					c-3.5,0-5.6-1.7-5.6-4.3v-1H48.6V90.8z M122.7,85.5c0.1-0.8,0.1-2,0.1-3c0-12.7-5.8-20.7-18.4-20.7c-12.5,0-18.4,8-18.4,20.7
					c0,12.9,5.9,20.8,18.4,20.8c10,0,16.3-5,17.5-13h-11c-0.6,3.2-2.9,5-6.5,5c-4.7,0-7.2-3.4-7.5-9.8H122.7z M104.3,69.9
					c4.6,0,7.1,3.1,7.3,8.8H96.9C97.2,72.9,99.7,69.9,104.3,69.9z M149.7,70.8c1.3,0,2.6,0.1,3.2,0.1l0.1-8.8c-1-0.2-2-0.4-3.1-0.3
					c-5.9,0-9.1,2.8-10.3,8.3v-7.3h-11v39.5h11V82.6C139.7,74.9,143.4,70.8,149.7,70.8L149.7,70.8z M177.5,74.6
					c0,15.4,5.1,28.7,21.1,28.7c6.7,0,11.3-3,13.2-7.5l1.3,6.5h8.3V73H200v8.5h10.3c-0.5,7.3-3.4,12.1-10.5,12.1
					c-7.3,0-10.9-4.1-10.9-19c0-8.1,0.8-12.2,2.8-15.1c1.7-2.5,4.3-3.8,8-3.8c6.3,0,9.8,3.8,10.2,10.2h11.5
					c-0.7-12.2-8.5-19.8-21.7-19.8c-8.1,0-13.4,2.7-17,7.5C178.6,59,177.5,66.4,177.5,74.6L177.5,74.6z M228.4,87.8
					c0,10.1,4.7,15.4,13.1,15.4c5.6,0,9.6-3,11-7.6v6.6h10.9V62.8h-10.9v22.3c0,6.2-3.1,9.7-7.6,9.7c-3.6,0-5.7-2.3-5.7-7.2V62.8
					h-10.9L228.4,87.8z M270.8,56.5h10.9V47h-10.9V56.5z M270.8,102.3h10.9V62.8h-10.9V102.3z M313.8,82.5c0,8.3-2,12.3-7.5,12.3
					c-5.5,0-7.5-4-7.5-12.3c0-8.2,2.1-12.2,7.5-12.2C311.8,70.4,313.8,74.3,313.8,82.5L313.8,82.5z M313.8,68.9
					c-1.4-4.3-5.4-7.1-10.8-7.1c-9.3,0-15.1,6.6-15.1,20.7c0,14.1,5.8,20.8,15.1,20.8c5.5,0,9.4-2.8,10.8-7.1v6.1h10.8V47h-10.8
					V68.9z M367.4,85.5c0.1-0.8,0.1-2,0.1-3c0-12.7-5.8-20.7-18.4-20.7c-12.5,0-18.4,8-18.4,20.7c0,12.9,5.9,20.8,18.4,20.8
					c10,0,16.3-5,17.5-13h-11c-0.6,3.2-2.9,5-6.5,5c-4.7,0-7.2-3.4-7.5-9.8H367.4z M349,69.9c4.6,0,7.1,3.1,7.3,8.8h-14.8
					C341.9,72.9,344.4,69.9,349,69.9z"/>
			</defs>
			<clipPath id="SVGID_27_">
				<use xlink:href="#SVGID_26_"  style="overflow:visible;"/>
			</clipPath>
			<g class="st12">
				
					<image style="overflow:visible;enable-background:new    ;" width="274" height="57" xlink:href="A3B3123D.png"  transform="matrix(1 0 0 1 -0.7969 46.7674)">
				</image>
			</g>
		</g>
	</g>
</g>
<g>
	<g class="st13">
		<g>
			<g>
				<g>
					
						<linearGradient id="SVGID_28_" gradientUnits="userSpaceOnUse" x1="393.5503" y1="51.02" x2="393.5503" y2="96.9205" gradientTransform="matrix(1 0 0 -1 0 106)">
						<stop  offset="4.469269e-03" style="stop-color:#E5657B"/>
						<stop  offset="0.1309" style="stop-color:#EC7F5B;stop-opacity:0.9746"/>
						<stop  offset="0.2906" style="stop-color:#F39A3B;stop-opacity:0.9425"/>
						<stop  offset="0.4554" style="stop-color:#F8B021;stop-opacity:0.9094"/>
						<stop  offset="0.625" style="stop-color:#FCBF0E;stop-opacity:0.8753"/>
						<stop  offset="0.8023" style="stop-color:#FEC804;stop-opacity:0.8397"/>
						<stop  offset="1" style="stop-color:#FFCB00;stop-opacity:0.8"/>
					</linearGradient>
					<path id="SVGID_3_" class="st14" d="M377.4,42.2c2.4,4.5,4.9,9.7,4.9,12.8h22.5c0,0,0.9-4.8,4.5-12.3c2.8-4.6,4.8-8.2,4.7-13.3
						c-0.1-11.1-9.2-20.2-20.3-20.3c-11.4-0.1-20.6,9.1-20.6,20.5C373.1,34.3,375.2,38.4,377.4,42.2z"/>
				</g>
			</g>
		</g>
	</g>
	
		<linearGradient id="SVGID_29_" gradientUnits="userSpaceOnUse" x1="381.02" y1="-958.84" x2="404.8" y2="-958.84" gradientTransform="matrix(1 0 0 -1 0 -890)">
		<stop  offset="0" style="stop-color:#AB73C5"/>
		<stop  offset="0.2548" style="stop-color:#9C6EBA"/>
		<stop  offset="0.74" style="stop-color:#76619D"/>
		<stop  offset="1" style="stop-color:#5F598B"/>
	</linearGradient>
	<path class="st15" d="M404.8,55.1h-22.5c0,6,4.6,10.8,10.5,11.2l-0.1,6.7V73c0,0,0.1,1.1-0.5,1.8c-0.4,0.4-1,0.7-1.8,0.8
		c-0.5,0-1.1,0-1.9-0.1c-2.2-0.2-4.9-0.3-6.4,1.1c-0.7,0.7-1,1.5-1,2.7v3.4h1.5v-3.4c0-0.7,0.2-1.2,0.6-1.6c1-1,3.5-0.8,5.3-0.7
		c0.8,0.1,1.5,0.1,2.1,0.1c1.2-0.1,2.2-0.5,2.8-1.3c0.9-1.1,0.9-2.5,0.9-2.8l0.1-6.7C400.2,65.9,404.8,61,404.8,55.1z"/>
	<path class="st16" d="M413.3,16.3l3.4-1.6c0.6-0.3,1.4-0.1,1.7,0.6l0.1,0.3c0.3,0.6,0,1.4-0.6,1.7l-3.4,1.6c-0.6,0.3-1.4,0-1.7-0.6
		l-0.1-0.3C412.4,17.4,412.6,16.6,413.3,16.3z"/>
	<path class="st16" d="M404.4,7.7l2-3.2c0.4-0.6,1.2-0.8,1.8-0.4l0.2,0.2c0.6,0.4,0.8,1.2,0.4,1.8l-2,3.2c-0.4,0.6-1.2,0.8-1.8,0.4
		l-0.3-0.2C404.1,9.1,404,8.3,404.4,7.7z"/>
	<path class="st16" d="M392.2,5.1l0-3.8c0-0.7,0.6-1.3,1.3-1.3h0.3c0.7,0,1.3,0.6,1.3,1.3l0,3.8c0,0.7-0.6,1.3-1.3,1.3h-0.3
		C392.8,6.3,392.2,5.8,392.2,5.1z"/>
	<path class="st16" d="M380.5,9.3l-2-3.2c-0.4-0.6-0.2-1.4,0.4-1.8l0.3-0.2c0.6-0.4,1.4-0.2,1.8,0.4l2,3.2c0.4,0.6,0.2,1.4-0.4,1.8
		l-0.3,0.2C381.6,10.1,380.9,9.9,380.5,9.3z"/>
	<path class="st16" d="M372.8,19l-3.4-1.7c-0.6-0.3-0.9-1.1-0.6-1.7l0.1-0.3c0.3-0.6,1.1-0.9,1.7-0.6l3.4,1.7
		c0.6,0.3,0.9,1.1,0.6,1.7l-0.1,0.3C374.2,19.1,373.4,19.4,372.8,19z"/>
	
		<linearGradient id="SVGID_30_" gradientUnits="userSpaceOnUse" x1="393.55" y1="-933.05" x2="393.55" y2="-938.3348" gradientTransform="matrix(1 0 0 -1 0 -890)">
		<stop  offset="5.381067e-07" style="stop-color:#FFFFFF;stop-opacity:0.4"/>
		<stop  offset="1" style="stop-color:#FFFFFF;stop-opacity:0.4"/>
	</linearGradient>
	<path class="st17" d="M398.2,43c-0.5,0-0.9,0.1-1.2,0.3c-0.3-0.2-0.7-0.3-1.1-0.3c-0.5,0-0.9,0.1-1.2,0.3c-0.3-0.2-0.7-0.3-1.1-0.3
		c-0.5,0-0.9,0.1-1.2,0.3c-0.3-0.2-0.7-0.3-1.1-0.3c-0.5,0-0.9,0.1-1.2,0.3c-0.3-0.2-0.7-0.3-1.1-0.3c-1.4,0-2.5,1.1-2.5,2.5
		c0,1.4,1.1,2.5,2.5,2.5c0.5,0,0.9-0.1,1.2-0.3c0.3,0.2,0.7,0.3,1.1,0.3c0.5,0,0.9-0.1,1.2-0.3c0.3,0.2,0.7,0.3,1.1,0.3
		c0.5,0,0.9-0.1,1.2-0.3c0.3,0.2,0.7,0.3,1.1,0.3c0.5,0,0.9-0.1,1.2-0.3c0.3,0.2,0.7,0.3,1.1,0.3c1.4,0,2.5-1.1,2.5-2.5
		S399.6,43,398.2,43z M397.8,45.6c0,0.6-0.3,1.1-0.7,1.4c-0.5-0.3-0.8-0.9-0.8-1.5c0-0.6,0.3-1.1,0.7-1.4
		C397.5,44.5,397.8,45,397.8,45.6z M395.9,43.7c0.2,0,0.4,0,0.5,0.1c-0.3,0.3-0.5,0.6-0.6,1c-0.1-0.4-0.4-0.7-0.6-0.9
		C395.4,43.8,395.6,43.7,395.9,43.7z M394.8,47.1c-0.5-0.3-0.8-0.9-0.8-1.5c0-0.6,0.3-1.1,0.7-1.4c0.5,0.3,0.8,0.9,0.8,1.5
		C395.4,46.3,395.2,46.8,394.8,47.1z M393.5,43.8c0.2,0,0.4,0,0.5,0.1c-0.3,0.3-0.5,0.6-0.6,1c-0.1-0.4-0.4-0.7-0.6-0.9
		C393.1,43.9,393.3,43.8,393.5,43.8z M392.4,47.2c-0.5-0.3-0.8-0.9-0.8-1.5c0-0.6,0.3-1.1,0.7-1.4c0.5,0.3,0.8,0.9,0.8,1.5
		C393.1,46.3,392.8,46.9,392.4,47.2z M391.2,43.9c0.2,0,0.4,0,0.5,0.1c-0.3,0.3-0.5,0.6-0.6,1c-0.1-0.4-0.4-0.7-0.6-0.9
		C390.8,43.9,391,43.9,391.2,43.9z M390.1,47.3c-0.5-0.3-0.8-0.9-0.8-1.5c0-0.6,0.3-1.1,0.7-1.4c0.5,0.3,0.8,0.9,0.8,1.5
		C390.8,46.4,390.5,46.9,390.1,47.3z M388.9,47.7c-1,0-1.9-0.8-1.9-1.9s0.9-1.9,1.9-1.9c0.2,0,0.4,0,0.5,0.1c-0.4,0.5-0.7,1-0.7,1.7
		c0,0.7,0.3,1.4,0.8,1.8C389.3,47.7,389.1,47.7,388.9,47.7z M391.2,47.7c-0.2,0-0.4,0-0.5-0.1c0.3-0.3,0.5-0.6,0.6-1
		c0.1,0.4,0.4,0.7,0.6,0.9C391.7,47.6,391.5,47.7,391.2,47.7z M393.5,47.6c-0.2,0-0.4,0-0.5-0.1c0.3-0.3,0.5-0.6,0.6-1
		c0.1,0.4,0.4,0.7,0.6,0.9C394,47.5,393.8,47.6,393.5,47.6z M395.9,47.5c-0.2,0-0.4,0-0.5-0.1c0.3-0.3,0.5-0.6,0.6-1
		c0.1,0.4,0.4,0.7,0.6,0.9C396.4,47.5,396.1,47.5,395.9,47.5z M398.2,47.4c-0.2,0-0.4,0-0.5-0.1c0.4-0.5,0.7-1,0.7-1.7
		c0-0.7-0.3-1.4-0.8-1.8c0.2-0.1,0.4-0.1,0.7-0.1c1,0,1.9,0.8,1.9,1.9S399.3,47.4,398.2,47.4z"/>
</g>
</svg>
